{"glyphs":{"0":{"ha":994,"x_min":0,"x_max":0,"o":"m 497 -18 b 928 506 779 -18 928 183 b 497 1024 928 826 779 1024 b 65 506 214 1024 65 826 b 497 -18 65 183 214 -18 z m 497 151 b 300 506 379 151 300 261 b 497 854 300 749 379 854 b 693 506 614 854 693 749 b 497 151 693 261 614 151 z "},"1":{"ha":576,"x_min":0,"x_max":0,"o":"m 472 0 l 472 1007 l 299 1007 b 15 844 254 897 185 849 l 15 676 l 244 676 l 244 0 z "},"2":{"ha":847,"x_min":0,"x_max":0,"o":"m 438 1024 b 43 644 204 1024 36 883 l 269 644 b 431 854 263 806 350 854 b 571 726 507 854 571 814 b 32 188 571 561 303 385 l 32 0 l 806 0 l 806 188 l 324 188 b 801 740 621 358 801 529 b 438 1024 801 919 649 1024 z "},"3":{"ha":889,"x_min":0,"x_max":0,"o":"m 438 151 b 250 315 350 151 265 197 l 22 315 b 433 -18 49 81 233 -18 b 833 293 643 -18 833 86 b 676 532 833 386 776 492 b 817 761 747 572 817 656 b 449 1024 817 944 626 1024 b 35 714 246 1024 57 935 l 261 714 b 438 854 276 821 351 854 b 586 742 513 854 586 815 b 375 610 586 653 507 610 l 315 610 l 315 421 l 382 421 b 599 292 511 421 599 381 b 438 151 599 199 538 151 z "},"4":{"ha":879,"x_min":0,"x_max":0,"o":"m 501 708 l 501 414 l 263 414 z m 869 414 l 731 414 l 731 1007 l 518 1007 l 11 392 l 11 213 l 501 213 l 501 0 l 731 0 l 731 213 l 869 213 z "},"5":{"ha":931,"x_min":0,"x_max":0,"o":"m 463 151 b 279 310 374 151 300 193 l 58 310 b 465 -18 92 96 257 -18 b 876 333 686 -18 876 103 b 522 685 876 567 704 685 b 322 632 451 685 371 665 l 346 821 l 829 821 l 829 1007 l 156 1007 l 85 436 l 294 415 b 467 515 329 481 388 515 b 640 332 556 515 640 456 b 463 151 640 215 564 151 z "},"6":{"ha":908,"x_min":0,"x_max":0,"o":"m 296 331 b 460 510 296 442 360 510 b 619 331 560 510 619 436 b 460 151 619 221 560 151 b 296 331 360 151 296 221 z m 474 858 b 618 733 546 858 607 828 l 843 733 b 486 1024 832 893 719 1024 b 54 479 179 1024 54 774 b 460 -18 54 200 174 -18 b 854 331 689 -18 854 118 b 510 682 854 536 692 682 b 293 608 410 682 343 653 b 474 858 289 779 368 858 z "},"7":{"ha":728,"x_min":0,"x_max":0,"o":"m -4 821 l 510 821 b 93 0 267 636 93 369 l 338 0 b 750 821 344 379 469 585 l 750 1007 l -4 1007 z "},"8":{"ha":950,"x_min":0,"x_max":0,"o":"m 475 -18 b 886 299 708 -18 886 97 b 750 542 886 393 854 476 b 857 753 818 590 857 647 b 475 1024 857 904 708 1024 b 92 753 242 1024 92 904 b 200 542 92 647 129 590 b 64 299 96 476 64 393 b 475 -18 64 97 242 -18 z m 475 151 b 299 307 361 151 299 224 b 475 457 299 390 360 457 b 651 307 590 457 651 390 b 475 151 651 224 589 151 z m 475 607 b 319 731 371 607 319 660 b 475 854 319 803 371 854 b 631 731 579 854 631 803 b 475 607 631 660 579 607 z "},"9":{"ha":904,"x_min":0,"x_max":0,"o":"m 603 675 b 440 496 603 564 540 496 b 281 675 340 496 281 569 b 440 854 281 785 340 854 b 603 675 540 854 603 785 z m 425 149 b 282 272 354 149 293 178 l 57 272 b 414 -18 68 113 181 -18 b 846 526 721 -18 846 232 b 440 1024 846 806 726 1024 b 46 675 210 1024 46 888 b 389 324 46 469 206 324 b 607 397 490 324 557 353 b 425 149 611 228 532 149 z "}," ":{"ha":299,"x_min":0,"x_max":0,"o":""},"!":{"ha":425,"x_min":0,"x_max":0,"o":"m 289 321 l 358 732 l 358 1007 l 67 1007 l 67 732 l 136 321 z m 342 0 l 342 247 l 83 247 l 83 0 z "},"\"":{"ha":578,"x_min":0,"x_max":0,"o":"m 315 1007 l 346 654 l 515 654 l 546 1007 z m 32 1007 l 63 654 l 232 654 l 263 1007 z "},"#":{"ha":1147,"x_min":0,"x_max":0,"o":"m 83 794 l 60 604 l 263 604 l 232 394 l 28 394 l 3 203 l 204 203 l 175 0 l 393 0 l 422 203 l 635 203 l 606 0 l 824 0 l 853 203 l 1064 203 l 1088 394 l 881 394 l 911 604 l 1119 604 l 1144 794 l 939 794 l 969 1007 l 751 1007 l 721 794 l 508 794 l 539 1007 l 321 1007 l 290 794 z m 481 604 l 693 604 l 663 394 l 450 394 z "},"$":{"ha":911,"x_min":0,"x_max":0,"o":"m 408 1132 l 408 1022 b 65 733 244 1007 65 919 b 358 429 65 554 215 458 l 408 418 l 408 161 b 265 343 321 168 261 228 l 43 340 b 408 -15 39 136 197 0 l 408 -156 l 503 -156 l 503 -15 b 867 294 689 0 867 107 b 508 601 867 507 665 564 l 503 603 l 503 843 b 631 686 582 833 635 774 l 853 689 b 503 1021 857 869 707 1003 l 503 1132 z m 647 275 b 503 160 647 210 585 165 l 503 396 b 647 275 590 372 647 340 z m 279 739 b 408 846 279 799 332 842 l 408 624 b 279 739 313 644 279 685 z "},"%":{"ha":1492,"x_min":0,"x_max":0,"o":"m 269 544 b 178 722 215 544 178 590 b 269 901 178 857 215 901 b 358 722 321 901 358 857 b 269 544 358 590 321 544 z m 269 429 b 515 722 432 429 515 538 b 269 1017 515 907 432 1017 b 21 722 104 1017 21 907 b 269 429 21 538 104 429 z m 514 0 l 1208 1007 l 978 1007 l 283 0 z m 1200 104 b 1108 282 1146 104 1108 150 b 1200 461 1108 417 1146 461 b 1289 282 1251 461 1289 417 b 1200 104 1289 150 1251 104 z m 1200 -11 b 1446 282 1363 -11 1446 97 b 1200 576 1446 467 1363 576 b 951 282 1035 576 951 467 b 1200 -11 951 97 1035 -11 z "},"&":{"ha":976,"x_min":0,"x_max":0,"o":"m 344 -18 b 642 86 460 -18 558 21 l 717 0 l 1013 0 l 792 251 b 911 589 858 357 900 478 l 688 589 b 646 418 683 535 668 478 l 540 538 b 722 789 635 579 722 671 b 414 1024 722 951 567 1024 b 113 799 232 1024 113 929 b 217 583 113 728 149 667 b -17 294 101 535 -17 442 b 344 -18 -17 106 138 -18 z m 365 168 b 218 301 281 168 218 213 b 338 440 218 356 254 403 l 519 229 b 365 168 475 192 425 168 z m 350 786 b 429 846 350 824 383 846 b 513 775 472 846 513 821 b 429 664 513 742 490 696 b 350 786 392 703 350 753 z "},"'":{"ha":294,"x_min":0,"x_max":0,"o":"m 32 1007 l 63 654 l 232 654 l 263 1007 z "},"(":{"ha":440,"x_min":0,"x_max":0,"o":"m 35 382 b 233 -243 35 114 147 -119 l 451 -243 b 267 382 351 -83 267 149 b 451 1007 267 618 350 846 l 233 1007 b 35 382 149 885 35 650 z "},")":{"ha":440,"x_min":0,"x_max":0,"o":"m 406 382 b 206 1007 406 649 290 885 l -11 1007 b 172 382 89 847 172 617 b -11 -243 172 149 89 -83 l 206 -243 b 406 382 290 -121 406 115 z "},"*":{"ha":496,"x_min":0,"x_max":0,"o":"m 304 1007 l 164 1007 l 164 868 l 36 918 l -14 788 l 121 740 l 39 625 l 157 546 l 236 663 l 321 546 l 432 628 l 351 740 l 485 788 l 435 918 l 304 868 z "},"+":{"ha":942,"x_min":0,"x_max":0,"o":"m 579 0 l 579 278 l 872 278 l 872 471 l 579 471 l 579 747 l 364 747 l 364 471 l 69 471 l 69 278 l 364 278 l 364 0 z "},",":{"ha":390,"x_min":0,"x_max":0,"o":"m 67 0 l 167 0 l 46 -219 l 182 -219 l 324 -14 l 324 247 l 67 247 z "},"-":{"ha":610,"x_min":0,"x_max":0,"o":"m 550 272 l 550 465 l 60 465 l 60 272 z "},".":{"ha":392,"x_min":0,"x_max":0,"o":"m 325 0 l 325 247 l 67 247 l 67 0 z "},"/":{"ha":636,"x_min":0,"x_max":0,"o":"m 229 0 l 636 1007 l 407 1007 l 0 0 z "},":":{"ha":392,"x_min":0,"x_max":0,"o":"m 325 500 l 325 747 l 67 747 l 67 500 z m 325 0 l 325 247 l 67 247 l 67 0 z "},";":{"ha":392,"x_min":0,"x_max":0,"o":"m 325 500 l 325 747 l 67 747 l 67 500 z m 67 0 l 167 0 l 46 -219 l 182 -219 l 324 -14 l 324 247 l 67 247 z "},"<":{"ha":942,"x_min":0,"x_max":0,"o":"m 92 468 l 92 275 l 836 -8 l 836 204 l 346 372 l 836 538 l 836 751 z "},"=":{"ha":942,"x_min":0,"x_max":0,"o":"m 836 411 l 836 604 l 106 604 l 106 411 z m 836 138 l 836 329 l 106 329 l 106 138 z "},">":{"ha":942,"x_min":0,"x_max":0,"o":"m 850 468 l 106 751 l 106 538 l 596 372 l 106 204 l 106 -8 l 850 275 z "},"?":{"ha":867,"x_min":0,"x_max":0,"o":"m 453 1024 b 25 679 200 1024 25 899 l 247 679 b 450 840 247 792 333 840 b 604 749 544 840 604 804 b 435 629 604 690 503 664 b 268 386 340 582 268 524 b 272 319 268 368 268 340 l 501 319 l 501 356 b 649 519 501 444 550 475 b 839 767 756 571 839 633 b 453 1024 839 943 653 1024 z m 515 0 l 515 247 l 257 247 l 257 0 z "},"@":{"ha":1147,"x_min":0,"x_max":0,"o":"m 838 211 b 1092 564 971 211 1092 339 b 601 1007 1092 868 860 1007 b 56 485 290 1007 56 778 b 550 -18 56 189 257 -18 b 853 50 644 -18 753 1 l 813 146 b 551 81 728 103 642 81 b 167 481 322 81 167 243 b 599 911 167 725 342 911 b 985 558 826 911 985 788 b 857 324 985 413 922 324 b 810 461 797 324 799 388 l 864 772 l 713 772 l 701 711 b 544 794 664 776 604 794 b 253 468 404 794 253 658 b 482 210 253 290 361 210 b 668 319 564 210 625 246 b 838 211 694 243 760 211 z m 560 638 b 643 540 611 638 643 600 b 518 364 643 444 597 364 b 432 468 461 364 432 399 b 560 638 432 558 482 638 z "},"A":{"ha":1007,"x_min":0,"x_max":0,"o":"m -7 0 l 246 0 l 306 179 l 694 179 l 756 0 l 1014 0 l 633 1007 l 372 1007 z m 501 756 l 631 372 l 371 372 z "},"B":{"ha":992,"x_min":0,"x_max":0,"o":"m 92 0 l 549 0 b 956 310 793 0 956 83 b 796 536 956 432 890 503 b 915 746 874 585 915 653 b 531 1007 915 957 751 1007 l 92 1007 z m 329 428 l 551 428 b 704 314 653 428 704 385 b 551 200 704 243 653 200 l 329 200 z m 329 807 l 539 807 b 668 707 622 807 668 769 b 539 604 668 644 622 604 l 329 604 z "},"C":{"ha":1042,"x_min":0,"x_max":0,"o":"m 781 375 b 536 178 750 222 640 178 b 282 504 392 178 282 292 b 533 828 282 710 393 828 b 774 631 646 828 747 768 l 1007 631 b 542 1024 974 860 793 1024 b 31 504 226 1024 31 822 b 535 -18 31 182 221 -18 b 1014 375 789 -18 976 142 z "},"D":{"ha":1042,"x_min":0,"x_max":0,"o":"m 761 504 b 428 200 761 238 601 200 l 329 200 l 329 807 l 428 807 b 761 504 601 807 761 771 z m 92 1007 l 92 0 l 424 0 b 1013 504 753 0 1013 121 b 424 1007 1013 886 753 1007 z "},"E":{"ha":921,"x_min":0,"x_max":0,"o":"m 92 0 l 864 0 l 864 210 l 329 210 l 329 413 l 835 413 l 835 622 l 329 622 l 329 799 l 864 799 l 864 1007 l 92 1007 z "},"F":{"ha":832,"x_min":0,"x_max":0,"o":"m 92 0 l 329 0 l 329 413 l 803 413 l 803 622 l 329 622 l 329 799 l 833 799 l 833 1007 l 92 1007 z "},"G":{"ha":1088,"x_min":0,"x_max":0,"o":"m 544 1024 b 31 507 239 1024 31 825 b 510 -18 31 185 214 -18 b 818 111 654 -18 753 22 l 825 0 l 1007 0 l 1007 561 l 526 561 l 526 367 l 769 367 l 769 347 b 546 178 769 219 656 178 b 282 507 386 178 282 294 b 542 828 282 719 396 828 b 763 692 671 828 740 761 l 996 692 b 544 1024 947 911 768 1024 z "},"H":{"ha":1072,"x_min":0,"x_max":0,"o":"m 743 1007 l 743 622 l 329 622 l 329 1007 l 92 1007 l 92 0 l 329 0 l 329 413 l 743 413 l 743 0 l 981 0 l 981 1007 z "},"I":{"ha":419,"x_min":0,"x_max":0,"o":"m 329 1007 l 92 1007 l 92 0 l 329 0 z "},"J":{"ha":890,"x_min":0,"x_max":0,"o":"m 564 385 b 408 171 564 224 508 171 b 253 385 307 171 257 224 l 15 385 b 408 -18 22 150 147 -18 b 801 385 665 -18 801 135 l 801 1007 l 564 1007 z "},"K":{"ha":990,"x_min":0,"x_max":0,"o":"m 329 1007 l 92 1007 l 92 0 l 329 0 l 329 297 l 446 425 l 718 0 l 1004 0 l 613 606 l 985 1007 l 694 1007 l 329 608 z "},"L":{"ha":811,"x_min":0,"x_max":0,"o":"m 329 1007 l 92 1007 l 92 0 l 813 0 l 813 210 l 329 210 z "},"M":{"ha":1318,"x_min":0,"x_max":0,"o":"m 772 0 l 997 807 l 997 0 l 1228 0 l 1228 1007 l 857 1007 l 660 285 l 467 1007 l 92 1007 l 92 0 l 322 0 l 322 806 l 549 0 z "},"N":{"ha":1104,"x_min":0,"x_max":0,"o":"m 1014 0 l 1014 1007 l 785 1007 l 785 313 l 381 1007 l 92 1007 l 92 0 l 321 0 l 321 694 l 725 0 z "},"O":{"ha":1106,"x_min":0,"x_max":0,"o":"m 282 503 b 553 828 282 717 404 828 b 824 503 701 828 824 717 b 553 178 824 289 701 178 b 282 503 404 178 282 289 z m 1075 503 b 553 1024 1075 817 861 1024 b 31 503 243 1024 31 817 b 553 -18 31 189 243 -18 b 1075 503 861 -18 1075 189 z "},"P":{"ha":940,"x_min":0,"x_max":0,"o":"m 92 1007 l 92 0 l 329 0 l 329 349 l 479 349 b 936 679 740 349 936 414 b 479 1007 936 943 740 1007 z m 486 807 b 685 679 597 807 685 785 b 486 549 685 574 597 549 l 329 549 l 329 807 z "},"Q":{"ha":1106,"x_min":0,"x_max":0,"o":"m 1075 503 b 553 1024 1075 817 861 1024 b 31 503 243 1024 31 817 b 553 -18 31 189 243 -18 b 749 14 622 -18 688 -7 l 878 -157 l 1015 -56 l 900 97 b 1075 503 1011 190 1075 329 z m 519 321 l 619 186 b 553 178 599 181 576 178 b 282 503 404 178 282 289 b 553 828 282 717 404 828 b 824 503 701 828 824 717 b 761 282 824 408 800 336 l 657 421 z "},"R":{"ha":1001,"x_min":0,"x_max":0,"o":"m 708 0 l 988 0 l 739 418 b 936 696 854 463 936 547 b 479 1007 936 946 740 1007 l 92 1007 l 92 0 l 329 0 l 329 379 l 490 379 z m 486 807 b 685 693 599 807 685 786 b 486 579 685 597 599 579 l 329 579 l 329 807 z "},"S":{"ha":935,"x_min":0,"x_max":0,"o":"m 878 715 b 458 1024 844 938 654 1024 b 40 722 261 1024 40 928 b 353 429 40 542 189 463 l 475 404 b 663 283 586 381 663 349 b 490 174 663 200 572 174 b 257 328 367 174 283 222 l 21 328 b 485 -18 58 110 225 -18 b 907 313 694 -18 907 101 b 539 607 907 524 701 574 l 401 635 b 285 736 331 650 285 686 b 444 833 285 799 351 833 b 643 715 546 833 619 792 z "},"T":{"ha":899,"x_min":0,"x_max":0,"o":"m 329 0 l 568 0 l 568 799 l 892 799 l 892 1007 l 7 1007 l 7 799 l 329 799 z "},"U":{"ha":1021,"x_min":0,"x_max":0,"o":"m 75 1007 l 75 431 b 513 -18 75 99 211 -18 b 946 439 826 -18 946 129 l 946 1007 l 708 1007 l 708 419 b 513 176 708 271 679 176 b 313 406 347 176 313 258 l 313 1007 z "},"V":{"ha":943,"x_min":0,"x_max":0,"o":"m -7 1007 l 332 0 l 610 0 l 951 1007 l 710 1007 l 478 267 l 246 1007 z "},"W":{"ha":1272,"x_min":0,"x_max":0,"o":"m 760 1007 l 514 1007 l 378 311 l 240 1007 l 0 1007 l 231 0 l 485 0 l 636 710 l 789 0 l 1044 0 l 1272 1007 l 1035 1007 l 908 308 z "},"X":{"ha":1003,"x_min":0,"x_max":0,"o":"m -15 0 l 258 0 l 499 326 l 739 0 l 1018 0 l 639 517 l 1001 1007 l 726 1007 l 503 703 l 281 1007 l 1 1007 l 363 513 z "},"Y":{"ha":961,"x_min":0,"x_max":0,"o":"m -22 1007 l 357 392 l 357 0 l 594 0 l 594 389 l 983 1007 l 708 1007 l 481 621 l 256 1007 z "},"Z":{"ha":911,"x_min":0,"x_max":0,"o":"m 860 1007 l 67 1007 l 67 799 l 550 799 l 26 182 l 26 0 l 867 0 l 867 210 l 339 210 l 860 825 z "},"[":{"ha":450,"x_min":0,"x_max":0,"o":"m 79 1007 l 79 -243 l 465 -243 l 465 -56 l 304 -56 l 304 819 l 465 819 l 465 1007 z "},"\\":{"ha":636,"x_min":0,"x_max":0,"o":"m 231 1007 l 0 1007 l 408 0 l 636 0 z "},"]":{"ha":450,"x_min":0,"x_max":0,"o":"m -15 1007 l -15 819 l 144 819 l 144 -56 l -15 -56 l -15 -243 l 371 -243 l 371 1007 z "},"^":{"ha":771,"x_min":0,"x_max":0,"o":"m 481 1007 l 292 1007 l 31 469 l 247 469 l 386 786 l 525 469 l 742 469 z "},"_":{"ha":679,"x_min":0,"x_max":0,"o":"m 649 -193 l 649 0 l 31 0 l 31 -193 z "},"`":{"ha":453,"x_min":0,"x_max":0,"o":"m 250 846 l 422 846 l 290 1007 l 31 1007 z "},"a":{"ha":829,"x_min":0,"x_max":0,"o":"m 539 467 b 42 201 249 444 42 385 b 300 -18 42 65 158 -18 b 551 90 407 -18 496 11 l 554 0 l 779 0 b 763 217 768 47 763 135 l 763 294 l 765 457 b 432 771 769 683 647 771 b 65 506 210 771 76 646 l 279 506 b 413 615 289 578 339 615 b 539 496 496 615 539 585 z m 544 314 b 383 138 544 176 475 138 b 278 218 324 138 278 169 b 544 332 278 299 385 317 z "},"b":{"ha":903,"x_min":0,"x_max":0,"o":"m 465 586 b 632 374 557 586 632 513 b 465 160 632 235 557 160 b 300 374 375 160 300 219 b 465 586 300 528 375 586 z m 311 1007 l 82 1007 l 82 0 l 311 0 l 311 100 b 540 -18 360 18 460 -18 b 869 374 733 -18 869 129 b 540 764 869 618 733 764 b 311 646 460 764 360 728 z "},"c":{"ha":828,"x_min":0,"x_max":0,"o":"m 419 769 b 38 378 193 769 38 615 b 419 -18 38 140 174 -18 b 800 275 569 -18 749 53 l 586 275 b 433 160 569 204 518 160 b 271 376 351 160 271 214 b 433 592 271 536 351 592 b 576 474 501 592 556 561 l 790 474 b 419 769 746 699 575 769 z "},"d":{"ha":903,"x_min":0,"x_max":0,"o":"m 592 1007 l 592 646 b 363 764 543 728 443 764 b 33 374 169 764 33 618 b 363 -18 33 129 169 -18 b 592 100 443 -18 543 18 l 592 0 l 821 0 l 821 1007 z m 438 586 b 603 374 528 586 603 528 b 438 160 603 219 528 160 b 271 374 346 160 271 235 b 438 586 271 513 346 586 z "},"e":{"ha":861,"x_min":0,"x_max":0,"o":"m 608 235 b 440 160 582 190 528 160 b 268 315 357 160 275 210 l 822 315 b 438 769 838 582 686 769 b 38 378 219 769 38 617 b 447 -18 38 129 204 -18 b 819 235 596 -18 753 58 z m 438 594 b 594 454 525 594 590 549 l 271 454 b 438 594 283 553 356 594 z "},"f":{"ha":514,"x_min":0,"x_max":0,"o":"m 104 747 l 3 747 l 3 585 l 104 585 l 104 0 l 333 0 l 333 585 l 499 585 l 499 747 l 333 747 l 333 785 b 433 846 333 842 351 846 l 499 846 l 499 1007 l 382 1007 b 104 794 182 1007 104 971 z "},"g":{"ha":903,"x_min":0,"x_max":0,"o":"m 593 646 b 363 764 544 728 444 764 b 33 396 169 764 33 633 b 363 26 33 158 169 26 b 593 144 444 26 544 63 l 593 56 b 435 -100 593 -43 551 -100 b 279 -4 351 -100 297 -69 l 64 -4 b 438 -261 86 -142 217 -261 b 821 100 644 -261 821 -178 l 821 747 l 593 747 z m 438 586 b 603 396 528 586 603 543 b 438 204 603 251 528 204 b 271 396 346 204 271 263 b 438 586 271 528 346 586 z "},"h":{"ha":863,"x_min":0,"x_max":0,"o":"m 311 1007 l 82 1007 l 82 0 l 311 0 l 311 383 b 451 586 311 522 353 586 b 565 392 563 586 565 499 l 565 0 l 794 0 l 794 449 b 543 764 794 651 735 764 b 311 649 425 764 344 704 z "},"i":{"ha":394,"x_min":0,"x_max":0,"o":"m 82 747 l 82 0 l 313 0 l 313 747 z m 82 1007 l 82 824 l 311 824 l 311 1007 z "},"j":{"ha":393,"x_min":0,"x_max":0,"o":"m 82 3 b 6 -78 82 -60 71 -78 l -21 -78 l -21 -243 l 64 -243 b 311 -6 236 -243 311 -196 l 311 747 l 82 747 z m 82 1007 l 82 824 l 311 824 l 311 1007 z "},"k":{"ha":850,"x_min":0,"x_max":0,"o":"m 82 1007 l 82 0 l 311 0 l 311 188 l 411 294 l 588 0 l 856 0 l 567 461 l 833 747 l 563 747 l 311 463 l 311 1007 z "},"l":{"ha":393,"x_min":0,"x_max":0,"o":"m 311 1007 l 82 1007 l 82 0 l 311 0 z "},"m":{"ha":1335,"x_min":0,"x_max":0,"o":"m 311 389 b 444 586 311 522 350 586 b 560 392 554 586 560 499 l 560 0 l 789 0 l 789 389 b 922 586 789 522 828 586 b 1038 392 1032 586 1038 499 l 1038 0 l 1267 0 l 1267 449 b 1015 764 1267 651 1207 764 b 760 638 910 764 817 721 b 538 764 725 721 658 764 b 311 649 425 764 344 704 l 311 747 l 82 747 l 82 0 l 311 0 z "},"n":{"ha":863,"x_min":0,"x_max":0,"o":"m 311 747 l 82 747 l 82 0 l 311 0 l 311 383 b 450 586 311 522 351 586 b 565 392 561 586 565 499 l 565 0 l 794 0 l 794 449 b 543 764 794 651 735 764 b 311 649 425 764 344 704 z "},"o":{"ha":867,"x_min":0,"x_max":0,"o":"m 433 592 b 596 376 524 592 596 536 b 433 160 596 219 526 160 b 271 376 340 160 271 219 b 433 592 271 536 343 592 z m 433 769 b 38 376 226 769 38 647 b 433 -18 38 106 226 -18 b 829 376 640 -18 829 106 b 433 769 829 647 640 769 z "},"p":{"ha":903,"x_min":0,"x_max":0,"o":"m 311 747 l 82 747 l 82 -243 l 311 -243 l 311 100 b 540 -18 360 18 460 -18 b 869 374 733 -18 869 129 b 540 764 869 618 733 764 b 311 646 460 764 360 728 z m 465 586 b 632 374 557 586 632 513 b 465 160 632 235 557 160 b 300 374 375 160 300 219 b 465 586 300 528 375 586 z "},"q":{"ha":903,"x_min":0,"x_max":0,"o":"m 438 586 b 603 374 528 586 603 528 b 438 160 603 219 528 160 b 271 374 346 160 271 235 b 438 586 271 513 346 586 z m 592 747 l 592 646 b 363 764 543 728 443 764 b 33 374 169 764 33 618 b 363 -18 33 129 169 -18 b 592 100 443 -18 543 18 l 592 -243 l 821 -243 l 821 747 z "},"r":{"ha":557,"x_min":0,"x_max":0,"o":"m 542 751 b 524 753 536 753 531 753 l 507 753 b 303 606 400 749 338 694 l 303 747 l 82 747 l 82 0 l 311 0 l 311 375 b 479 532 311 492 368 532 b 542 528 500 532 515 532 z "},"s":{"ha":808,"x_min":0,"x_max":0,"o":"m 756 528 b 401 767 726 699 572 767 b 60 536 217 767 60 685 b 303 307 60 403 158 331 l 436 285 b 553 215 524 269 553 249 b 414 149 553 171 496 149 b 257 243 335 149 278 171 l 44 243 b 411 -18 71 68 214 -18 b 772 235 618 -18 772 67 b 507 453 772 367 686 419 l 368 478 b 276 544 303 490 276 510 b 396 600 276 582 317 600 b 542 528 468 600 526 583 z "},"t":{"ha":550,"x_min":0,"x_max":0,"o":"m 118 747 l 0 747 l 0 585 l 118 585 l 118 210 b 365 0 118 36 181 0 l 511 0 l 511 165 l 446 165 b 347 250 369 165 347 179 l 347 585 l 511 585 l 511 747 l 347 747 l 347 951 l 118 951 z "},"u":{"ha":857,"x_min":0,"x_max":0,"o":"m 544 0 l 774 0 l 774 747 l 544 747 l 544 353 b 410 160 544 214 508 160 b 296 354 299 160 296 247 l 296 747 l 67 747 l 67 297 b 325 -18 67 94 126 -18 b 544 104 440 -18 499 31 z "},"v":{"ha":793,"x_min":0,"x_max":0,"o":"m 247 747 l 0 747 l 272 0 l 526 0 l 793 747 l 557 747 l 406 221 z "},"w":{"ha":1090,"x_min":0,"x_max":0,"o":"m 426 747 l 340 240 l 242 747 l 7 747 l 179 0 l 444 0 l 544 551 l 644 0 l 911 0 l 1083 747 l 849 747 l 750 240 l 663 747 z "},"x":{"ha":824,"x_min":0,"x_max":0,"o":"m 813 747 l 574 747 l 419 546 l 271 747 l 11 747 l 288 374 l 0 0 l 243 0 l 406 214 l 565 0 l 824 0 l 538 386 z "},"y":{"ha":782,"x_min":0,"x_max":0,"o":"m 164 -243 b 489 0 358 -243 414 -190 l 782 747 l 536 747 l 389 279 l 251 747 l 0 747 l 279 4 l 272 -15 b 136 -78 250 -71 231 -78 l 90 -78 l 90 -243 z "},"z":{"ha":761,"x_min":0,"x_max":0,"o":"m 31 0 l 733 0 l 733 182 l 325 182 l 717 565 l 717 747 l 57 747 l 57 565 l 422 565 l 31 182 z "},"{":{"ha":500,"x_min":0,"x_max":0,"o":"m 501 -243 l 501 -62 l 465 -62 b 367 4 400 -62 367 -53 l 367 192 b 226 381 367 319 299 363 l 226 385 b 367 574 299 403 367 446 l 367 760 b 465 826 367 815 400 826 l 501 826 l 501 1007 l 424 1007 b 136 763 244 1007 136 957 l 136 618 b 31 475 136 533 124 475 l 31 290 b 136 146 124 290 136 233 l 136 1 b 424 -243 136 -193 244 -243 z "},"|":{"ha":403,"x_min":0,"x_max":0,"o":"m 92 1007 l 92 -125 l 311 -125 l 311 1007 z "},"}":{"ha":500,"x_min":0,"x_max":0,"o":"m 0 -243 l 78 -243 b 365 1 257 -243 365 -193 l 365 146 b 471 290 365 233 378 290 l 471 475 b 365 618 378 475 365 533 l 365 763 b 78 1007 365 957 257 1007 l 0 1007 l 0 826 l 36 826 b 135 760 101 826 135 815 l 135 574 b 275 385 135 446 203 403 l 275 381 b 135 192 203 363 135 319 l 135 4 b 36 -62 135 -53 101 -62 l 0 -62 z "},"~":{"ha":942,"x_min":0,"x_max":0,"o":"m 593 418 b 333 510 519 418 447 510 b 128 232 183 510 132 403 l 288 232 b 349 322 289 303 311 322 b 611 232 433 322 504 232 b 814 510 763 232 807 339 l 654 510 b 593 418 653 439 628 418 z "}," ":{"ha":299,"x_min":0,"x_max":0,"o":""},"¡":{"ha":425,"x_min":0,"x_max":0,"o":"m 136 443 l 67 32 l 67 -243 l 358 -243 l 358 32 l 289 443 z m 342 500 l 342 747 l 83 747 l 83 500 z "},"¢":{"ha":810,"x_min":0,"x_max":0,"o":"m 394 867 l 394 768 b 38 378 182 757 38 604 b 394 -17 38 149 165 -6 l 394 -144 l 465 -144 l 465 -15 b 800 275 606 -4 751 75 l 586 275 b 465 161 571 213 531 171 l 465 589 b 576 474 519 579 560 546 l 790 474 b 465 767 750 676 607 756 l 465 867 z m 271 376 b 394 586 271 510 328 571 l 394 164 b 271 376 328 179 271 242 z "},"£":{"ha":911,"x_min":0,"x_max":0,"o":"m 465 840 b 646 661 560 840 650 794 l 869 661 b 463 1024 874 883 696 1024 b 83 758 274 1024 83 946 b 150 551 83 681 117 614 l 31 551 l 31 447 l 204 447 b 219 379 214 422 219 400 b 35 157 219 268 154 213 l 118 -18 b 321 36 207 31 278 36 b 624 -18 421 36 517 -18 b 874 39 725 -18 801 1 l 799 217 b 643 171 747 188 697 171 b 426 203 579 171 504 203 b 301 172 383 203 344 196 l 300 174 b 458 385 386 231 458 299 b 447 447 458 404 454 425 l 636 447 l 636 551 l 399 551 b 324 739 361 613 324 672 b 465 840 324 801 382 840 z "},"¤":{"ha":883,"x_min":0,"x_max":0,"o":"m 110 481 b 171 289 110 408 132 343 l 75 192 l 143 124 l 239 219 b 438 153 294 176 361 153 b 642 221 515 153 585 178 l 740 124 l 808 192 l 708 290 b 769 481 747 344 769 410 b 708 671 769 551 746 617 l 808 771 l 740 839 l 642 742 b 438 813 586 786 515 813 b 238 744 361 813 293 788 l 143 839 l 75 771 l 171 674 b 110 481 132 619 110 553 z m 299 481 b 438 633 299 571 354 633 b 583 481 526 633 583 571 b 438 333 583 393 526 333 b 299 481 354 333 299 393 z "},"¥":{"ha":990,"x_min":0,"x_max":0,"o":"m 832 124 l 832 233 l 607 233 l 607 322 l 832 322 l 832 433 l 643 433 l 999 1007 l 724 1007 l 496 606 l 271 1007 l -7 1007 l 343 433 l 161 433 l 161 322 l 378 322 l 378 233 l 161 233 l 161 124 l 378 124 l 378 0 l 607 0 l 607 124 z "},"¦":{"ha":339,"x_min":0,"x_max":0,"o":"m 82 1007 l 82 583 l 257 583 l 257 1007 z m 82 299 l 82 -125 l 257 -125 l 257 299 z "},"§":{"ha":863,"x_min":0,"x_max":0,"o":"m 424 -92 b 283 53 342 -92 294 -43 l 71 53 b 418 -268 86 -140 211 -268 b 760 1 617 -268 760 -164 b 693 165 760 68 736 121 b 833 368 782 214 833 285 b 606 621 833 483 750 550 l 419 711 b 326 797 360 740 326 764 b 424 849 326 829 364 849 b 556 744 496 849 540 818 l 767 744 b 425 1024 749 932 614 1024 b 101 792 253 1024 101 942 b 161 632 101 731 124 676 b 31 439 83 583 31 518 b 243 182 31 326 110 247 l 418 97 b 531 -17 492 60 531 28 b 424 -92 531 -61 492 -92 z m 486 444 b 603 342 554 411 603 386 b 539 271 603 310 579 292 l 533 275 l 349 365 b 256 457 293 392 256 417 b 318 526 256 483 279 506 z "},"¨":{"ha":576,"x_min":0,"x_max":0,"o":"m 31 831 l 236 831 l 236 1007 l 31 1007 z m 342 1007 l 342 831 l 546 831 l 546 1007 z "},"©":{"ha":1146,"x_min":0,"x_max":0,"o":"m 53 501 b 574 -18 53 193 285 -18 b 1093 501 861 -18 1093 193 b 574 1025 1093 811 861 1025 b 53 501 285 1025 53 811 z m 168 501 b 574 919 168 751 346 919 b 978 501 806 919 978 751 b 574 86 978 257 806 86 b 168 501 346 86 168 257 z m 575 339 b 446 503 497 339 446 397 b 575 667 446 613 503 667 b 703 550 646 667 693 615 l 846 585 b 575 786 824 703 713 786 b 292 503 404 786 292 674 b 571 217 292 338 396 217 b 851 413 715 217 819 297 l 707 444 b 575 339 692 367 640 339 z "},"ª":{"ha":486,"x_min":0,"x_max":0,"o":"m 181 892 b 240 935 185 925 208 935 b 299 892 279 935 299 921 l 299 883 l 247 878 b 64 826 182 868 104 860 b 25 739 40 808 25 779 b 183 597 25 665 82 597 b 315 656 254 597 294 622 l 317 608 l 453 608 b 444 779 446 669 443 726 l 446 868 b 257 1036 446 989 385 1036 b 39 892 125 1036 49 990 z m 303 767 b 228 704 303 726 271 704 b 179 744 194 704 179 724 b 247 786 179 767 193 782 l 303 792 z "},"«":{"ha":854,"x_min":0,"x_max":0,"o":"m 247 57 l 461 57 l 281 379 l 463 701 l 247 701 l 14 381 z m 610 57 l 824 57 l 643 379 l 825 701 l 610 701 l 376 381 z "},"¬":{"ha":942,"x_min":0,"x_max":0,"o":"m 629 446 l 629 85 l 844 85 l 844 638 l 42 638 l 42 446 z "},"­":{"ha":610,"x_min":0,"x_max":0,"o":"m 550 272 l 550 465 l 60 465 l 60 272 z "},"®":{"ha":1146,"x_min":0,"x_max":0,"o":"m 53 501 b 574 -18 53 193 285 -18 b 1093 501 861 -18 1093 193 b 574 1025 1093 811 861 1025 b 53 501 285 1025 53 811 z m 168 501 b 574 919 168 751 346 919 b 978 501 806 919 978 751 b 574 86 978 257 806 86 b 168 501 346 86 168 257 z m 485 442 l 565 442 l 682 243 l 849 243 l 714 464 b 815 617 774 488 815 533 b 557 799 815 761 706 799 l 335 799 l 335 243 l 485 243 z m 665 617 b 594 557 665 583 644 557 l 485 557 l 485 682 l 594 682 b 665 617 644 682 665 649 z "},"¯":{"ha":496,"x_min":0,"x_max":0,"o":"m 465 860 l 465 1008 l 31 1008 l 31 860 z "},"°":{"ha":518,"x_min":0,"x_max":0,"o":"m 15 781 b 258 536 15 647 125 536 b 504 781 394 536 504 647 b 258 1025 504 918 394 1025 b 15 781 125 1025 15 918 z m 157 781 b 258 890 157 842 199 890 b 364 781 321 890 364 842 b 258 671 364 721 321 671 b 157 781 199 671 157 721 z "},"±":{"ha":942,"x_min":0,"x_max":0,"o":"m 367 583 l 85 583 l 85 392 l 367 392 l 367 228 l 576 228 l 576 392 l 857 392 l 857 583 l 576 583 l 576 747 l 367 747 z m 857 0 l 857 193 l 85 193 l 85 0 z "},"²":{"ha":507,"x_min":0,"x_max":0,"o":"m 261 1185 b 21 965 111 1185 22 1106 l 167 965 b 254 1069 171 1038 206 1069 b 319 1010 292 1069 319 1053 b 21 731 319 921 121 801 l 21 608 l 474 608 l 474 740 l 235 740 b 475 1022 379 836 475 910 b 261 1185 475 1133 382 1185 z "},"³":{"ha":536,"x_min":0,"x_max":0,"o":"m 268 713 b 169 794 217 713 179 740 l 21 794 b 265 597 33 671 125 597 b 504 771 392 597 504 658 b 413 906 504 836 467 885 b 488 1031 453 926 488 971 b 274 1185 488 1129 396 1185 b 28 1001 133 1185 43 1122 l 178 1001 b 263 1069 182 1046 219 1069 b 332 1019 297 1069 332 1054 b 233 960 332 979 299 960 l 206 960 l 206 833 l 233 833 b 344 771 307 833 344 817 b 268 713 344 739 319 713 z "},"´":{"ha":453,"x_min":0,"x_max":0,"o":"m 422 1007 l 163 1007 l 31 846 l 203 846 z "},"¶":{"ha":700,"x_min":0,"x_max":0,"o":"m 0 769 b 231 533 0 603 129 544 l 231 -124 l 343 -124 l 343 901 l 499 901 l 499 -124 l 613 -124 l 613 1007 l 317 1007 b 0 769 128 1007 0 919 z "},"·":{"ha":392,"x_min":0,"x_max":0,"o":"m 325 250 l 325 497 l 67 497 l 67 250 z "},"¸":{"ha":385,"x_min":0,"x_max":0,"o":"m 31 -260 b 163 -279 69 -272 114 -279 b 354 -160 260 -279 354 -247 b 225 -65 354 -89 281 -65 b 174 -71 203 -65 186 -67 l 219 1 l 133 1 l 63 -114 l 104 -137 b 157 -125 119 -128 142 -125 b 213 -164 190 -125 213 -137 b 146 -204 213 -196 183 -204 b 54 -185 108 -204 71 -194 z "},"¹":{"ha":346,"x_min":0,"x_max":0,"o":"m 286 608 l 286 1175 l 167 1175 b 7 1088 144 1115 106 1092 l 7 976 l 133 976 l 133 608 z "},"º":{"ha":506,"x_min":0,"x_max":0,"o":"m 179 817 b 253 921 179 888 210 921 b 325 817 296 921 325 888 b 253 713 325 746 296 713 b 179 817 210 713 179 746 z m 24 817 b 253 597 24 667 126 597 b 482 817 375 597 482 667 b 253 1036 482 967 375 1036 b 24 817 126 1036 24 967 z "},"»":{"ha":854,"x_min":0,"x_max":0,"o":"m 478 381 l 244 701 l 29 701 l 211 379 l 31 57 l 244 57 z m 840 381 l 607 701 l 392 701 l 574 379 l 393 57 l 607 57 z "},"¼":{"ha":1268,"x_min":0,"x_max":0,"o":"m 286 440 l 286 1007 l 167 1007 b 7 919 144 947 106 924 l 7 808 l 133 808 l 133 440 z m 299 0 l 993 1007 l 763 1007 l 68 0 z m 1010 381 l 1010 243 l 892 243 z m 1249 243 l 1163 243 l 1163 567 l 1028 567 l 738 229 l 738 113 l 1010 113 l 1010 0 l 1163 0 l 1163 113 l 1249 113 z "},"½":{"ha":1222,"x_min":0,"x_max":0,"o":"m 286 440 l 286 1007 l 167 1007 b 7 919 144 947 106 924 l 7 808 l 133 808 l 133 440 z m 299 0 l 993 1007 l 763 1007 l 68 0 z m 976 576 b 736 357 826 576 738 497 l 882 357 b 969 461 886 429 921 461 b 1035 401 1007 461 1035 444 b 736 122 1035 313 836 193 l 736 0 l 1189 0 l 1189 132 l 950 132 b 1190 414 1094 228 1190 301 b 976 576 1190 525 1097 576 z "},"¾":{"ha":1458,"x_min":0,"x_max":0,"o":"m 268 544 b 169 626 217 544 179 572 l 21 626 b 265 429 33 503 125 429 b 504 603 392 429 504 490 b 413 738 504 668 467 717 b 488 863 453 758 488 803 b 274 1017 488 961 396 1017 b 28 833 133 1017 43 954 l 178 833 b 263 901 182 878 219 901 b 332 851 297 901 332 886 b 233 792 332 811 299 792 l 206 792 l 206 665 l 233 665 b 344 603 307 665 344 649 b 268 544 344 571 319 544 z m 489 0 l 1183 1007 l 953 1007 l 258 0 z m 1200 381 l 1200 243 l 1082 243 z m 1439 243 l 1353 243 l 1353 567 l 1218 567 l 928 229 l 928 113 l 1200 113 l 1200 0 l 1353 0 l 1353 113 l 1439 113 z "},"¿":{"ha":867,"x_min":0,"x_max":0,"o":"m 411 -260 b 839 85 664 -260 839 -135 l 617 85 b 414 -76 617 -28 531 -76 b 260 15 319 -76 260 -40 b 429 135 260 74 361 100 b 596 378 522 183 596 238 b 592 444 596 396 596 424 l 363 444 l 363 408 b 215 244 363 319 314 289 b 25 -3 108 193 25 131 b 411 -260 25 -179 211 -260 z m 608 500 l 608 747 l 350 747 l 350 500 z "},"À":{"ha":1007,"x_min":0,"x_max":0,"o":"m -7 0 l 246 0 l 306 179 l 694 179 l 756 0 l 1014 0 l 633 1007 l 372 1007 z m 501 756 l 631 372 l 371 372 z m 401 1074 l 604 1074 l 460 1231 l 181 1231 z "},"Á":{"ha":1007,"x_min":0,"x_max":0,"o":"m -7 0 l 246 0 l 306 179 l 694 179 l 756 0 l 1014 0 l 633 1007 l 372 1007 z m 501 756 l 631 372 l 371 372 z m 825 1231 l 544 1231 l 401 1074 l 604 1074 z "},"Â":{"ha":1007,"x_min":0,"x_max":0,"o":"m -7 0 l 246 0 l 306 179 l 694 179 l 756 0 l 1014 0 l 633 1007 l 372 1007 z m 501 756 l 631 372 l 371 372 z m 618 1231 l 393 1231 l 199 1074 l 424 1074 l 506 1142 l 581 1074 l 808 1074 z "},"Ã":{"ha":1007,"x_min":0,"x_max":0,"o":"m -7 0 l 246 0 l 306 179 l 694 179 l 756 0 l 1014 0 l 633 1007 l 372 1007 z m 501 756 l 631 372 l 371 372 z m 588 1179 b 410 1231 525 1179 500 1231 b 210 1069 347 1231 236 1208 l 344 1069 b 418 1121 351 1104 375 1121 b 597 1069 474 1121 507 1069 b 797 1231 660 1069 771 1090 l 663 1231 b 588 1179 656 1196 631 1179 z "},"Ä":{"ha":1007,"x_min":0,"x_max":0,"o":"m -7 0 l 246 0 l 306 179 l 694 179 l 756 0 l 1014 0 l 633 1007 l 372 1007 z m 501 756 l 631 372 l 371 372 z m 242 1231 l 242 1074 l 446 1074 l 446 1231 z m 560 1231 l 560 1074 l 765 1074 l 765 1231 z "},"Å":{"ha":1007,"x_min":0,"x_max":0,"o":"m -7 0 l 246 0 l 306 179 l 694 179 l 756 0 l 1014 0 l 633 1007 l 372 1007 z m 501 756 l 631 372 l 371 372 z m 503 1299 b 378 1181 435 1299 378 1249 b 503 1063 378 1110 432 1063 b 629 1181 574 1063 629 1110 b 503 1299 629 1249 574 1299 z m 503 1240 b 563 1181 535 1240 563 1215 b 503 1122 563 1146 535 1122 b 443 1181 471 1122 443 1146 b 503 1240 443 1215 471 1240 z "},"Æ":{"ha":1531,"x_min":0,"x_max":0,"o":"m 701 1007 l -60 0 l 224 0 l 350 179 l 701 179 l 701 0 l 1474 0 l 1474 210 l 939 210 l 939 413 l 1443 413 l 1443 622 l 939 622 l 939 799 l 1474 799 l 1474 1007 z m 701 674 l 701 372 l 488 372 z "},"Ç":{"ha":1042,"x_min":0,"x_max":0,"o":"m 781 375 b 536 178 750 222 640 178 b 282 504 392 178 282 292 b 533 828 282 710 393 828 b 774 631 646 828 747 768 l 1007 631 b 542 1024 974 860 793 1024 b 31 504 226 1024 31 822 b 535 -18 31 182 221 -18 b 1014 375 789 -18 976 142 z m 361 -260 b 493 -279 400 -272 444 -279 b 685 -160 590 -279 685 -247 b 556 -65 685 -89 611 -65 b 504 -71 533 -65 517 -67 l 550 1 l 464 1 l 393 -114 l 435 -137 b 488 -125 450 -128 472 -125 b 543 -164 521 -125 543 -137 b 476 -204 543 -196 514 -204 b 385 -185 439 -204 401 -194 z "},"È":{"ha":921,"x_min":0,"x_max":0,"o":"m 92 0 l 864 0 l 864 210 l 329 210 l 329 413 l 835 413 l 835 622 l 329 622 l 329 799 l 864 799 l 864 1007 l 92 1007 z m 404 1074 l 607 1074 l 463 1231 l 183 1231 z "},"É":{"ha":921,"x_min":0,"x_max":0,"o":"m 92 0 l 864 0 l 864 210 l 329 210 l 329 413 l 835 413 l 835 622 l 329 622 l 329 799 l 864 799 l 864 1007 l 92 1007 z m 786 1231 l 506 1231 l 363 1074 l 565 1074 z "},"Ê":{"ha":921,"x_min":0,"x_max":0,"o":"m 92 0 l 864 0 l 864 210 l 329 210 l 329 413 l 835 413 l 835 622 l 329 622 l 329 799 l 864 799 l 864 1007 l 92 1007 z m 603 1231 l 378 1231 l 183 1074 l 408 1074 l 490 1142 l 565 1074 l 793 1074 z "},"Ë":{"ha":921,"x_min":0,"x_max":0,"o":"m 92 0 l 864 0 l 864 210 l 329 210 l 329 413 l 835 413 l 835 622 l 329 622 l 329 799 l 864 799 l 864 1007 l 92 1007 z m 228 1231 l 228 1074 l 432 1074 l 432 1231 z m 546 1231 l 546 1074 l 751 1074 l 751 1231 z "},"Ì":{"ha":419,"x_min":0,"x_max":0,"o":"m 329 1007 l 92 1007 l 92 0 l 329 0 z m 110 1074 l 313 1074 l 168 1231 l -111 1231 z "},"Í":{"ha":419,"x_min":0,"x_max":0,"o":"m 329 1007 l 92 1007 l 92 0 l 329 0 z m 532 1231 l 251 1231 l 108 1074 l 311 1074 z "},"Î":{"ha":419,"x_min":0,"x_max":0,"o":"m 329 1007 l 92 1007 l 92 0 l 329 0 z m 326 1231 l 101 1231 l -93 1074 l 132 1074 l 214 1142 l 289 1074 l 517 1074 z "},"Ï":{"ha":419,"x_min":0,"x_max":0,"o":"m 329 1007 l 92 1007 l 92 0 l 329 0 z m -50 1231 l -50 1074 l 154 1074 l 154 1231 z m 268 1231 l 268 1074 l 474 1074 l 474 1231 z "},"Ð":{"ha":1089,"x_min":0,"x_max":0,"o":"m 139 1007 l 139 614 l 15 614 l 15 406 l 139 406 l 139 0 l 471 0 b 1060 504 800 0 1060 121 b 471 1007 1060 886 800 1007 z m 808 504 b 475 200 808 238 649 200 l 376 200 l 376 406 l 522 406 l 522 614 l 376 614 l 376 807 l 475 807 b 808 504 649 807 808 771 z "},"Ñ":{"ha":1104,"x_min":0,"x_max":0,"o":"m 1014 0 l 1014 1007 l 785 1007 l 785 313 l 381 1007 l 92 1007 l 92 0 l 321 0 l 321 694 l 725 0 z m 656 1179 b 478 1231 593 1179 568 1231 b 278 1069 415 1231 304 1208 l 413 1069 b 486 1121 419 1104 443 1121 b 665 1069 542 1121 575 1069 b 865 1231 728 1069 839 1090 l 731 1231 b 656 1179 724 1196 699 1179 z "},"Ò":{"ha":1106,"x_min":0,"x_max":0,"o":"m 282 503 b 553 828 282 717 404 828 b 824 503 701 828 824 717 b 553 178 824 289 701 178 b 282 503 404 178 282 289 z m 1075 503 b 553 1024 1075 817 861 1024 b 31 503 243 1024 31 817 b 553 -18 31 189 243 -18 b 1075 503 861 -18 1075 189 z m 451 1074 l 654 1074 l 510 1231 l 231 1231 z "},"Ó":{"ha":1106,"x_min":0,"x_max":0,"o":"m 282 503 b 553 828 282 717 404 828 b 824 503 701 828 824 717 b 553 178 824 289 701 178 b 282 503 404 178 282 289 z m 1075 503 b 553 1024 1075 817 861 1024 b 31 503 243 1024 31 817 b 553 -18 31 189 243 -18 b 1075 503 861 -18 1075 189 z m 875 1231 l 594 1231 l 451 1074 l 654 1074 z "},"Ô":{"ha":1106,"x_min":0,"x_max":0,"o":"m 282 503 b 553 828 282 717 404 828 b 824 503 701 828 824 717 b 553 178 824 289 701 178 b 282 503 404 178 282 289 z m 1075 503 b 553 1024 1075 817 861 1024 b 31 503 243 1024 31 817 b 553 -18 31 189 243 -18 b 1075 503 861 -18 1075 189 z m 668 1231 l 443 1231 l 249 1074 l 474 1074 l 556 1142 l 631 1074 l 858 1074 z "},"Õ":{"ha":1106,"x_min":0,"x_max":0,"o":"m 282 503 b 553 828 282 717 404 828 b 824 503 701 828 824 717 b 553 178 824 289 701 178 b 282 503 404 178 282 289 z m 1075 503 b 553 1024 1075 817 861 1024 b 31 503 243 1024 31 817 b 553 -18 31 189 243 -18 b 1075 503 861 -18 1075 189 z m 638 1179 b 460 1231 575 1179 550 1231 b 260 1069 397 1231 286 1208 l 394 1069 b 468 1121 401 1104 425 1121 b 647 1069 524 1121 557 1069 b 847 1231 710 1069 821 1090 l 713 1231 b 638 1179 706 1196 681 1179 z "},"Ö":{"ha":1106,"x_min":0,"x_max":0,"o":"m 282 503 b 553 828 282 717 404 828 b 824 503 701 828 824 717 b 553 178 824 289 701 178 b 282 503 404 178 282 289 z m 1075 503 b 553 1024 1075 817 861 1024 b 31 503 243 1024 31 817 b 553 -18 31 189 243 -18 b 1075 503 861 -18 1075 189 z m 292 1231 l 292 1074 l 496 1074 l 496 1231 z m 610 1231 l 610 1074 l 815 1074 l 815 1231 z "},"×":{"ha":942,"x_min":0,"x_max":0,"o":"m 836 181 l 631 375 l 846 578 l 686 731 l 472 525 l 265 722 l 104 571 l 313 375 l 97 168 l 256 18 l 472 222 l 676 28 z "},"Ø":{"ha":1104,"x_min":0,"x_max":0,"o":"m 1075 503 b 931 879 1075 660 1024 789 l 997 957 l 919 1021 l 853 942 b 553 1024 769 996 669 1024 b 31 503 243 1024 31 817 b 165 135 31 351 78 225 l 82 38 l 157 -28 l 240 71 b 553 -18 326 11 431 -18 b 1075 503 861 -18 1075 189 z m 824 503 b 553 178 824 289 701 178 b 383 239 488 178 432 199 l 776 699 b 824 503 806 649 824 582 z m 282 503 b 553 828 282 717 404 828 b 710 775 613 828 664 810 l 321 318 b 282 503 294 369 282 432 z "},"Ù":{"ha":1021,"x_min":0,"x_max":0,"o":"m 75 1007 l 75 431 b 513 -18 75 99 211 -18 b 946 439 826 -18 946 129 l 946 1007 l 708 1007 l 708 419 b 513 176 708 271 679 176 b 313 406 347 176 313 258 l 313 1007 z m 408 1074 l 611 1074 l 467 1231 l 188 1231 z "},"Ú":{"ha":1021,"x_min":0,"x_max":0,"o":"m 75 1007 l 75 431 b 513 -18 75 99 211 -18 b 946 439 826 -18 946 129 l 946 1007 l 708 1007 l 708 419 b 513 176 708 271 679 176 b 313 406 347 176 313 258 l 313 1007 z m 832 1231 l 551 1231 l 408 1074 l 611 1074 z "},"Û":{"ha":1021,"x_min":0,"x_max":0,"o":"m 75 1007 l 75 431 b 513 -18 75 99 211 -18 b 946 439 826 -18 946 129 l 946 1007 l 708 1007 l 708 419 b 513 176 708 271 679 176 b 313 406 347 176 313 258 l 313 1007 z m 625 1231 l 400 1231 l 206 1074 l 431 1074 l 513 1142 l 588 1074 l 815 1074 z "},"Ü":{"ha":1021,"x_min":0,"x_max":0,"o":"m 75 1007 l 75 431 b 513 -18 75 99 211 -18 b 946 439 826 -18 946 129 l 946 1007 l 708 1007 l 708 419 b 513 176 708 271 679 176 b 313 406 347 176 313 258 l 313 1007 z m 249 1231 l 249 1074 l 453 1074 l 453 1231 z m 567 1231 l 567 1074 l 772 1074 l 772 1231 z "},"Ý":{"ha":961,"x_min":0,"x_max":0,"o":"m -22 1007 l 357 392 l 357 0 l 594 0 l 594 389 l 983 1007 l 708 1007 l 481 621 l 256 1007 z m 803 1231 l 522 1231 l 379 1074 l 582 1074 z "},"Þ":{"ha":885,"x_min":0,"x_max":0,"o":"m 317 846 l 317 1007 l 78 1007 l 78 0 l 317 0 l 317 190 l 450 190 b 907 517 711 190 907 253 b 450 846 907 783 711 846 z m 457 636 b 656 517 568 636 656 624 b 457 399 656 411 568 399 l 317 399 l 317 636 z "},"ß":{"ha":943,"x_min":0,"x_max":0,"o":"m 310 0 l 310 640 b 346 792 310 729 322 765 b 488 839 378 829 432 839 b 632 733 588 839 632 793 b 471 626 632 663 578 626 l 432 626 l 432 449 l 478 449 b 682 299 600 449 682 408 b 533 172 682 217 611 172 b 399 196 488 172 443 181 l 350 8 b 551 -18 418 -12 490 -18 b 917 307 765 -18 917 89 b 774 558 917 435 853 515 b 853 744 814 593 853 660 b 493 1024 853 929 697 1024 b 185 938 371 1024 263 1000 b 79 657 119 883 79 807 l 79 0 z "},"à":{"ha":829,"x_min":0,"x_max":0,"o":"m 539 467 b 42 201 249 444 42 385 b 300 -18 42 65 158 -18 b 551 90 407 -18 496 11 l 554 0 l 779 0 b 763 217 768 47 763 135 l 763 294 l 765 457 b 432 771 769 683 647 771 b 65 506 210 771 76 646 l 279 506 b 413 615 289 578 339 615 b 539 496 496 615 539 585 z m 544 314 b 383 138 544 176 475 138 b 278 218 324 138 278 169 b 544 332 278 299 385 317 z m 353 846 l 525 846 l 393 1007 l 133 1007 z "},"á":{"ha":829,"x_min":0,"x_max":0,"o":"m 539 467 b 42 201 249 444 42 385 b 300 -18 42 65 158 -18 b 551 90 407 -18 496 11 l 554 0 l 779 0 b 763 217 768 47 763 135 l 763 294 l 765 457 b 432 771 769 683 647 771 b 65 506 210 771 76 646 l 279 506 b 413 615 289 578 339 615 b 539 496 496 615 539 585 z m 544 314 b 383 138 544 176 475 138 b 278 218 324 138 278 169 b 544 332 278 299 385 317 z m 715 1007 l 456 1007 l 324 846 l 496 846 z "},"â":{"ha":829,"x_min":0,"x_max":0,"o":"m 539 467 b 42 201 249 444 42 385 b 300 -18 42 65 158 -18 b 551 90 407 -18 496 11 l 554 0 l 779 0 b 763 217 768 47 763 135 l 763 294 l 765 457 b 432 771 769 683 647 771 b 65 506 210 771 76 646 l 279 506 b 413 615 289 578 339 615 b 539 496 496 615 539 585 z m 544 314 b 383 138 544 176 475 138 b 278 218 324 138 278 169 b 544 332 278 299 385 317 z m 533 1007 l 325 1007 l 129 846 l 340 846 l 428 910 l 514 846 l 722 846 z "},"ã":{"ha":829,"x_min":0,"x_max":0,"o":"m 539 467 b 42 201 249 444 42 385 b 300 -18 42 65 158 -18 b 551 90 407 -18 496 11 l 554 0 l 779 0 b 763 217 768 47 763 135 l 763 294 l 765 457 b 432 771 769 683 647 771 b 65 506 210 771 76 646 l 279 506 b 413 615 289 578 339 615 b 539 496 496 615 539 585 z m 544 314 b 383 138 544 176 475 138 b 278 218 324 138 278 169 b 544 332 278 299 385 317 z m 507 961 b 321 1022 444 961 414 1022 b 132 846 214 1022 150 957 l 267 846 b 338 907 274 886 297 907 b 528 846 393 907 432 846 b 715 1022 628 846 694 906 l 581 1022 b 507 961 572 982 547 961 z "},"ä":{"ha":829,"x_min":0,"x_max":0,"o":"m 539 467 b 42 201 249 444 42 385 b 300 -18 42 65 158 -18 b 551 90 407 -18 496 11 l 554 0 l 779 0 b 763 217 768 47 763 135 l 763 294 l 765 457 b 432 771 769 683 647 771 b 65 506 210 771 76 646 l 279 506 b 413 615 289 578 339 615 b 539 496 496 615 539 585 z m 544 314 b 383 138 544 176 475 138 b 278 218 324 138 278 169 b 544 332 278 299 385 317 z m 153 831 l 358 831 l 358 1007 l 153 1007 z m 464 1007 l 464 831 l 668 831 l 668 1007 z "},"å":{"ha":829,"x_min":0,"x_max":0,"o":"m 539 467 b 42 201 249 444 42 385 b 300 -18 42 65 158 -18 b 551 90 407 -18 496 11 l 554 0 l 779 0 b 763 217 768 47 763 135 l 763 294 l 765 457 b 432 771 769 683 647 771 b 65 506 210 771 76 646 l 279 506 b 413 615 289 578 339 615 b 539 496 496 615 539 585 z m 544 314 b 383 138 544 176 475 138 b 278 218 324 138 278 169 b 544 332 278 299 385 317 z m 422 1090 b 290 967 350 1090 290 1039 b 422 843 290 894 349 843 b 553 967 494 843 553 896 b 422 1090 553 1039 493 1090 z m 422 1024 b 479 967 454 1024 479 1000 b 422 911 479 935 454 911 b 365 967 390 911 365 935 b 422 1024 365 1000 390 1024 z "},"æ":{"ha":1342,"x_min":0,"x_max":0,"o":"m 1089 235 b 924 160 1063 190 1011 160 b 754 315 840 160 761 210 l 1303 315 b 917 767 1318 581 1168 767 b 674 678 822 767 736 732 b 432 768 625 738 549 768 b 65 506 210 768 76 644 l 279 506 b 413 615 289 578 339 615 b 539 496 496 615 539 585 l 539 472 b 42 196 275 432 42 381 b 324 -18 42 60 164 -18 b 628 119 479 -18 579 35 b 931 -18 693 31 792 -18 b 1300 235 1079 -18 1233 58 z m 544 342 l 544 314 b 383 138 544 176 475 138 b 278 215 324 138 278 167 b 453 322 278 278 343 301 z m 917 593 b 1075 454 1004 593 1071 544 l 757 454 b 917 593 769 553 835 593 z "},"ç":{"ha":828,"x_min":0,"x_max":0,"o":"m 419 769 b 38 378 193 769 38 615 b 419 -18 38 140 174 -18 b 800 275 569 -18 749 53 l 586 275 b 433 160 569 204 518 160 b 271 376 351 160 271 214 b 433 592 271 536 351 592 b 576 474 501 592 556 561 l 790 474 b 419 769 746 699 575 769 z m 257 -260 b 389 -279 296 -272 340 -279 b 581 -160 486 -279 581 -247 b 451 -65 581 -89 507 -65 b 400 -71 429 -65 413 -67 l 446 1 l 360 1 l 289 -114 l 331 -137 b 383 -125 346 -128 368 -125 b 439 -164 417 -125 439 -137 b 372 -204 439 -196 410 -204 b 281 -185 335 -204 297 -194 z "},"è":{"ha":861,"x_min":0,"x_max":0,"o":"m 608 235 b 440 160 582 190 528 160 b 268 315 357 160 275 210 l 822 315 b 438 769 838 582 686 769 b 38 378 219 769 38 617 b 447 -18 38 129 204 -18 b 819 235 596 -18 753 58 z m 438 594 b 594 454 525 594 590 549 l 271 454 b 438 594 283 553 356 594 z m 343 846 l 515 846 l 383 1007 l 124 1007 z "},"é":{"ha":861,"x_min":0,"x_max":0,"o":"m 608 235 b 440 160 582 190 528 160 b 268 315 357 160 275 210 l 822 315 b 438 769 838 582 686 769 b 38 378 219 769 38 617 b 447 -18 38 129 204 -18 b 819 235 596 -18 753 58 z m 438 594 b 594 454 525 594 590 549 l 271 454 b 438 594 283 553 356 594 z m 735 1007 l 475 1007 l 343 846 l 515 846 z "},"ê":{"ha":861,"x_min":0,"x_max":0,"o":"m 608 235 b 440 160 582 190 528 160 b 268 315 357 160 275 210 l 822 315 b 438 769 838 582 686 769 b 38 378 219 769 38 617 b 447 -18 38 129 204 -18 b 819 235 596 -18 753 58 z m 438 594 b 594 454 525 594 590 549 l 271 454 b 438 594 283 553 356 594 z m 543 1007 l 335 1007 l 139 846 l 350 846 l 438 910 l 524 846 l 732 846 z "},"ë":{"ha":861,"x_min":0,"x_max":0,"o":"m 608 235 b 440 160 582 190 528 160 b 268 315 357 160 275 210 l 822 315 b 438 769 838 582 686 769 b 38 378 219 769 38 617 b 447 -18 38 129 204 -18 b 819 235 596 -18 753 58 z m 438 594 b 594 454 525 594 590 549 l 271 454 b 438 594 283 553 356 594 z m 172 831 l 378 831 l 378 1007 l 172 1007 z m 483 1007 l 483 831 l 688 831 l 688 1007 z "},"ì":{"ha":394,"x_min":0,"x_max":0,"o":"m 82 747 l 82 0 l 313 0 l 313 747 z m 113 846 l 285 846 l 153 1007 l -107 1007 z "},"í":{"ha":394,"x_min":0,"x_max":0,"o":"m 82 747 l 82 0 l 313 0 l 313 747 z m 503 1007 l 243 1007 l 111 846 l 283 846 z "},"î":{"ha":394,"x_min":0,"x_max":0,"o":"m 82 747 l 82 0 l 313 0 l 313 747 z m 307 1007 l 99 1007 l -97 846 l 114 846 l 201 910 l 288 846 l 496 846 z "},"ï":{"ha":394,"x_min":0,"x_max":0,"o":"m 82 747 l 82 0 l 313 0 l 313 747 z m -58 831 l 147 831 l 147 1007 l -58 1007 z m 253 1007 l 253 831 l 457 831 l 457 1007 z "},"ð":{"ha":865,"x_min":0,"x_max":0,"o":"m 511 997 b 411 1050 479 1018 446 1035 l 238 968 b 358 904 275 951 315 931 l 253 840 l 332 803 l 425 858 b 596 647 507 799 574 725 l 594 646 b 365 764 551 713 465 764 b 38 367 183 764 38 606 b 421 -18 38 135 183 -18 b 828 432 660 -18 828 139 b 576 950 828 647 722 831 l 690 1018 l 610 1057 z m 438 586 b 601 374 526 586 601 528 b 438 160 601 219 526 160 b 272 374 344 160 272 235 b 438 586 272 513 344 586 z "},"ñ":{"ha":863,"x_min":0,"x_max":0,"o":"m 311 747 l 82 747 l 82 0 l 311 0 l 311 383 b 450 586 311 522 351 586 b 565 392 561 586 565 499 l 565 0 l 794 0 l 794 449 b 543 764 794 651 735 764 b 311 649 425 764 344 704 z m 535 961 b 349 1022 472 961 442 1022 b 160 846 242 1022 178 957 l 294 846 b 365 907 301 886 325 907 b 556 846 421 907 460 846 b 743 1022 656 846 722 906 l 608 1022 b 535 961 600 982 575 961 z "},"ò":{"ha":867,"x_min":0,"x_max":0,"o":"m 433 592 b 596 376 524 592 596 536 b 433 160 596 219 526 160 b 271 376 340 160 271 219 b 433 592 271 536 343 592 z m 433 769 b 38 376 226 769 38 647 b 433 -18 38 106 226 -18 b 829 376 640 -18 829 106 b 433 769 829 647 640 769 z m 347 846 l 519 846 l 388 1007 l 128 1007 z "},"ó":{"ha":867,"x_min":0,"x_max":0,"o":"m 433 592 b 596 376 524 592 596 536 b 433 160 596 219 526 160 b 271 376 340 160 271 219 b 433 592 271 536 343 592 z m 433 769 b 38 376 226 769 38 647 b 433 -18 38 106 226 -18 b 829 376 640 -18 829 106 b 433 769 829 647 640 769 z m 739 1007 l 479 1007 l 347 846 l 519 846 z "},"ô":{"ha":867,"x_min":0,"x_max":0,"o":"m 433 592 b 596 376 524 592 596 536 b 433 160 596 219 526 160 b 271 376 340 160 271 219 b 433 592 271 536 343 592 z m 433 769 b 38 376 226 769 38 647 b 433 -18 38 106 226 -18 b 829 376 640 -18 829 106 b 433 769 829 647 640 769 z m 542 1007 l 333 1007 l 138 846 l 349 846 l 436 910 l 522 846 l 731 846 z "},"õ":{"ha":867,"x_min":0,"x_max":0,"o":"m 433 592 b 596 376 524 592 596 536 b 433 160 596 219 526 160 b 271 376 340 160 271 219 b 433 592 271 536 343 592 z m 433 769 b 38 376 226 769 38 647 b 433 -18 38 106 226 -18 b 829 376 640 -18 829 106 b 433 769 829 647 640 769 z m 517 961 b 331 1022 454 961 424 1022 b 142 846 224 1022 160 957 l 276 846 b 347 907 283 886 307 907 b 538 846 403 907 442 846 b 725 1022 638 846 704 906 l 590 1022 b 517 961 582 982 557 961 z "},"ö":{"ha":867,"x_min":0,"x_max":0,"o":"m 433 592 b 596 376 524 592 596 536 b 433 160 596 219 526 160 b 271 376 340 160 271 219 b 433 592 271 536 343 592 z m 433 769 b 38 376 226 769 38 647 b 433 -18 38 106 226 -18 b 829 376 640 -18 829 106 b 433 769 829 647 640 769 z m 176 831 l 382 831 l 382 1007 l 176 1007 z m 488 1007 l 488 831 l 692 831 l 692 1007 z "},"÷":{"ha":942,"x_min":0,"x_max":0,"o":"m 342 0 l 600 0 l 600 247 l 342 247 z m 342 500 l 600 500 l 600 747 l 342 747 z m 872 276 l 872 469 l 69 469 l 69 276 z "},"ø":{"ha":867,"x_min":0,"x_max":0,"o":"m 433 769 b 38 376 226 769 38 647 b 138 96 38 253 76 161 l 65 13 l 133 -50 l 211 39 b 433 -18 276 0 351 -18 b 829 376 640 -18 829 106 b 738 646 829 493 793 581 l 799 717 l 729 778 l 667 706 b 433 769 599 749 518 769 z m 433 592 b 536 556 472 592 508 582 l 286 267 b 271 376 276 297 271 333 b 433 592 271 536 343 592 z m 596 376 b 433 160 596 219 526 160 b 339 188 396 160 364 169 l 585 469 b 596 376 592 442 596 411 z "},"ù":{"ha":857,"x_min":0,"x_max":0,"o":"m 544 0 l 774 0 l 774 747 l 544 747 l 544 353 b 410 160 544 214 508 160 b 296 354 299 160 296 247 l 296 747 l 67 747 l 67 297 b 325 -18 67 94 126 -18 b 544 104 440 -18 499 31 z m 347 846 l 519 846 l 388 1007 l 128 1007 z "},"ú":{"ha":857,"x_min":0,"x_max":0,"o":"m 544 0 l 774 0 l 774 747 l 544 747 l 544 353 b 410 160 544 214 508 160 b 296 354 299 160 296 247 l 296 747 l 67 747 l 67 297 b 325 -18 67 94 126 -18 b 544 104 440 -18 499 31 z m 711 1007 l 451 1007 l 319 846 l 492 846 z "},"û":{"ha":857,"x_min":0,"x_max":0,"o":"m 544 0 l 774 0 l 774 747 l 544 747 l 544 353 b 410 160 544 214 508 160 b 296 354 299 160 296 247 l 296 747 l 67 747 l 67 297 b 325 -18 67 94 126 -18 b 544 104 440 -18 499 31 z m 528 1007 l 319 1007 l 124 846 l 335 846 l 422 910 l 508 846 l 717 846 z "},"ü":{"ha":857,"x_min":0,"x_max":0,"o":"m 544 0 l 774 0 l 774 747 l 544 747 l 544 353 b 410 160 544 214 508 160 b 296 354 299 160 296 247 l 296 747 l 67 747 l 67 297 b 325 -18 67 94 126 -18 b 544 104 440 -18 499 31 z m 163 831 l 368 831 l 368 1007 l 163 1007 z m 474 1007 l 474 831 l 678 831 l 678 1007 z "},"ý":{"ha":782,"x_min":0,"x_max":0,"o":"m 164 -243 b 489 0 358 -243 414 -190 l 782 747 l 536 747 l 389 279 l 251 747 l 0 747 l 279 4 l 272 -15 b 136 -78 250 -71 231 -78 l 90 -78 l 90 -243 z m 696 1007 l 436 1007 l 304 846 l 476 846 z "},"þ":{"ha":903,"x_min":0,"x_max":0,"o":"m 311 1007 l 82 1007 l 82 -243 l 311 -243 l 311 100 b 540 -18 357 14 461 -18 b 869 374 733 -18 869 129 b 540 764 869 618 733 764 b 311 646 461 764 357 732 z m 465 586 b 632 374 557 586 632 513 b 465 160 632 235 557 160 b 300 374 376 160 300 219 b 465 586 300 528 376 586 z "},"ÿ":{"ha":782,"x_min":0,"x_max":0,"o":"m 164 -243 b 489 0 358 -243 414 -190 l 782 747 l 536 747 l 389 279 l 251 747 l 0 747 l 279 4 l 272 -15 b 136 -78 250 -71 231 -78 l 90 -78 l 90 -243 z m 133 831 l 339 831 l 339 1007 l 133 1007 z m 444 1007 l 444 831 l 649 831 l 649 1007 z "},"Ă":{"ha":1007,"x_min":0,"x_max":0,"o":"m -7 0 l 246 0 l 306 179 l 694 179 l 756 0 l 1014 0 l 633 1007 l 372 1007 z m 501 756 l 631 372 l 371 372 z m 604 1231 b 501 1165 597 1181 553 1165 b 401 1231 451 1165 408 1181 l 238 1231 b 501 1067 247 1115 333 1067 b 768 1231 675 1067 757 1115 z "},"Ā":{"ha":1007,"x_min":0,"x_max":0,"o":"m -7 0 l 246 0 l 306 179 l 694 179 l 756 0 l 1014 0 l 633 1007 l 372 1007 z m 501 756 l 631 372 l 371 372 z m 736 1101 l 736 1233 l 271 1233 l 271 1101 z "},"Ą":{"ha":1007,"x_min":0,"x_max":0,"o":"m -7 0 l 246 0 l 306 179 l 694 179 l 756 0 b 697 -125 728 -32 697 -69 b 888 -275 697 -226 799 -275 b 1014 -261 924 -275 992 -268 l 1014 -149 b 946 -161 1001 -153 975 -161 b 892 -108 913 -161 892 -146 b 1014 0 892 -65 943 -35 l 633 1007 l 372 1007 z m 501 756 l 631 372 l 371 372 z "},"Ć":{"ha":1042,"x_min":0,"x_max":0,"o":"m 781 375 b 536 178 750 222 640 178 b 282 504 392 178 282 292 b 533 828 282 710 393 828 b 774 631 646 828 747 768 l 1007 631 b 542 1024 974 860 793 1024 b 31 504 226 1024 31 822 b 535 -18 31 182 221 -18 b 1014 375 789 -18 976 142 z m 844 1231 l 564 1231 l 421 1074 l 624 1074 z "},"Č":{"ha":1042,"x_min":0,"x_max":0,"o":"m 781 375 b 536 178 750 222 640 178 b 282 504 392 178 282 292 b 533 828 282 710 393 828 b 774 631 646 828 747 768 l 1007 631 b 542 1024 974 860 793 1024 b 31 504 226 1024 31 822 b 535 -18 31 182 221 -18 b 1014 375 789 -18 976 142 z m 428 1074 l 653 1074 l 847 1231 l 622 1231 l 540 1161 l 465 1231 l 238 1231 z "},"Ĉ":{"ha":1042,"x_min":0,"x_max":0,"o":"m 781 375 b 536 178 750 222 640 178 b 282 504 392 178 282 292 b 533 828 282 710 393 828 b 774 631 646 828 747 768 l 1007 631 b 542 1024 974 860 793 1024 b 31 504 226 1024 31 822 b 535 -18 31 182 221 -18 b 1014 375 789 -18 976 142 z m 656 1231 l 431 1231 l 236 1074 l 461 1074 l 543 1142 l 618 1074 l 846 1074 z "},"Ċ":{"ha":1042,"x_min":0,"x_max":0,"o":"m 781 375 b 536 178 750 222 640 178 b 282 504 392 178 282 292 b 533 828 282 710 393 828 b 774 631 646 828 747 768 l 1007 631 b 542 1024 974 860 793 1024 b 31 504 226 1024 31 822 b 535 -18 31 182 221 -18 b 1014 375 789 -18 976 142 z m 425 1231 l 425 1074 l 663 1074 l 663 1231 z "},"Ď":{"ha":1042,"x_min":0,"x_max":0,"o":"m 761 504 b 428 200 761 238 601 200 l 329 200 l 329 807 l 428 807 b 761 504 601 807 761 771 z m 92 1007 l 92 0 l 424 0 b 1013 504 753 0 1013 121 b 424 1007 1013 886 753 1007 z m 410 1074 l 635 1074 l 829 1231 l 604 1231 l 522 1161 l 447 1231 l 219 1231 z "},"Đ":{"ha":1089,"x_min":0,"x_max":0,"o":"m 139 1007 l 139 614 l 15 614 l 15 406 l 139 406 l 139 0 l 471 0 b 1060 504 800 0 1060 121 b 471 1007 1060 886 800 1007 z m 808 504 b 475 200 808 238 649 200 l 376 200 l 376 406 l 522 406 l 522 614 l 376 614 l 376 807 l 475 807 b 808 504 649 807 808 771 z "},"Ĕ":{"ha":921,"x_min":0,"x_max":0,"o":"m 92 0 l 864 0 l 864 210 l 329 210 l 329 413 l 835 413 l 835 622 l 329 622 l 329 799 l 864 799 l 864 1007 l 92 1007 z m 583 1231 b 481 1165 576 1181 532 1165 b 381 1231 431 1165 388 1181 l 217 1231 b 481 1067 226 1115 313 1067 b 747 1231 654 1067 736 1115 z "},"Ě":{"ha":921,"x_min":0,"x_max":0,"o":"m 92 0 l 864 0 l 864 210 l 329 210 l 329 413 l 835 413 l 835 622 l 329 622 l 329 799 l 864 799 l 864 1007 l 92 1007 z m 367 1074 l 592 1074 l 786 1231 l 561 1231 l 479 1161 l 404 1231 l 176 1231 z "},"Ē":{"ha":921,"x_min":0,"x_max":0,"o":"m 92 0 l 864 0 l 864 210 l 329 210 l 329 413 l 835 413 l 835 622 l 329 622 l 329 799 l 864 799 l 864 1007 l 92 1007 z m 715 1101 l 715 1233 l 250 1233 l 250 1101 z "},"Ę":{"ha":921,"x_min":0,"x_max":0,"o":"m 92 0 l 864 0 l 864 210 l 329 210 l 329 413 l 835 413 l 835 622 l 329 622 l 329 799 l 864 799 l 864 1007 l 92 1007 z m 626 0 b 531 -128 569 -32 531 -72 b 744 -261 531 -221 644 -261 b 864 -247 781 -261 842 -254 l 864 -133 b 796 -147 851 -137 825 -147 b 726 -99 763 -147 726 -136 b 863 0 726 -64 793 -33 z "},"Ė":{"ha":921,"x_min":0,"x_max":0,"o":"m 92 0 l 864 0 l 864 210 l 329 210 l 329 413 l 835 413 l 835 622 l 329 622 l 329 799 l 864 799 l 864 1007 l 92 1007 z m 360 1231 l 360 1074 l 597 1074 l 597 1231 z "},"Ğ":{"ha":1088,"x_min":0,"x_max":0,"o":"m 544 1024 b 31 507 239 1024 31 825 b 510 -18 31 185 214 -18 b 818 111 654 -18 753 22 l 825 0 l 1007 0 l 1007 561 l 526 561 l 526 367 l 769 367 l 769 347 b 546 178 769 219 656 178 b 282 507 386 178 282 294 b 542 828 282 719 396 828 b 763 692 671 828 740 761 l 996 692 b 544 1024 947 911 768 1024 z m 643 1231 b 540 1165 636 1181 592 1165 b 440 1231 490 1165 447 1181 l 276 1231 b 540 1067 286 1115 372 1067 b 807 1231 714 1067 796 1115 z "},"Ĝ":{"ha":1088,"x_min":0,"x_max":0,"o":"m 544 1024 b 31 507 239 1024 31 825 b 510 -18 31 185 214 -18 b 818 111 654 -18 753 22 l 825 0 l 1007 0 l 1007 561 l 526 561 l 526 367 l 769 367 l 769 347 b 546 178 769 219 656 178 b 282 507 386 178 282 294 b 542 828 282 719 396 828 b 763 692 671 828 740 761 l 996 692 b 544 1024 947 911 768 1024 z m 654 1231 l 429 1231 l 235 1074 l 460 1074 l 542 1142 l 617 1074 l 844 1074 z "},"Ģ":{"ha":1088,"x_min":0,"x_max":0,"o":"m 544 1024 b 31 507 239 1024 31 825 b 510 -18 31 185 214 -18 b 818 111 654 -18 753 22 l 825 0 l 1007 0 l 1007 561 l 526 561 l 526 367 l 769 367 l 769 347 b 546 178 769 219 656 178 b 282 507 386 178 282 294 b 542 828 282 719 396 828 b 763 692 671 828 740 761 l 996 692 b 544 1024 947 911 768 1024 z m 432 -189 l 482 -189 l 428 -321 l 547 -321 l 608 -197 l 608 -50 l 432 -50 z "},"Ġ":{"ha":1088,"x_min":0,"x_max":0,"o":"m 544 1024 b 31 507 239 1024 31 825 b 510 -18 31 185 214 -18 b 818 111 654 -18 753 22 l 825 0 l 1007 0 l 1007 561 l 526 561 l 526 367 l 769 367 l 769 347 b 546 178 769 219 656 178 b 282 507 386 178 282 294 b 542 828 282 719 396 828 b 763 692 671 828 740 761 l 996 692 b 544 1024 947 911 768 1024 z m 419 1231 l 419 1074 l 657 1074 l 657 1231 z "},"Ħ":{"ha":1072,"x_min":0,"x_max":0,"o":"m 743 1007 l 743 874 l 329 874 l 329 1007 l 92 1007 l 92 874 l 14 874 l 14 725 l 92 725 l 92 0 l 329 0 l 329 413 l 743 413 l 743 0 l 981 0 l 981 725 l 1058 725 l 1058 874 l 981 874 l 981 1007 z m 329 622 l 329 725 l 743 725 l 743 622 z "},"Ĥ":{"ha":1072,"x_min":0,"x_max":0,"o":"m 743 1007 l 743 622 l 329 622 l 329 1007 l 92 1007 l 92 0 l 329 0 l 329 413 l 743 413 l 743 0 l 981 0 l 981 1007 z m 651 1231 l 426 1231 l 232 1074 l 457 1074 l 539 1142 l 614 1074 l 842 1074 z "},"Ĭ":{"ha":419,"x_min":0,"x_max":0,"o":"m 329 1007 l 92 1007 l 92 0 l 329 0 z m 313 1231 b 210 1165 306 1181 261 1165 b 110 1231 160 1165 117 1181 l -54 1231 b 210 1067 -44 1115 42 1067 b 476 1231 383 1067 465 1115 z "},"İ":{"ha":419,"x_min":0,"x_max":0,"o":"m 329 1007 l 92 1007 l 92 0 l 329 0 z m 92 1231 l 92 1074 l 329 1074 l 329 1231 z "},"Ī":{"ha":419,"x_min":0,"x_max":0,"o":"m 329 1007 l 92 1007 l 92 0 l 329 0 z m 444 1101 l 444 1233 l -21 1233 l -21 1101 z "},"Į":{"ha":419,"x_min":0,"x_max":0,"o":"m 329 1007 l 92 1007 l 92 0 l 329 0 z m 93 0 b -3 -128 36 -32 -3 -72 b 211 -261 -3 -221 111 -261 b 331 -247 247 -261 308 -254 l 331 -133 b 263 -147 318 -137 292 -147 b 193 -99 229 -147 193 -136 b 329 0 193 -64 260 -33 z "},"Ĩ":{"ha":419,"x_min":0,"x_max":0,"o":"m 329 1007 l 92 1007 l 92 0 l 329 0 z m 296 1179 b 118 1231 233 1179 208 1231 b -82 1069 56 1231 -56 1208 l 53 1069 b 126 1121 60 1104 83 1121 b 306 1069 182 1121 215 1069 b 506 1231 368 1069 479 1090 l 371 1231 b 296 1179 364 1196 339 1179 z "},"Ị":{"ha":419,"x_min":0,"x_max":0,"o":"m 329 1007 l 92 1007 l 92 0 l 329 0 z m 107 -79 l 107 -243 l 313 -243 l 313 -79 z "},"Ĵ":{"ha":890,"x_min":0,"x_max":0,"o":"m 564 385 b 408 171 564 224 508 171 b 253 385 307 171 257 224 l 15 385 b 408 -18 22 150 147 -18 b 801 385 665 -18 801 135 l 801 1007 l 564 1007 z m 797 1231 l 572 1231 l 378 1074 l 603 1074 l 685 1142 l 760 1074 l 988 1074 z "},"Ķ":{"ha":990,"x_min":0,"x_max":0,"o":"m 329 1007 l 92 1007 l 92 0 l 329 0 l 329 297 l 446 425 l 718 0 l 1004 0 l 613 606 l 985 1007 l 694 1007 l 329 608 z m 428 -189 l 478 -189 l 424 -321 l 543 -321 l 604 -197 l 604 -50 l 428 -50 z "},"Ĺ":{"ha":811,"x_min":0,"x_max":0,"o":"m 329 1007 l 92 1007 l 92 0 l 813 0 l 813 210 l 329 210 z m 519 1231 l 239 1231 l 96 1074 l 299 1074 z "},"Ľ":{"ha":811,"x_min":0,"x_max":0,"o":"m 329 1007 l 92 1007 l 92 0 l 813 0 l 813 210 l 329 210 z m 679 1007 l 469 1007 l 442 771 l 597 771 z "},"Ļ":{"ha":811,"x_min":0,"x_max":0,"o":"m 329 1007 l 92 1007 l 92 0 l 813 0 l 813 210 l 329 210 z m 365 -189 l 415 -189 l 361 -321 l 481 -321 l 542 -197 l 542 -50 l 365 -50 z "},"Ŀ":{"ha":811,"x_min":0,"x_max":0,"o":"m 329 1007 l 92 1007 l 92 0 l 813 0 l 813 210 l 329 210 z m 497 686 l 497 529 l 735 529 l 735 686 z "},"Ł":{"ha":850,"x_min":0,"x_max":0,"o":"m 368 1007 l 131 1007 l 131 567 l -28 472 l -28 253 l 131 347 l 131 0 l 851 0 l 851 210 l 368 210 l 368 490 l 569 611 l 569 831 l 368 710 z "},"Ŋ":{"ha":1104,"x_min":0,"x_max":0,"o":"m 772 0 l 772 -11 b 675 -64 772 -57 735 -64 l 639 -64 l 639 -243 l 736 -243 b 1014 0 946 -243 1014 -208 l 1014 1007 l 785 1007 l 785 381 l 381 1007 l 92 1007 l 92 0 l 321 0 l 321 694 z "},"Ń":{"ha":1104,"x_min":0,"x_max":0,"o":"m 1014 0 l 1014 1007 l 785 1007 l 785 313 l 381 1007 l 92 1007 l 92 0 l 321 0 l 321 694 l 725 0 z m 875 1231 l 594 1231 l 451 1074 l 654 1074 z "},"Ň":{"ha":1104,"x_min":0,"x_max":0,"o":"m 1014 0 l 1014 1007 l 785 1007 l 785 313 l 381 1007 l 92 1007 l 92 0 l 321 0 l 321 694 l 725 0 z m 454 1074 l 679 1074 l 874 1231 l 649 1231 l 567 1161 l 492 1231 l 264 1231 z "},"Ņ":{"ha":1104,"x_min":0,"x_max":0,"o":"m 1014 0 l 1014 1007 l 785 1007 l 785 313 l 381 1007 l 92 1007 l 92 0 l 321 0 l 321 694 l 725 0 z m 467 -189 l 517 -189 l 463 -321 l 582 -321 l 643 -197 l 643 -50 l 467 -50 z "},"Œ":{"ha":1631,"x_min":0,"x_max":0,"o":"m 824 506 b 553 178 824 289 701 178 b 282 506 404 178 282 289 b 553 828 282 724 404 828 b 824 506 701 828 824 724 z m 829 0 l 1574 0 l 1574 210 l 1039 210 l 1039 413 l 1544 413 l 1544 622 l 1039 622 l 1039 799 l 1574 799 l 1574 1007 l 829 1007 l 829 942 b 544 1024 757 996 663 1024 b 31 506 235 1024 31 824 b 544 -18 31 188 235 -18 b 829 67 661 -18 756 10 z "},"Ŏ":{"ha":1106,"x_min":0,"x_max":0,"o":"m 282 503 b 553 828 282 717 404 828 b 824 503 701 828 824 717 b 553 178 824 289 701 178 b 282 503 404 178 282 289 z m 1075 503 b 553 1024 1075 817 861 1024 b 31 503 243 1024 31 817 b 553 -18 31 189 243 -18 b 1075 503 861 -18 1075 189 z m 654 1231 b 551 1165 647 1181 603 1165 b 451 1231 501 1165 458 1181 l 288 1231 b 551 1067 297 1115 383 1067 b 818 1231 725 1067 807 1115 z "},"Ő":{"ha":1106,"x_min":0,"x_max":0,"o":"m 282 503 b 553 828 282 717 404 828 b 824 503 701 828 824 717 b 553 178 824 289 701 178 b 282 503 404 178 282 289 z m 1075 503 b 553 1024 1075 817 861 1024 b 31 503 243 1024 31 817 b 553 -18 31 189 243 -18 b 1075 503 861 -18 1075 189 z m 724 1231 l 443 1231 l 300 1074 l 501 1074 z m 1028 1231 l 749 1231 l 606 1074 l 807 1074 z "},"Ō":{"ha":1106,"x_min":0,"x_max":0,"o":"m 282 503 b 553 828 282 717 404 828 b 824 503 701 828 824 717 b 553 178 824 289 701 178 b 282 503 404 178 282 289 z m 1075 503 b 553 1024 1075 817 861 1024 b 31 503 243 1024 31 817 b 553 -18 31 189 243 -18 b 1075 503 861 -18 1075 189 z m 786 1101 l 786 1233 l 321 1233 l 321 1101 z "},"Ọ":{"ha":1106,"x_min":0,"x_max":0,"o":"m 282 503 b 553 828 282 717 404 828 b 824 503 701 828 824 717 b 553 178 824 289 701 178 b 282 503 404 178 282 289 z m 1075 503 b 553 1024 1075 817 861 1024 b 31 503 243 1024 31 817 b 553 -18 31 189 243 -18 b 1075 503 861 -18 1075 189 z m 450 -79 l 450 -243 l 656 -243 l 656 -79 z "},"Ŕ":{"ha":1001,"x_min":0,"x_max":0,"o":"m 708 0 l 988 0 l 739 418 b 936 696 854 463 936 547 b 479 1007 936 946 740 1007 l 92 1007 l 92 0 l 329 0 l 329 379 l 490 379 z m 486 807 b 685 693 599 807 685 786 b 486 579 685 597 599 579 l 329 579 l 329 807 z m 785 1231 l 504 1231 l 361 1074 l 564 1074 z "},"Ř":{"ha":1001,"x_min":0,"x_max":0,"o":"m 708 0 l 988 0 l 739 418 b 936 696 854 463 936 547 b 479 1007 936 946 740 1007 l 92 1007 l 92 0 l 329 0 l 329 379 l 490 379 z m 486 807 b 685 693 599 807 685 786 b 486 579 685 597 599 579 l 329 579 l 329 807 z m 376 1074 l 601 1074 l 796 1231 l 571 1231 l 489 1161 l 414 1231 l 186 1231 z "},"Ŗ":{"ha":1001,"x_min":0,"x_max":0,"o":"m 708 0 l 988 0 l 739 418 b 936 696 854 463 936 547 b 479 1007 936 946 740 1007 l 92 1007 l 92 0 l 329 0 l 329 379 l 490 379 z m 486 807 b 685 693 599 807 685 786 b 486 579 685 597 599 579 l 329 579 l 329 807 z m 411 -189 l 461 -189 l 407 -321 l 526 -321 l 588 -197 l 588 -50 l 411 -50 z "},"Ś":{"ha":935,"x_min":0,"x_max":0,"o":"m 878 715 b 458 1024 844 938 654 1024 b 40 722 261 1024 40 928 b 353 429 40 542 189 463 l 475 404 b 663 283 586 381 663 349 b 490 174 663 200 572 174 b 257 328 367 174 283 222 l 21 328 b 485 -18 58 110 225 -18 b 907 313 694 -18 907 101 b 539 607 907 524 701 574 l 401 635 b 285 736 331 650 285 686 b 444 833 285 799 351 833 b 643 715 546 833 619 792 z m 786 1231 l 506 1231 l 363 1074 l 565 1074 z "},"Š":{"ha":935,"x_min":0,"x_max":0,"o":"m 878 715 b 458 1024 844 938 654 1024 b 40 722 261 1024 40 928 b 353 429 40 542 189 463 l 475 404 b 663 283 586 381 663 349 b 490 174 663 200 572 174 b 257 328 367 174 283 222 l 21 328 b 485 -18 58 110 225 -18 b 907 313 694 -18 907 101 b 539 607 907 524 701 574 l 401 635 b 285 736 331 650 285 686 b 444 833 285 799 351 833 b 643 715 546 833 619 792 z m 350 1074 l 575 1074 l 769 1231 l 544 1231 l 463 1161 l 388 1231 l 160 1231 z "},"Ş":{"ha":935,"x_min":0,"x_max":0,"o":"m 878 715 b 458 1024 844 938 654 1024 b 40 722 261 1024 40 928 b 353 429 40 542 189 463 l 475 404 b 663 283 586 381 663 349 b 490 174 663 200 572 174 b 257 328 367 174 283 222 l 21 328 b 485 -18 58 110 225 -18 b 907 313 694 -18 907 101 b 539 607 907 524 701 574 l 401 635 b 285 736 331 650 285 686 b 444 833 285 799 351 833 b 643 715 546 833 619 792 z m 303 -260 b 435 -279 342 -272 386 -279 b 626 -160 532 -279 626 -247 b 497 -65 626 -89 553 -65 b 446 -71 475 -65 458 -67 l 492 1 l 406 1 l 335 -114 l 376 -137 b 429 -125 392 -128 414 -125 b 485 -164 463 -125 485 -137 b 418 -204 485 -196 456 -204 b 326 -185 381 -204 343 -194 z "},"Ŝ":{"ha":935,"x_min":0,"x_max":0,"o":"m 878 715 b 458 1024 844 938 654 1024 b 40 722 261 1024 40 928 b 353 429 40 542 189 463 l 475 404 b 663 283 586 381 663 349 b 490 174 663 200 572 174 b 257 328 367 174 283 222 l 21 328 b 485 -18 58 110 225 -18 b 907 313 694 -18 907 101 b 539 607 907 524 701 574 l 401 635 b 285 736 331 650 285 686 b 444 833 285 799 351 833 b 643 715 546 833 619 792 z m 579 1231 l 354 1231 l 160 1074 l 385 1074 l 467 1142 l 542 1074 l 769 1074 z "},"Ș":{"ha":935,"x_min":0,"x_max":0,"o":"m 878 715 b 458 1024 844 938 654 1024 b 40 722 261 1024 40 928 b 353 429 40 542 189 463 l 475 404 b 663 283 586 381 663 349 b 490 174 663 200 572 174 b 257 328 367 174 283 222 l 21 328 b 485 -18 58 110 225 -18 b 907 313 694 -18 907 101 b 539 607 907 524 701 574 l 401 635 b 285 736 331 650 285 686 b 444 833 285 799 351 833 b 643 715 546 833 619 792 z m 378 -189 l 428 -189 l 374 -321 l 493 -321 l 554 -197 l 554 -50 l 378 -50 z "},"Ŧ":{"ha":899,"x_min":0,"x_max":0,"o":"m 329 0 l 568 0 l 568 406 l 761 406 l 761 614 l 568 614 l 568 799 l 892 799 l 892 1007 l 7 1007 l 7 799 l 329 799 l 329 614 l 136 614 l 136 406 l 329 406 z "},"Ť":{"ha":899,"x_min":0,"x_max":0,"o":"m 329 0 l 568 0 l 568 799 l 892 799 l 892 1007 l 7 1007 l 7 799 l 329 799 z m 335 1074 l 560 1074 l 754 1231 l 529 1231 l 447 1161 l 372 1231 l 144 1231 z "},"Ţ":{"ha":899,"x_min":0,"x_max":0,"o":"m 329 0 l 568 0 l 568 799 l 892 799 l 892 1007 l 7 1007 l 7 799 l 329 799 z m 361 -189 l 411 -189 l 357 -321 l 476 -321 l 538 -197 l 538 -50 l 361 -50 z "},"Ț":{"ha":899,"x_min":0,"x_max":0,"o":"m 329 0 l 568 0 l 568 799 l 892 799 l 892 1007 l 7 1007 l 7 799 l 329 799 z m 361 -189 l 411 -189 l 357 -321 l 476 -321 l 538 -197 l 538 -50 l 361 -50 z "},"Ŭ":{"ha":1021,"x_min":0,"x_max":0,"o":"m 75 1007 l 75 431 b 513 -18 75 99 211 -18 b 946 439 826 -18 946 129 l 946 1007 l 708 1007 l 708 419 b 513 176 708 271 679 176 b 313 406 347 176 313 258 l 313 1007 z m 611 1231 b 508 1165 604 1181 560 1165 b 408 1231 458 1165 415 1181 l 244 1231 b 508 1067 254 1115 340 1067 b 775 1231 682 1067 764 1115 z "},"Ű":{"ha":1021,"x_min":0,"x_max":0,"o":"m 75 1007 l 75 431 b 513 -18 75 99 211 -18 b 946 439 826 -18 946 129 l 946 1007 l 708 1007 l 708 419 b 513 176 708 271 679 176 b 313 406 347 176 313 258 l 313 1007 z m 681 1231 l 400 1231 l 257 1074 l 458 1074 z m 985 1231 l 706 1231 l 563 1074 l 764 1074 z "},"Ū":{"ha":1021,"x_min":0,"x_max":0,"o":"m 75 1007 l 75 431 b 513 -18 75 99 211 -18 b 946 439 826 -18 946 129 l 946 1007 l 708 1007 l 708 419 b 513 176 708 271 679 176 b 313 406 347 176 313 258 l 313 1007 z m 743 1101 l 743 1233 l 278 1233 l 278 1101 z "},"Ų":{"ha":1021,"x_min":0,"x_max":0,"o":"m 557 -261 b 676 -247 593 -261 654 -254 l 676 -133 b 608 -147 664 -137 638 -147 b 539 -94 575 -147 539 -132 b 678 -3 539 -54 604 -25 b 946 439 869 57 946 188 l 946 1007 l 708 1007 l 708 419 b 513 176 708 271 679 176 b 313 406 347 176 313 258 l 313 1007 l 75 1007 l 75 431 b 417 -14 75 136 182 13 b 343 -128 372 -46 343 -79 b 557 -261 343 -221 457 -261 z "},"Ů":{"ha":1021,"x_min":0,"x_max":0,"o":"m 75 1007 l 75 431 b 513 -18 75 99 211 -18 b 946 439 826 -18 946 129 l 946 1007 l 708 1007 l 708 419 b 513 176 708 271 679 176 b 313 406 347 176 313 258 l 313 1007 z m 510 1299 b 385 1181 442 1299 385 1249 b 510 1063 385 1110 439 1063 b 636 1181 581 1063 636 1110 b 510 1299 636 1249 581 1299 z m 510 1240 b 569 1181 542 1240 569 1215 b 510 1122 569 1146 542 1122 b 450 1181 478 1122 450 1146 b 510 1240 450 1215 478 1240 z "},"Ũ":{"ha":1021,"x_min":0,"x_max":0,"o":"m 75 1007 l 75 431 b 513 -18 75 99 211 -18 b 946 439 826 -18 946 129 l 946 1007 l 708 1007 l 708 419 b 513 176 708 271 679 176 b 313 406 347 176 313 258 l 313 1007 z m 594 1179 b 417 1231 532 1179 507 1231 b 217 1069 354 1231 243 1208 l 351 1069 b 425 1121 358 1104 382 1121 b 604 1069 481 1121 514 1069 b 804 1231 667 1069 778 1090 l 669 1231 b 594 1179 663 1196 638 1179 z "},"Ụ":{"ha":1021,"x_min":0,"x_max":0,"o":"m 75 1007 l 75 431 b 513 -18 75 99 211 -18 b 946 439 826 -18 946 129 l 946 1007 l 708 1007 l 708 419 b 513 176 708 271 679 176 b 313 406 347 176 313 258 l 313 1007 z m 407 -79 l 407 -243 l 613 -243 l 613 -79 z "},"Ẃ":{"ha":1272,"x_min":0,"x_max":0,"o":"m 760 1007 l 514 1007 l 378 311 l 240 1007 l 0 1007 l 231 0 l 485 0 l 636 710 l 789 0 l 1044 0 l 1272 1007 l 1035 1007 l 908 308 z m 958 1231 l 678 1231 l 535 1074 l 738 1074 z "},"Ŵ":{"ha":1272,"x_min":0,"x_max":0,"o":"m 760 1007 l 514 1007 l 378 311 l 240 1007 l 0 1007 l 231 0 l 485 0 l 636 710 l 789 0 l 1044 0 l 1272 1007 l 1035 1007 l 908 308 z m 751 1231 l 526 1231 l 332 1074 l 557 1074 l 639 1142 l 714 1074 l 942 1074 z "},"Ẅ":{"ha":1272,"x_min":0,"x_max":0,"o":"m 760 1007 l 514 1007 l 378 311 l 240 1007 l 0 1007 l 231 0 l 485 0 l 636 710 l 789 0 l 1044 0 l 1272 1007 l 1035 1007 l 908 308 z m 375 1231 l 375 1074 l 579 1074 l 579 1231 z m 693 1231 l 693 1074 l 899 1074 l 899 1231 z "},"Ẁ":{"ha":1272,"x_min":0,"x_max":0,"o":"m 760 1007 l 514 1007 l 378 311 l 240 1007 l 0 1007 l 231 0 l 485 0 l 636 710 l 789 0 l 1044 0 l 1272 1007 l 1035 1007 l 908 308 z m 535 1074 l 738 1074 l 593 1231 l 314 1231 z "},"Ŷ":{"ha":961,"x_min":0,"x_max":0,"o":"m -22 1007 l 357 392 l 357 0 l 594 0 l 594 389 l 983 1007 l 708 1007 l 481 621 l 256 1007 z m 596 1231 l 371 1231 l 176 1074 l 401 1074 l 483 1142 l 558 1074 l 786 1074 z "},"Ÿ":{"ha":961,"x_min":0,"x_max":0,"o":"m -22 1007 l 357 392 l 357 0 l 594 0 l 594 389 l 983 1007 l 708 1007 l 481 621 l 256 1007 z m 219 1231 l 219 1074 l 424 1074 l 424 1231 z m 538 1231 l 538 1074 l 743 1074 l 743 1231 z "},"Ỳ":{"ha":961,"x_min":0,"x_max":0,"o":"m -22 1007 l 357 392 l 357 0 l 594 0 l 594 389 l 983 1007 l 708 1007 l 481 621 l 256 1007 z m 407 1074 l 610 1074 l 465 1231 l 186 1231 z "},"Ȳ":{"ha":961,"x_min":0,"x_max":0,"o":"m -22 1007 l 357 392 l 357 0 l 594 0 l 594 389 l 983 1007 l 708 1007 l 481 621 l 256 1007 z m 714 1101 l 714 1233 l 249 1233 l 249 1101 z "},"Ź":{"ha":911,"x_min":0,"x_max":0,"o":"m 860 1007 l 67 1007 l 67 799 l 550 799 l 26 182 l 26 0 l 867 0 l 867 210 l 339 210 l 860 825 z m 768 1231 l 488 1231 l 344 1074 l 547 1074 z "},"Ž":{"ha":911,"x_min":0,"x_max":0,"o":"m 860 1007 l 67 1007 l 67 799 l 550 799 l 26 182 l 26 0 l 867 0 l 867 210 l 339 210 l 860 825 z m 363 1074 l 588 1074 l 782 1231 l 557 1231 l 475 1161 l 400 1231 l 172 1231 z "},"Ż":{"ha":911,"x_min":0,"x_max":0,"o":"m 860 1007 l 67 1007 l 67 799 l 550 799 l 26 182 l 26 0 l 867 0 l 867 210 l 339 210 l 860 825 z m 342 1231 l 342 1074 l 579 1074 l 579 1231 z "},"Ə":{"ha":1104,"x_min":0,"x_max":0,"o":"m 306 707 b 551 833 339 789 433 833 b 808 615 664 833 790 778 l 46 615 b 546 -18 -3 214 197 -18 b 1074 507 854 -18 1074 188 b 550 1024 1074 829 850 1024 b 57 707 297 1024 97 901 z m 544 171 b 294 418 425 171 299 236 l 813 418 b 544 171 806 236 675 171 z "},"ă":{"ha":829,"x_min":0,"x_max":0,"o":"m 539 467 b 42 201 249 444 42 385 b 300 -18 42 65 158 -18 b 551 90 407 -18 496 11 l 554 0 l 779 0 b 763 217 768 47 763 135 l 763 294 l 765 457 b 432 771 769 683 647 771 b 65 506 210 771 76 646 l 279 506 b 413 615 289 578 339 615 b 539 496 496 615 539 585 z m 544 314 b 383 138 544 176 475 138 b 278 218 324 138 278 169 b 544 332 278 299 385 317 z m 501 1007 b 415 951 496 978 467 951 b 331 1007 364 951 336 978 l 181 1007 b 414 839 188 924 260 839 b 651 1007 574 839 640 924 z "},"ā":{"ha":829,"x_min":0,"x_max":0,"o":"m 539 467 b 42 201 249 444 42 385 b 300 -18 42 65 158 -18 b 551 90 407 -18 496 11 l 554 0 l 779 0 b 763 217 768 47 763 135 l 763 294 l 765 457 b 432 771 769 683 647 771 b 65 506 210 771 76 646 l 279 506 b 413 615 289 578 339 615 b 539 496 496 615 539 585 z m 544 314 b 383 138 544 176 475 138 b 278 218 324 138 278 169 b 544 332 278 299 385 317 z m 642 860 l 642 1008 l 207 1008 l 207 860 z "},"ą":{"ha":829,"x_min":0,"x_max":0,"o":"m 539 467 b 42 201 249 444 42 385 b 300 -18 42 65 158 -18 b 551 90 407 -18 496 11 l 554 0 b 454 -128 494 -35 454 -72 b 671 -261 454 -221 564 -261 b 778 -246 708 -261 744 -256 l 778 -132 b 711 -144 760 -137 733 -144 b 656 -94 679 -144 656 -133 b 779 0 656 -54 708 -35 b 763 217 768 47 763 135 l 763 294 l 765 457 b 432 771 769 683 647 771 b 65 506 210 771 76 646 l 279 506 b 413 615 289 578 339 615 b 539 496 496 615 539 585 z m 544 314 b 383 138 544 176 475 138 b 278 218 324 138 278 169 b 544 332 278 299 385 317 z "},"ć":{"ha":828,"x_min":0,"x_max":0,"o":"m 419 769 b 38 378 193 769 38 615 b 419 -18 38 140 174 -18 b 800 275 569 -18 749 53 l 586 275 b 433 160 569 204 518 160 b 271 376 351 160 271 214 b 433 592 271 536 351 592 b 576 474 501 592 556 561 l 790 474 b 419 769 746 699 575 769 z m 724 1007 l 464 1007 l 332 846 l 504 846 z "},"č":{"ha":828,"x_min":0,"x_max":0,"o":"m 419 769 b 38 378 193 769 38 615 b 419 -18 38 140 174 -18 b 800 275 569 -18 749 53 l 586 275 b 433 160 569 204 518 160 b 271 376 351 160 271 214 b 433 592 271 536 351 592 b 576 474 501 592 556 561 l 790 474 b 419 769 746 699 575 769 z m 313 846 l 519 846 l 715 1007 l 504 1007 l 417 943 l 332 1007 l 122 1007 z "},"ĉ":{"ha":828,"x_min":0,"x_max":0,"o":"m 419 769 b 38 378 193 769 38 615 b 419 -18 38 140 174 -18 b 800 275 569 -18 749 53 l 586 275 b 433 160 569 204 518 160 b 271 376 351 160 271 214 b 433 592 271 536 351 592 b 576 474 501 592 556 561 l 790 474 b 419 769 746 699 575 769 z m 531 1007 l 322 1007 l 126 846 l 338 846 l 425 910 l 511 846 l 719 846 z "},"ċ":{"ha":828,"x_min":0,"x_max":0,"o":"m 419 769 b 38 378 193 769 38 615 b 419 -18 38 140 174 -18 b 800 275 569 -18 749 53 l 586 275 b 433 160 569 204 518 160 b 271 376 351 160 271 214 b 433 592 271 536 351 592 b 576 474 501 592 556 561 l 790 474 b 419 769 746 699 575 769 z m 315 1007 l 315 846 l 521 846 l 521 1007 z "},"ď":{"ha":1086,"x_min":0,"x_max":0,"o":"m 1114 1007 l 904 1007 l 876 771 l 1032 771 z m 592 1007 l 592 646 b 363 764 543 728 443 764 b 33 374 169 764 33 618 b 363 -18 33 129 169 -18 b 592 100 443 -18 543 18 l 592 0 l 821 0 l 821 1007 z m 438 586 b 603 374 528 586 603 528 b 438 160 603 219 528 160 b 271 374 346 160 271 235 b 438 586 271 513 346 586 z "},"đ":{"ha":910,"x_min":0,"x_max":0,"o":"m 592 1007 l 592 906 l 428 906 l 428 785 l 592 785 l 592 646 b 363 764 543 728 443 764 b 33 374 169 764 33 618 b 363 -18 33 129 169 -18 b 592 100 443 -18 543 18 l 592 0 l 821 0 l 821 785 l 910 785 l 910 906 l 821 906 l 821 1007 z m 438 586 b 603 374 528 586 603 528 b 438 160 603 219 528 160 b 271 374 346 160 271 235 b 438 586 271 513 346 586 z "},"ĕ":{"ha":861,"x_min":0,"x_max":0,"o":"m 608 235 b 440 160 582 190 528 160 b 268 315 357 160 275 210 l 822 315 b 438 769 838 582 686 769 b 38 378 219 769 38 617 b 447 -18 38 129 204 -18 b 819 235 596 -18 753 58 z m 438 594 b 594 454 525 594 590 549 l 271 454 b 438 594 283 553 356 594 z m 515 1007 b 429 951 510 978 481 951 b 344 1007 378 951 350 978 l 194 1007 b 428 839 201 924 274 839 b 665 1007 588 839 654 924 z "},"ě":{"ha":861,"x_min":0,"x_max":0,"o":"m 608 235 b 440 160 582 190 528 160 b 268 315 357 160 275 210 l 822 315 b 438 769 838 582 686 769 b 38 378 219 769 38 617 b 447 -18 38 129 204 -18 b 819 235 596 -18 753 58 z m 438 594 b 594 454 525 594 590 549 l 271 454 b 438 594 283 553 356 594 z m 324 846 l 531 846 l 726 1007 l 515 1007 l 428 943 l 343 1007 l 133 1007 z "},"ē":{"ha":861,"x_min":0,"x_max":0,"o":"m 608 235 b 440 160 582 190 528 160 b 268 315 357 160 275 210 l 822 315 b 438 769 838 582 686 769 b 38 378 219 769 38 617 b 447 -18 38 129 204 -18 b 819 235 596 -18 753 58 z m 438 594 b 594 454 525 594 590 549 l 271 454 b 438 594 283 553 356 594 z m 647 860 l 647 1008 l 213 1008 l 213 860 z "},"ę":{"ha":861,"x_min":0,"x_max":0,"o":"m 668 -131 b 601 -143 650 -136 624 -143 b 546 -93 569 -143 546 -128 b 688 58 546 -57 614 3 b 819 235 756 113 793 167 l 608 235 b 440 160 582 190 528 160 b 268 315 358 160 275 210 l 822 315 b 824 333 824 322 824 328 l 824 351 b 438 769 824 597 675 769 b 38 378 219 769 38 617 b 403 -17 38 146 185 1 b 344 -132 365 -54 344 -83 b 561 -260 344 -226 454 -260 b 668 -244 599 -260 635 -254 z m 438 594 b 594 454 525 594 590 549 l 271 454 b 438 594 283 553 356 594 z "},"ė":{"ha":861,"x_min":0,"x_max":0,"o":"m 608 235 b 440 160 582 190 528 160 b 268 315 357 160 275 210 l 822 315 b 438 769 838 582 686 769 b 38 378 219 769 38 617 b 447 -18 38 129 204 -18 b 819 235 596 -18 753 58 z m 438 594 b 594 454 525 594 590 549 l 271 454 b 438 594 283 553 356 594 z m 326 1007 l 326 846 l 532 846 l 532 1007 z "},"ğ":{"ha":903,"x_min":0,"x_max":0,"o":"m 593 646 b 363 764 544 728 444 764 b 33 396 169 764 33 633 b 363 26 33 158 169 26 b 593 144 444 26 544 63 l 593 56 b 435 -100 593 -43 551 -100 b 279 -4 351 -100 297 -69 l 64 -4 b 438 -261 86 -142 217 -261 b 821 100 644 -261 821 -178 l 821 747 l 593 747 z m 438 586 b 603 396 528 586 603 543 b 438 204 603 251 528 204 b 271 396 346 204 271 263 b 438 586 271 528 346 586 z m 513 1007 b 426 951 507 978 478 951 b 342 1007 375 951 347 978 l 192 1007 b 425 839 199 924 271 839 b 663 1007 585 839 651 924 z "},"ĝ":{"ha":903,"x_min":0,"x_max":0,"o":"m 593 646 b 363 764 544 728 444 764 b 33 396 169 764 33 633 b 363 26 33 158 169 26 b 593 144 444 26 544 63 l 593 56 b 435 -100 593 -43 551 -100 b 279 -4 351 -100 297 -69 l 64 -4 b 438 -261 86 -142 217 -261 b 821 100 644 -261 821 -178 l 821 747 l 593 747 z m 438 586 b 603 396 528 586 603 543 b 438 204 603 251 528 204 b 271 396 346 204 271 263 b 438 586 271 528 346 586 z m 563 1007 l 354 1007 l 158 846 l 369 846 l 457 910 l 543 846 l 751 846 z "},"ģ":{"ha":903,"x_min":0,"x_max":0,"o":"m 514 994 l 465 994 l 518 1126 l 399 1126 l 338 1003 l 338 856 l 514 856 z m 593 646 b 363 764 544 728 444 764 b 33 396 169 764 33 633 b 363 26 33 158 169 26 b 593 144 444 26 544 63 l 593 56 b 435 -100 593 -43 551 -100 b 279 -4 351 -100 297 -69 l 64 -4 b 438 -261 86 -142 217 -261 b 821 100 644 -261 821 -178 l 821 747 l 593 747 z m 438 586 b 603 396 528 586 603 543 b 438 204 603 251 528 204 b 271 396 346 204 271 263 b 438 586 271 528 346 586 z "},"ġ":{"ha":903,"x_min":0,"x_max":0,"o":"m 593 646 b 363 764 544 728 444 764 b 33 396 169 764 33 633 b 363 26 33 158 169 26 b 593 144 444 26 544 63 l 593 56 b 435 -100 593 -43 551 -100 b 279 -4 351 -100 297 -69 l 64 -4 b 438 -261 86 -142 217 -261 b 821 100 644 -261 821 -178 l 821 747 l 593 747 z m 438 586 b 603 396 528 586 603 543 b 438 204 603 251 528 204 b 271 396 346 204 271 263 b 438 586 271 528 346 586 z m 326 1007 l 326 846 l 532 846 l 532 1007 z "},"ħ":{"ha":890,"x_min":0,"x_max":0,"o":"m 328 785 l 476 785 l 476 906 l 328 906 l 328 1007 l 99 1007 l 99 906 l -7 906 l -7 785 l 99 785 l 99 0 l 328 0 l 328 383 b 468 586 328 522 369 586 b 582 392 579 586 582 499 l 582 0 l 811 0 l 811 449 b 560 764 811 651 751 764 b 328 649 442 764 361 704 z "},"ĥ":{"ha":863,"x_min":0,"x_max":0,"o":"m 311 1007 l 82 1007 l 82 0 l 311 0 l 311 383 b 451 586 311 522 353 586 b 565 392 563 586 565 499 l 565 0 l 794 0 l 794 449 b 543 764 794 651 735 764 b 311 649 425 764 344 704 z m 314 1231 l 89 1231 l -106 1074 l 119 1074 l 201 1142 l 276 1074 l 504 1074 z "},"ı":{"ha":394,"x_min":0,"x_max":0,"o":"m 82 747 l 82 0 l 313 0 l 313 747 z "},"ĭ":{"ha":394,"x_min":0,"x_max":0,"o":"m 82 747 l 82 0 l 313 0 l 313 747 z m 285 1007 b 199 951 279 978 250 951 b 114 1007 147 951 119 978 l -36 1007 b 197 839 -29 924 43 839 b 435 1007 357 839 424 924 z "},"ī":{"ha":394,"x_min":0,"x_max":0,"o":"m 82 747 l 82 0 l 313 0 l 313 747 z m 417 860 l 417 1008 l -18 1008 l -18 860 z "},"į":{"ha":394,"x_min":0,"x_max":0,"o":"m 83 0 b -12 -128 26 -32 -12 -72 b 204 -261 -12 -221 97 -261 b 311 -246 242 -261 278 -256 l 311 -132 b 244 -144 293 -137 267 -144 b 189 -94 213 -144 189 -132 b 311 0 189 -62 240 -35 l 313 0 l 313 747 l 82 747 l 82 0 z m 82 1007 l 82 824 l 311 824 l 311 1007 z "},"ĩ":{"ha":394,"x_min":0,"x_max":0,"o":"m 82 747 l 82 0 l 313 0 l 313 747 z m 282 961 b 96 1022 219 961 189 1022 b -93 846 -11 1022 -75 957 l 42 846 b 113 907 49 886 72 907 b 303 846 168 907 207 846 b 490 1022 403 846 469 906 l 356 1022 b 282 961 347 982 322 961 z "},"ị":{"ha":394,"x_min":0,"x_max":0,"o":"m 82 747 l 82 0 l 313 0 l 313 747 z m 82 1007 l 82 824 l 311 824 l 311 1007 z m 93 -79 l 93 -243 l 299 -243 l 299 -79 z "},"ȷ":{"ha":394,"x_min":0,"x_max":0,"o":"m 82 3 b 6 -78 82 -60 71 -78 l -21 -78 l -21 -243 l 64 -243 b 311 -6 236 -243 311 -196 l 311 747 l 82 747 z "},"ĵ":{"ha":394,"x_min":0,"x_max":0,"o":"m 82 3 b 6 -78 82 -60 71 -78 l -21 -78 l -21 -243 l 64 -243 b 311 -6 236 -243 311 -196 l 311 747 l 82 747 z m 306 1007 l 97 1007 l -99 846 l 113 846 l 200 910 l 286 846 l 494 846 z "},"ķ":{"ha":850,"x_min":0,"x_max":0,"o":"m 82 1007 l 82 0 l 311 0 l 311 188 l 411 294 l 588 0 l 856 0 l 567 461 l 833 747 l 563 747 l 311 463 l 311 1007 z m 354 -189 l 404 -189 l 350 -321 l 469 -321 l 531 -197 l 531 -50 l 354 -50 z "},"ĺ":{"ha":393,"x_min":0,"x_max":0,"o":"m 311 1007 l 82 1007 l 82 0 l 311 0 z m 518 1231 l 238 1231 l 94 1074 l 297 1074 z "},"ľ":{"ha":576,"x_min":0,"x_max":0,"o":"m 604 1007 l 394 1007 l 367 771 l 522 771 z m 311 1007 l 82 1007 l 82 0 l 311 0 z "},"ļ":{"ha":393,"x_min":0,"x_max":0,"o":"m 311 1007 l 82 1007 l 82 0 l 311 0 z m 110 -189 l 160 -189 l 106 -321 l 225 -321 l 286 -197 l 286 -50 l 110 -50 z "},"ŀ":{"ha":599,"x_min":0,"x_max":0,"o":"m 393 688 l 393 526 l 599 526 l 599 688 z m 311 1007 l 82 1007 l 82 0 l 311 0 z "},"ł":{"ha":453,"x_min":0,"x_max":0,"o":"m 342 1007 l 113 1007 l 113 568 l 14 517 l 14 332 l 113 383 l 113 0 l 342 0 l 342 504 l 439 556 l 439 742 l 342 690 z "},"ŋ":{"ha":863,"x_min":0,"x_max":0,"o":"m 565 4 b 488 -76 565 -58 553 -76 l 457 -76 l 457 -243 l 546 -243 b 794 -19 718 -243 794 -210 l 794 449 b 543 764 794 651 735 764 b 311 649 425 764 344 704 l 311 747 l 82 747 l 82 0 l 311 0 l 311 383 b 450 586 311 522 351 586 b 565 392 561 586 565 499 z "},"ń":{"ha":863,"x_min":0,"x_max":0,"o":"m 311 747 l 82 747 l 82 0 l 311 0 l 311 383 b 450 586 311 522 351 586 b 565 392 561 586 565 499 l 565 0 l 794 0 l 794 449 b 543 764 794 651 735 764 b 311 649 425 764 344 704 z m 743 1007 l 483 1007 l 351 846 l 524 846 z "},"ň":{"ha":863,"x_min":0,"x_max":0,"o":"m 311 747 l 82 747 l 82 0 l 311 0 l 311 383 b 450 586 311 522 351 586 b 565 392 561 586 565 499 l 565 0 l 794 0 l 794 449 b 543 764 794 651 735 764 b 311 649 425 764 344 704 z m 332 846 l 539 846 l 735 1007 l 524 1007 l 436 943 l 351 1007 l 142 1007 z "},"ņ":{"ha":863,"x_min":0,"x_max":0,"o":"m 311 747 l 82 747 l 82 0 l 311 0 l 311 383 b 450 586 311 522 351 586 b 565 392 561 586 565 499 l 565 0 l 794 0 l 794 449 b 543 764 794 651 735 764 b 311 649 425 764 344 704 z m 351 -189 l 401 -189 l 347 -321 l 467 -321 l 528 -197 l 528 -50 l 351 -50 z "},"œ":{"ha":1388,"x_min":0,"x_max":0,"o":"m 964 593 b 1122 454 1051 593 1118 544 l 804 454 b 964 593 817 553 882 593 z m 271 375 b 433 589 271 535 343 589 b 599 375 525 589 599 535 b 433 160 599 219 525 160 b 271 375 340 160 271 219 z m 1136 235 b 971 160 1110 190 1058 160 b 801 315 888 160 808 210 l 1350 315 b 964 767 1365 581 1215 767 b 703 656 857 767 768 724 b 433 767 638 728 544 767 b 38 375 226 767 38 647 b 433 -18 38 104 226 -18 b 701 92 543 -18 636 21 b 978 -18 764 25 856 -18 b 1347 235 1126 -18 1281 58 z "},"ŏ":{"ha":867,"x_min":0,"x_max":0,"o":"m 433 592 b 596 376 524 592 596 536 b 433 160 596 219 526 160 b 271 376 340 160 271 219 b 433 592 271 536 343 592 z m 433 769 b 38 376 226 769 38 647 b 433 -18 38 106 226 -18 b 829 376 640 -18 829 106 b 433 769 829 647 640 769 z m 519 1007 b 433 951 514 978 485 951 b 349 1007 382 951 354 978 l 199 1007 b 432 839 206 924 278 839 b 669 1007 592 839 658 924 z "},"ő":{"ha":867,"x_min":0,"x_max":0,"o":"m 583 1007 l 324 1007 l 192 846 l 364 846 z m 894 1007 l 633 1007 l 503 846 l 675 846 z m 433 592 b 596 376 524 592 596 536 b 433 160 596 219 526 160 b 271 376 340 160 271 219 b 433 592 271 536 343 592 z m 433 769 b 38 376 226 769 38 647 b 433 -18 38 106 226 -18 b 829 376 640 -18 829 106 b 433 769 829 647 640 769 z "},"ō":{"ha":867,"x_min":0,"x_max":0,"o":"m 433 592 b 596 376 524 592 596 536 b 433 160 596 219 526 160 b 271 376 340 160 271 219 b 433 592 271 536 343 592 z m 433 769 b 38 376 226 769 38 647 b 433 -18 38 106 226 -18 b 829 376 640 -18 829 106 b 433 769 829 647 640 769 z m 651 860 l 651 1008 l 217 1008 l 217 860 z "},"ọ":{"ha":867,"x_min":0,"x_max":0,"o":"m 433 592 b 596 376 524 592 596 536 b 433 160 596 219 526 160 b 271 376 340 160 271 219 b 433 592 271 536 343 592 z m 433 769 b 38 376 226 769 38 647 b 433 -18 38 106 226 -18 b 829 376 640 -18 829 106 b 433 769 829 647 640 769 z m 331 -79 l 331 -243 l 536 -243 l 536 -79 z "},"ŕ":{"ha":557,"x_min":0,"x_max":0,"o":"m 542 751 b 524 753 536 753 531 753 l 507 753 b 303 606 400 749 338 694 l 303 747 l 82 747 l 82 0 l 311 0 l 311 375 b 479 532 311 492 368 532 b 542 528 500 532 515 532 z m 617 1007 l 357 1007 l 225 846 l 397 846 z "},"ř":{"ha":557,"x_min":0,"x_max":0,"o":"m 542 751 b 524 753 536 753 531 753 l 507 753 b 303 606 400 749 338 694 l 303 747 l 82 747 l 82 0 l 311 0 l 311 375 b 479 532 311 492 368 532 b 542 528 500 532 515 532 z m 207 846 l 414 846 l 610 1007 l 399 1007 l 311 943 l 226 1007 l 17 1007 z "},"ŗ":{"ha":557,"x_min":0,"x_max":0,"o":"m 542 751 b 524 753 536 753 531 753 l 507 753 b 303 606 400 749 338 694 l 303 747 l 82 747 l 82 0 l 311 0 l 311 375 b 479 532 311 492 368 532 b 542 528 500 532 515 532 z m 108 -189 l 158 -189 l 104 -321 l 224 -321 l 285 -197 l 285 -50 l 108 -50 z "},"ś":{"ha":808,"x_min":0,"x_max":0,"o":"m 756 528 b 401 767 726 699 572 767 b 60 536 217 767 60 685 b 303 307 60 403 158 331 l 436 285 b 553 215 524 269 553 249 b 414 149 553 171 496 149 b 257 243 335 149 278 171 l 44 243 b 411 -18 71 68 214 -18 b 772 235 618 -18 772 67 b 507 453 772 367 686 419 l 368 478 b 276 544 303 490 276 510 b 396 600 276 582 317 600 b 542 528 468 600 526 583 z m 714 1007 l 454 1007 l 322 846 l 494 846 z "},"š":{"ha":808,"x_min":0,"x_max":0,"o":"m 756 528 b 401 767 726 699 572 767 b 60 536 217 767 60 685 b 303 307 60 403 158 331 l 436 285 b 553 215 524 269 553 249 b 414 149 553 171 496 149 b 257 243 335 149 278 171 l 44 243 b 411 -18 71 68 214 -18 b 772 235 618 -18 772 67 b 507 453 772 367 686 419 l 368 478 b 276 544 303 490 276 510 b 396 600 276 582 317 600 b 542 528 468 600 526 583 z m 303 846 l 510 846 l 706 1007 l 494 1007 l 407 943 l 322 1007 l 113 1007 z "},"ş":{"ha":808,"x_min":0,"x_max":0,"o":"m 756 528 b 401 767 726 699 572 767 b 60 536 217 767 60 685 b 303 307 60 403 158 331 l 436 285 b 553 215 524 269 553 249 b 414 149 553 171 496 149 b 257 243 335 149 278 171 l 44 243 b 411 -18 71 68 214 -18 b 772 235 618 -18 772 67 b 507 453 772 367 686 419 l 368 478 b 276 544 303 490 276 510 b 396 600 276 582 317 600 b 542 528 468 600 526 583 z m 247 -260 b 379 -279 286 -272 331 -279 b 571 -160 476 -279 571 -247 b 442 -65 571 -89 497 -65 b 390 -71 419 -65 403 -67 l 436 1 l 350 1 l 279 -114 l 321 -137 b 374 -125 336 -128 358 -125 b 429 -164 407 -125 429 -137 b 363 -204 429 -196 400 -204 b 271 -185 325 -204 288 -194 z "},"ŝ":{"ha":808,"x_min":0,"x_max":0,"o":"m 756 528 b 401 767 726 699 572 767 b 60 536 217 767 60 685 b 303 307 60 403 158 331 l 436 285 b 553 215 524 269 553 249 b 414 149 553 171 496 149 b 257 243 335 149 278 171 l 44 243 b 411 -18 71 68 214 -18 b 772 235 618 -18 772 67 b 507 453 772 367 686 419 l 368 478 b 276 544 303 490 276 510 b 396 600 276 582 317 600 b 542 528 468 600 526 583 z m 517 1007 l 308 1007 l 113 846 l 324 846 l 411 910 l 497 846 l 706 846 z "},"ș":{"ha":808,"x_min":0,"x_max":0,"o":"m 756 528 b 401 767 726 699 572 767 b 60 536 217 767 60 685 b 303 307 60 403 158 331 l 436 285 b 553 215 524 269 553 249 b 414 149 553 171 496 149 b 257 243 335 149 278 171 l 44 243 b 411 -18 71 68 214 -18 b 772 235 618 -18 772 67 b 507 453 772 367 686 419 l 368 478 b 276 544 303 490 276 510 b 396 600 276 582 317 600 b 542 528 468 600 526 583 z m 322 -189 l 372 -189 l 318 -321 l 438 -321 l 499 -197 l 499 -50 l 322 -50 z "},"ŧ":{"ha":621,"x_min":0,"x_max":0,"o":"m 163 747 l 44 747 l 44 585 l 163 585 l 163 478 l 44 478 l 44 300 l 163 300 l 163 210 b 410 0 163 36 225 0 l 556 0 l 556 165 l 490 165 b 392 250 414 165 392 179 l 392 300 l 556 300 l 556 478 l 392 478 l 392 585 l 556 585 l 556 747 l 392 747 l 392 951 l 163 951 z "},"ť":{"ha":628,"x_min":0,"x_max":0,"o":"m 656 1007 l 446 1007 l 418 813 l 560 813 z m 118 747 l 0 747 l 0 585 l 118 585 l 118 210 b 365 0 118 36 181 0 l 511 0 l 511 165 l 446 165 b 347 250 369 165 347 179 l 347 585 l 511 585 l 511 747 l 347 747 l 347 951 l 118 951 z "},"ţ":{"ha":550,"x_min":0,"x_max":0,"o":"m 118 747 l 0 747 l 0 585 l 118 585 l 118 210 b 365 0 118 36 181 0 l 511 0 l 511 165 l 446 165 b 347 250 369 165 347 179 l 347 585 l 511 585 l 511 747 l 347 747 l 347 951 l 118 951 z m 169 -189 l 219 -189 l 165 -321 l 285 -321 l 346 -197 l 346 -50 l 169 -50 z "},"ț":{"ha":550,"x_min":0,"x_max":0,"o":"m 118 747 l 0 747 l 0 585 l 118 585 l 118 210 b 365 0 118 36 181 0 l 511 0 l 511 165 l 446 165 b 347 250 369 165 347 179 l 347 585 l 511 585 l 511 747 l 347 747 l 347 951 l 118 951 z m 169 -189 l 219 -189 l 165 -321 l 285 -321 l 346 -197 l 346 -50 l 169 -50 z "},"ŭ":{"ha":857,"x_min":0,"x_max":0,"o":"m 544 0 l 774 0 l 774 747 l 544 747 l 544 353 b 410 160 544 214 508 160 b 296 354 299 160 296 247 l 296 747 l 67 747 l 67 297 b 325 -18 67 94 126 -18 b 544 104 440 -18 499 31 z m 506 1007 b 419 951 500 978 471 951 b 335 1007 368 951 340 978 l 185 1007 b 418 839 192 924 264 839 b 656 1007 578 839 644 924 z "},"ű":{"ha":856,"x_min":0,"x_max":0,"o":"m 569 1007 l 310 1007 l 178 846 l 350 846 z m 881 1007 l 619 1007 l 489 846 l 661 846 z m 544 0 l 774 0 l 774 747 l 544 747 l 544 353 b 410 160 544 214 508 160 b 296 354 299 160 296 247 l 296 747 l 67 747 l 67 297 b 325 -18 67 94 126 -18 b 544 104 440 -18 499 31 z "},"ū":{"ha":857,"x_min":0,"x_max":0,"o":"m 544 0 l 774 0 l 774 747 l 544 747 l 544 353 b 410 160 544 214 508 160 b 296 354 299 160 296 247 l 296 747 l 67 747 l 67 297 b 325 -18 67 94 126 -18 b 544 104 440 -18 499 31 z m 638 860 l 638 1008 l 203 1008 l 203 860 z "},"ų":{"ha":857,"x_min":0,"x_max":0,"o":"m 544 0 l 774 0 l 774 747 l 544 747 l 544 353 b 410 160 544 214 508 160 b 296 354 299 160 296 247 l 296 747 l 67 747 l 67 297 b 325 -18 67 94 126 -18 b 544 104 440 -18 499 31 z m 546 0 b 450 -128 489 -32 450 -72 b 667 -261 450 -221 560 -261 b 774 -246 704 -261 740 -256 l 774 -132 b 707 -144 756 -137 729 -144 b 651 -94 675 -144 651 -132 b 774 0 651 -62 703 -35 z "},"ů":{"ha":857,"x_min":0,"x_max":0,"o":"m 544 0 l 774 0 l 774 747 l 544 747 l 544 353 b 410 160 544 214 508 160 b 296 354 299 160 296 247 l 296 747 l 67 747 l 67 297 b 325 -18 67 94 126 -18 b 544 104 440 -18 499 31 z m 421 1090 b 289 967 349 1090 289 1039 b 421 843 289 894 347 843 b 551 967 493 843 551 896 b 421 1090 551 1039 492 1090 z m 421 1024 b 478 967 453 1024 478 1000 b 421 911 478 935 453 911 b 364 967 389 911 364 935 b 421 1024 364 1000 389 1024 z "},"ũ":{"ha":857,"x_min":0,"x_max":0,"o":"m 544 0 l 774 0 l 774 747 l 544 747 l 544 353 b 410 160 544 214 508 160 b 296 354 299 160 296 247 l 296 747 l 67 747 l 67 297 b 325 -18 67 94 126 -18 b 544 104 440 -18 499 31 z m 517 961 b 331 1022 454 961 424 1022 b 142 846 224 1022 160 957 l 276 846 b 347 907 283 886 307 907 b 538 846 403 907 442 846 b 725 1022 638 846 704 906 l 590 1022 b 517 961 582 982 557 961 z "},"ụ":{"ha":857,"x_min":0,"x_max":0,"o":"m 544 0 l 774 0 l 774 747 l 544 747 l 544 353 b 410 160 544 214 508 160 b 296 354 299 160 296 247 l 296 747 l 67 747 l 67 297 b 325 -18 67 94 126 -18 b 544 104 440 -18 499 31 z m 317 -79 l 317 -243 l 522 -243 l 522 -79 z "},"ẃ":{"ha":1090,"x_min":0,"x_max":0,"o":"m 426 747 l 340 240 l 242 747 l 7 747 l 179 0 l 444 0 l 544 551 l 644 0 l 911 0 l 1083 747 l 849 747 l 750 240 l 663 747 z m 850 1007 l 590 1007 l 458 846 l 631 846 z "},"ŵ":{"ha":1090,"x_min":0,"x_max":0,"o":"m 426 747 l 340 240 l 242 747 l 7 747 l 179 0 l 444 0 l 544 551 l 644 0 l 911 0 l 1083 747 l 849 747 l 750 240 l 663 747 z m 653 1007 l 444 1007 l 249 846 l 460 846 l 547 910 l 633 846 l 842 846 z "},"ẅ":{"ha":1090,"x_min":0,"x_max":0,"o":"m 426 747 l 340 240 l 242 747 l 7 747 l 179 0 l 444 0 l 544 551 l 644 0 l 911 0 l 1083 747 l 849 747 l 750 240 l 663 747 z m 288 831 l 493 831 l 493 1007 l 288 1007 z m 599 1007 l 599 831 l 803 831 l 803 1007 z "},"ẁ":{"ha":1090,"x_min":0,"x_max":0,"o":"m 426 747 l 340 240 l 242 747 l 7 747 l 179 0 l 444 0 l 544 551 l 644 0 l 911 0 l 1083 747 l 849 747 l 750 240 l 663 747 z m 458 846 l 631 846 l 499 1007 l 239 1007 z "},"ŷ":{"ha":782,"x_min":0,"x_max":0,"o":"m 164 -243 b 489 0 358 -243 414 -190 l 782 747 l 536 747 l 389 279 l 251 747 l 0 747 l 279 4 l 272 -15 b 136 -78 250 -71 231 -78 l 90 -78 l 90 -243 z m 499 1007 l 290 1007 l 94 846 l 306 846 l 393 910 l 479 846 l 688 846 z "},"ỳ":{"ha":782,"x_min":0,"x_max":0,"o":"m 164 -243 b 489 0 358 -243 414 -190 l 782 747 l 536 747 l 389 279 l 251 747 l 0 747 l 279 4 l 272 -15 b 136 -78 250 -71 231 -78 l 90 -78 l 90 -243 z m 332 846 l 504 846 l 372 1007 l 113 1007 z "},"ȳ":{"ha":782,"x_min":0,"x_max":0,"o":"m 164 -243 b 489 0 358 -243 414 -190 l 782 747 l 536 747 l 389 279 l 251 747 l 0 747 l 279 4 l 272 -15 b 136 -78 250 -71 231 -78 l 90 -78 l 90 -243 z m 608 860 l 608 1008 l 174 1008 l 174 860 z "},"ź":{"ha":761,"x_min":0,"x_max":0,"o":"m 31 0 l 733 0 l 733 182 l 325 182 l 717 565 l 717 747 l 57 747 l 57 565 l 422 565 l 31 182 z m 660 1007 l 400 1007 l 268 846 l 440 846 z "},"ž":{"ha":761,"x_min":0,"x_max":0,"o":"m 31 0 l 733 0 l 733 182 l 325 182 l 717 565 l 717 747 l 57 747 l 57 565 l 422 565 l 31 182 z m 294 846 l 501 846 l 697 1007 l 486 1007 l 399 943 l 314 1007 l 104 1007 z "},"ż":{"ha":761,"x_min":0,"x_max":0,"o":"m 31 0 l 733 0 l 733 182 l 325 182 l 717 565 l 717 747 l 57 747 l 57 565 l 422 565 l 31 182 z m 293 1007 l 293 846 l 499 846 l 499 1007 z "},"ə":{"ha":854,"x_min":0,"x_max":0,"o":"m 247 517 b 415 592 274 561 328 592 b 586 436 499 592 579 542 l 33 436 b 418 -18 18 169 169 -18 b 818 374 636 -18 818 135 b 408 769 818 621 651 769 b 36 517 258 769 103 693 z m 418 157 b 261 297 331 157 265 203 l 585 297 b 418 157 574 199 499 157 z "},"А":{"ha":1007,"x_min":0,"x_max":0,"o":"m -7 0 l 246 0 l 306 179 l 694 179 l 756 0 l 1014 0 l 633 1007 l 372 1007 z m 501 756 l 631 372 l 371 372 z "},"Б":{"ha":978,"x_min":0,"x_max":0,"o":"m 338 807 l 881 807 l 881 1007 l 100 1007 l 100 0 l 543 0 b 950 324 788 0 950 85 b 556 632 950 563 788 632 l 338 632 z m 338 200 l 338 456 l 546 456 b 699 328 647 456 699 413 b 546 200 699 243 647 200 z "},"В":{"ha":1010,"x_min":0,"x_max":0,"o":"m 100 0 l 557 0 b 964 310 801 0 964 83 b 804 536 964 432 899 503 b 924 746 882 585 924 653 b 539 1007 924 957 760 1007 l 100 1007 z m 338 428 l 560 428 b 713 314 661 428 713 385 b 560 200 713 243 661 200 l 338 200 z m 338 807 l 547 807 b 676 707 631 807 676 769 b 547 604 676 644 631 604 l 338 604 z "},"Г":{"ha":821,"x_min":0,"x_max":0,"o":"m 814 1007 l 100 1007 l 100 0 l 338 0 l 338 799 l 814 799 z "},"Д":{"ha":1157,"x_min":0,"x_max":0,"o":"m 258 -201 l 258 0 l 892 0 l 892 -201 l 1115 -201 l 1115 210 l 983 210 l 983 1007 l 249 1007 l 235 654 b 92 210 224 379 210 210 l 35 210 l 35 -201 z m 365 210 b 465 590 428 292 456 417 l 475 797 l 746 797 l 746 210 z "},"Е":{"ha":929,"x_min":0,"x_max":0,"o":"m 100 0 l 872 0 l 872 210 l 338 210 l 338 413 l 843 413 l 843 622 l 338 622 l 338 799 l 872 799 l 872 1007 l 100 1007 z "},"Ё":{"ha":929,"x_min":0,"x_max":0,"o":"m 100 0 l 872 0 l 872 210 l 338 210 l 338 413 l 843 413 l 843 622 l 338 622 l 338 799 l 872 799 l 872 1007 l 100 1007 z m 236 1231 l 236 1074 l 440 1074 l 440 1231 z m 554 1231 l 554 1074 l 760 1074 l 760 1231 z "},"Ж":{"ha":1532,"x_min":0,"x_max":0,"o":"m 647 0 l 885 0 l 885 503 l 886 503 l 1215 0 l 1489 0 l 1144 531 l 1474 1007 l 1208 1007 l 886 528 l 885 528 l 885 1007 l 647 1007 l 647 528 l 646 528 l 326 1007 l 53 1007 l 388 531 l 43 0 l 317 0 l 646 503 l 647 503 z "},"З":{"ha":938,"x_min":0,"x_max":0,"o":"m 729 536 b 863 750 814 582 863 639 b 494 1024 863 921 711 1024 b 64 671 232 1024 86 871 l 297 671 b 486 828 301 771 385 828 b 628 713 560 828 628 793 b 472 604 628 644 563 604 l 365 604 l 365 428 l 485 428 b 638 313 586 428 638 385 b 486 182 638 229 588 182 b 296 344 379 182 307 233 l 63 344 b 508 -18 81 133 214 -18 b 889 300 690 -18 889 74 b 729 536 889 432 835 494 z "},"И":{"ha":1086,"x_min":0,"x_max":0,"o":"m 100 0 l 329 0 l 757 653 l 757 0 l 986 0 l 986 1007 l 757 1007 l 329 354 l 329 1007 l 100 1007 z "},"Й":{"ha":1100,"x_min":0,"x_max":0,"o":"m 100 0 l 329 0 l 757 653 l 757 0 l 986 0 l 986 1007 l 757 1007 l 329 354 l 329 1007 l 100 1007 z m 678 1231 b 560 1151 671 1181 628 1151 b 454 1231 494 1151 461 1181 l 285 1231 b 561 1051 294 1115 393 1051 b 846 1231 735 1051 835 1115 z "},"К":{"ha":1011,"x_min":0,"x_max":0,"o":"m 685 0 l 968 0 l 589 536 l 953 1007 l 678 1007 l 339 542 l 338 542 l 338 1007 l 100 1007 l 100 0 l 338 0 l 338 488 l 339 488 z "},"Л":{"ha":1018,"x_min":0,"x_max":0,"o":"m 918 0 l 918 1007 l 211 1007 l 201 668 b 51 210 194 435 181 210 l 21 210 l 21 0 l 92 0 b 428 590 346 0 417 279 l 436 797 l 681 797 l 681 0 z "},"М":{"ha":1336,"x_min":0,"x_max":0,"o":"m 781 0 l 1006 807 l 1006 0 l 1236 0 l 1236 1007 l 865 1007 l 668 285 l 475 1007 l 100 1007 l 100 0 l 331 0 l 331 806 l 557 0 z "},"Н":{"ha":1089,"x_min":0,"x_max":0,"o":"m 751 1007 l 751 622 l 338 622 l 338 1007 l 100 1007 l 100 0 l 338 0 l 338 413 l 751 413 l 751 0 l 989 0 l 989 1007 z "},"О":{"ha":1106,"x_min":0,"x_max":0,"o":"m 282 503 b 553 828 282 717 404 828 b 824 503 701 828 824 717 b 553 178 824 289 701 178 b 282 503 404 178 282 289 z m 1075 503 b 553 1024 1075 817 861 1024 b 31 503 243 1024 31 817 b 553 -18 31 189 243 -18 b 1075 503 861 -18 1075 189 z "},"П":{"ha":1061,"x_min":0,"x_max":0,"o":"m 961 0 l 961 1007 l 100 1007 l 100 0 l 338 0 l 338 797 l 724 797 l 724 0 z "},"Р":{"ha":949,"x_min":0,"x_max":0,"o":"m 100 1007 l 100 0 l 338 0 l 338 349 l 488 349 b 944 679 749 349 944 414 b 488 1007 944 943 749 1007 z m 494 807 b 693 679 606 807 693 785 b 494 549 693 574 606 549 l 338 549 l 338 807 z "},"С":{"ha":1042,"x_min":0,"x_max":0,"o":"m 781 375 b 536 178 750 222 640 178 b 282 504 392 178 282 292 b 533 828 282 710 393 828 b 774 631 646 828 747 768 l 1007 631 b 542 1024 974 860 793 1024 b 31 504 226 1024 31 822 b 535 -18 31 182 221 -18 b 1014 375 789 -18 976 142 z "},"Т":{"ha":899,"x_min":0,"x_max":0,"o":"m 329 0 l 568 0 l 568 799 l 892 799 l 892 1007 l 7 1007 l 7 799 l 329 799 z "},"У":{"ha":911,"x_min":0,"x_max":0,"o":"m 240 -18 b 553 172 397 -18 492 39 l 925 1007 l 667 1007 l 469 504 l 243 1007 l -14 1007 l 356 256 l 326 217 b 247 193 310 197 276 193 l 128 193 l 128 -18 z "},"Ф":{"ha":1188,"x_min":0,"x_max":0,"o":"m 715 1063 l 474 1063 l 474 943 b 35 517 194 917 35 758 b 474 76 35 261 194 103 l 474 -46 l 715 -46 l 715 76 b 1153 503 993 103 1153 263 b 715 943 1153 758 994 917 z m 474 261 b 265 510 346 285 265 365 b 474 758 265 654 346 735 z m 715 758 b 922 510 843 732 922 654 b 715 261 922 365 843 288 z "},"Х":{"ha":1003,"x_min":0,"x_max":0,"o":"m -15 0 l 258 0 l 499 326 l 739 0 l 1018 0 l 639 517 l 1001 1007 l 726 1007 l 503 703 l 281 1007 l 1 1007 l 363 513 z "},"Ц":{"ha":1113,"x_min":0,"x_max":0,"o":"m 1071 210 l 940 210 l 940 1007 l 703 1007 l 703 210 l 338 210 l 338 1007 l 100 1007 l 100 0 l 847 0 l 847 -201 l 1071 -201 z "},"Ч":{"ha":976,"x_min":0,"x_max":0,"o":"m 876 1007 l 639 1007 l 639 550 b 469 532 590 538 518 532 b 300 726 325 532 300 581 l 300 1007 l 63 1007 l 63 663 b 396 328 63 444 175 328 b 639 358 481 328 568 343 l 639 0 l 876 0 z "},"Ш":{"ha":1435,"x_min":0,"x_max":0,"o":"m 1335 0 l 1335 1007 l 1097 1007 l 1097 210 l 836 210 l 836 1007 l 599 1007 l 599 210 l 338 210 l 338 1007 l 100 1007 l 100 0 z "},"Щ":{"ha":1507,"x_min":0,"x_max":0,"o":"m 1465 210 l 1335 210 l 1335 1007 l 1097 1007 l 1097 210 l 836 210 l 836 1007 l 599 1007 l 599 210 l 338 210 l 338 1007 l 100 1007 l 100 0 l 1242 0 l 1242 -201 l 1465 -201 z "},"Ъ":{"ha":1114,"x_min":0,"x_max":0,"o":"m 493 672 l 493 1007 l 14 1007 l 14 799 l 256 799 l 256 0 l 608 0 b 1065 335 869 0 1065 63 b 608 672 1065 607 869 672 z m 493 200 l 493 472 l 615 472 b 814 335 726 472 814 449 b 615 200 814 224 726 200 z "},"Ы":{"ha":1332,"x_min":0,"x_max":0,"o":"m 432 0 b 889 335 693 0 889 63 b 432 672 889 607 693 672 l 338 672 l 338 1007 l 100 1007 l 100 0 z m 338 472 l 439 472 b 638 335 550 472 638 449 b 439 200 638 224 550 200 l 338 200 z m 1246 0 l 1246 1007 l 1008 1007 l 1008 0 z "},"Ь":{"ha":979,"x_min":0,"x_max":0,"o":"m 100 0 l 474 0 b 931 335 735 0 931 63 b 474 672 931 607 735 672 l 338 672 l 338 1007 l 100 1007 z m 338 200 l 338 472 l 481 472 b 679 335 592 472 679 449 b 481 200 679 224 592 200 z "},"Э":{"ha":1067,"x_min":0,"x_max":0,"o":"m 53 375 b 532 -18 90 142 278 -18 b 1036 504 846 -18 1036 182 b 525 1024 1036 822 840 1024 b 60 631 274 1024 93 860 l 293 631 b 533 828 319 768 421 828 b 776 594 653 828 750 744 l 410 594 l 410 413 l 778 413 b 531 178 750 258 653 178 b 286 375 429 178 313 222 z "},"Ю":{"ha":1549,"x_min":0,"x_max":0,"o":"m 996 1024 b 504 622 728 1024 549 867 l 338 622 l 338 1007 l 100 1007 l 100 0 l 338 0 l 338 413 l 500 413 b 996 -18 533 151 717 -18 b 1518 503 1304 -18 1518 189 b 996 1024 1518 817 1304 1024 z m 996 178 b 746 503 847 178 746 289 b 996 828 746 717 847 828 b 1267 503 1144 828 1267 717 b 996 178 1267 289 1144 178 z "},"Я":{"ha":1036,"x_min":0,"x_max":0,"o":"m 936 1007 l 576 1007 b 119 682 315 1007 119 919 b 308 411 119 542 197 461 l 47 0 l 314 0 l 525 335 l 699 335 l 699 0 l 936 0 z m 699 807 l 699 535 l 563 535 b 371 674 442 535 371 569 b 563 807 371 774 440 807 z "},"Ђ":{"ha":1136,"x_min":0,"x_max":0,"o":"m 526 417 b 714 449 592 438 643 449 b 851 317 808 449 851 404 b 729 183 851 224 801 183 b 633 193 703 183 663 188 l 613 4 b 746 -14 657 -6 697 -14 b 1074 319 913 -14 1074 74 b 768 622 1074 510 974 622 b 526 589 672 622 600 607 l 526 799 l 864 799 l 864 1007 l 7 1007 l 7 799 l 288 799 l 288 0 l 526 0 z "},"Ѓ":{"ha":821,"x_min":0,"x_max":0,"o":"m 814 1007 l 100 1007 l 100 0 l 338 0 l 338 799 l 814 799 z m 747 1231 l 467 1231 l 324 1074 l 526 1074 z "},"Є":{"ha":1042,"x_min":0,"x_max":0,"o":"m 781 375 b 536 178 750 222 640 178 b 289 413 414 178 317 258 l 657 413 l 657 594 l 290 594 b 533 828 317 744 414 828 b 774 631 646 828 747 768 l 1007 631 b 542 1024 974 860 793 1024 b 31 504 226 1024 31 822 b 535 -18 31 182 221 -18 b 1014 375 789 -18 976 142 z "},"Ѕ":{"ha":935,"x_min":0,"x_max":0,"o":"m 878 715 b 458 1024 844 938 654 1024 b 40 722 261 1024 40 928 b 353 429 40 542 189 463 l 475 404 b 663 283 586 381 663 349 b 490 174 663 200 572 174 b 257 328 367 174 283 222 l 21 328 b 485 -18 58 110 225 -18 b 907 313 694 -18 907 101 b 539 607 907 524 701 574 l 401 635 b 285 736 331 650 285 686 b 444 833 285 799 351 833 b 643 715 546 833 619 792 z "},"І":{"ha":426,"x_min":0,"x_max":0,"o":"m 332 1007 l 94 1007 l 94 0 l 332 0 z "},"Ї":{"ha":419,"x_min":0,"x_max":0,"o":"m 329 1007 l 92 1007 l 92 0 l 329 0 z m -50 1231 l -50 1074 l 154 1074 l 154 1231 z m 268 1231 l 268 1074 l 474 1074 l 474 1231 z "},"Ј":{"ha":890,"x_min":0,"x_max":0,"o":"m 564 385 b 408 171 564 224 508 171 b 253 385 307 171 257 224 l 15 385 b 408 -18 22 150 147 -18 b 801 385 665 -18 801 135 l 801 1007 l 564 1007 z "},"Љ":{"ha":1504,"x_min":0,"x_max":0,"o":"m 918 672 l 918 1007 l 211 1007 l 201 668 b 51 210 194 435 181 210 l 21 210 l 21 0 l 92 0 b 428 590 346 0 417 279 l 436 797 l 681 797 l 681 0 l 999 0 b 1456 335 1260 0 1456 63 b 999 672 1456 607 1260 672 z m 918 200 l 918 472 l 1006 472 b 1204 335 1117 472 1204 449 b 1006 200 1204 224 1117 200 z "},"Њ":{"ha":1575,"x_min":0,"x_max":0,"o":"m 989 672 l 989 1007 l 751 1007 l 751 622 l 338 622 l 338 1007 l 100 1007 l 100 0 l 338 0 l 338 413 l 751 413 l 751 0 l 1069 0 b 1526 335 1331 0 1526 63 b 1069 672 1526 607 1331 672 z m 989 200 l 989 472 l 1076 472 b 1275 335 1188 472 1275 449 b 1076 200 1275 224 1188 200 z "},"Ћ":{"ha":1144,"x_min":0,"x_max":0,"o":"m 768 622 b 526 583 672 622 610 606 l 526 799 l 864 799 l 864 1007 l 7 1007 l 7 799 l 288 799 l 288 0 l 526 0 l 526 396 b 689 419 575 408 618 419 b 844 225 811 419 844 360 l 844 0 l 1082 0 l 1082 303 b 768 622 1082 521 989 622 z "},"Ќ":{"ha":1011,"x_min":0,"x_max":0,"o":"m 685 0 l 968 0 l 589 536 l 953 1007 l 678 1007 l 339 542 l 338 542 l 338 1007 l 100 1007 l 100 0 l 338 0 l 338 488 l 339 488 z m 783 1231 l 503 1231 l 360 1074 l 563 1074 z "},"Ў":{"ha":911,"x_min":0,"x_max":0,"o":"m 240 -18 b 553 172 397 -18 492 39 l 925 1007 l 667 1007 l 469 504 l 243 1007 l -14 1007 l 356 256 l 326 217 b 247 193 310 197 276 193 l 128 193 l 128 -18 z m 613 1231 b 494 1151 606 1181 563 1151 b 389 1231 429 1151 396 1181 l 219 1231 b 496 1051 229 1115 328 1051 b 781 1231 669 1051 769 1115 z "},"Џ":{"ha":1040,"x_min":0,"x_max":0,"o":"m 631 0 l 940 0 l 940 1007 l 703 1007 l 703 210 l 338 210 l 338 1007 l 100 1007 l 100 0 l 407 0 l 407 -201 l 631 -201 z "},"Ґ":{"ha":821,"x_min":0,"x_max":0,"o":"m 814 797 l 814 1208 l 590 1208 l 590 1007 l 100 1007 l 100 0 l 338 0 l 338 797 z "},"Ѣ":{"ha":1094,"x_min":0,"x_max":0,"o":"m 467 610 l 467 726 l 732 726 l 732 900 l 467 900 l 467 1007 l 229 1007 l 229 900 l 38 900 l 38 726 l 229 726 l 229 0 l 589 0 b 1046 314 850 0 1046 64 b 589 610 1046 543 850 610 z m 467 200 l 467 422 l 596 422 b 794 311 719 422 794 399 b 596 200 794 222 722 200 z "},"Ѳ":{"ha":1106,"x_min":0,"x_max":0,"o":"m 553 1024 b 31 503 243 1024 31 817 b 553 -18 31 189 243 -18 b 1075 503 861 -18 1075 189 b 553 1024 1075 817 861 1024 z m 553 828 b 814 600 676 828 781 750 l 292 600 b 553 828 325 750 428 828 z m 553 178 b 286 440 419 178 308 267 l 819 440 b 553 178 797 267 686 178 z "},"Ѵ":{"ha":1054,"x_min":0,"x_max":0,"o":"m 478 267 l 246 1007 l -7 1007 l 332 0 l 601 0 l 835 668 b 992 811 868 767 900 811 l 1019 811 l 1019 1007 l 936 1007 b 619 715 758 1007 671 885 z "},"Ғ":{"ha":854,"x_min":0,"x_max":0,"o":"m 371 799 l 847 799 l 847 1007 l 133 1007 l 133 621 l 14 621 l 14 447 l 133 447 l 133 0 l 371 0 l 371 447 l 613 447 l 613 621 l 371 621 z "},"Җ":{"ha":1528,"x_min":0,"x_max":0,"o":"m 1507 210 l 1351 210 l 1144 531 l 1474 1007 l 1208 1007 l 886 528 l 885 528 l 885 1007 l 647 1007 l 647 528 l 646 528 l 326 1007 l 53 1007 l 388 531 l 43 0 l 317 0 l 646 503 l 647 503 l 647 0 l 885 0 l 885 503 l 886 503 l 1215 0 l 1283 0 l 1283 -201 l 1507 -201 z "},"Қ":{"ha":1003,"x_min":0,"x_max":0,"o":"m 982 210 l 819 210 l 589 536 l 953 1007 l 678 1007 l 339 542 l 338 542 l 338 1007 l 100 1007 l 100 0 l 338 0 l 338 488 l 339 488 l 685 0 l 758 0 l 758 -201 l 982 -201 z "},"Ң":{"ha":1163,"x_min":0,"x_max":0,"o":"m 1142 210 l 989 210 l 989 1007 l 751 1007 l 751 622 l 338 622 l 338 1007 l 100 1007 l 100 0 l 338 0 l 338 413 l 751 413 l 751 0 l 918 0 l 918 -201 l 1142 -201 z "},"Ү":{"ha":961,"x_min":0,"x_max":0,"o":"m -22 1007 l 357 392 l 357 0 l 594 0 l 594 389 l 983 1007 l 708 1007 l 481 621 l 256 1007 z "},"Ұ":{"ha":961,"x_min":0,"x_max":0,"o":"m 622 433 l 983 1007 l 708 1007 l 481 601 l 256 1007 l -22 1007 l 332 433 l 143 433 l 143 322 l 357 322 l 357 0 l 594 0 l 594 322 l 814 322 l 814 433 z "},"Ҳ":{"ha":1061,"x_min":0,"x_max":0,"o":"m 1040 210 l 864 210 l 640 517 l 1001 1007 l 726 1007 l 503 703 l 281 1007 l 1 1007 l 363 514 l -15 0 l 258 0 l 500 326 l 739 0 l 817 0 l 817 -201 l 1040 -201 z "},"Ҷ":{"ha":1092,"x_min":0,"x_max":0,"o":"m 1050 210 l 890 210 l 890 1007 l 653 1007 l 653 550 b 483 532 604 538 532 532 b 300 726 339 532 300 581 l 300 1007 l 63 1007 l 63 663 b 396 328 63 444 175 328 b 653 358 481 328 582 343 l 653 0 l 826 0 l 826 -201 l 1050 -201 z "},"Һ":{"ha":990,"x_min":0,"x_max":0,"o":"m 594 679 b 338 649 510 679 408 664 l 338 1007 l 100 1007 l 100 0 l 338 0 l 338 457 b 507 475 386 469 458 475 b 690 281 651 475 690 426 l 690 0 l 928 0 l 928 344 b 594 679 928 563 815 679 z "},"Ӏ":{"ha":438,"x_min":0,"x_max":0,"o":"m 338 1007 l 100 1007 l 100 0 l 338 0 z "},"Ә":{"ha":1024,"x_min":0,"x_max":0,"o":"m 500 1024 b 39 688 267 1024 92 893 l 275 688 b 504 828 313 781 393 828 b 733 582 604 828 707 743 l 29 582 b 511 -18 7 194 194 -18 b 993 504 794 -18 993 182 b 500 1024 993 822 796 1024 z m 488 178 b 267 413 372 178 285 256 l 735 413 b 488 178 707 258 621 178 z "},"Ӣ":{"ha":1100,"x_min":0,"x_max":0,"o":"m 100 0 l 329 0 l 757 653 l 757 0 l 986 0 l 986 1007 l 757 1007 l 329 354 l 329 1007 l 100 1007 z m 779 1101 l 779 1233 l 314 1233 l 314 1101 z "},"Ө":{"ha":1106,"x_min":0,"x_max":0,"o":"m 553 1024 b 31 503 243 1024 31 817 b 553 -18 31 189 243 -18 b 1075 503 861 -18 1075 189 b 553 1024 1075 817 861 1024 z m 553 828 b 814 600 676 828 781 750 l 292 600 b 553 828 325 750 428 828 z m 553 178 b 286 440 419 178 308 267 l 819 440 b 553 178 797 267 686 178 z "},"Ӯ":{"ha":911,"x_min":0,"x_max":0,"o":"m 240 -18 b 553 172 397 -18 492 39 l 925 1007 l 667 1007 l 469 504 l 243 1007 l -14 1007 l 356 256 l 326 217 b 247 193 310 197 276 193 l 128 193 l 128 -18 z m 718 1101 l 718 1233 l 253 1233 l 253 1101 z "},"а":{"ha":829,"x_min":0,"x_max":0,"o":"m 539 467 b 42 201 249 444 42 385 b 300 -18 42 65 158 -18 b 551 90 407 -18 496 11 l 554 0 l 779 0 b 763 217 768 47 763 135 l 763 294 l 765 457 b 432 771 769 683 647 771 b 65 506 210 771 76 646 l 279 506 b 413 615 289 578 339 615 b 539 496 496 615 539 585 z m 544 314 b 383 138 544 176 475 138 b 278 218 324 138 278 169 b 544 332 278 299 385 317 z "},"б":{"ha":849,"x_min":0,"x_max":0,"o":"m 474 701 b 222 586 375 701 282 665 b 493 801 258 744 351 786 l 738 826 l 738 1032 b 489 1010 676 1028 611 1021 b 51 476 150 981 58 749 l 51 443 b 429 -18 51 128 222 -18 b 811 349 622 -18 811 104 b 474 701 811 578 651 701 z m 429 160 b 281 349 350 160 281 226 b 429 542 281 485 353 542 b 578 349 506 542 578 485 b 429 160 578 219 508 160 z "},"в":{"ha":883,"x_min":0,"x_max":0,"o":"m 90 747 l 90 0 l 517 0 b 821 233 699 0 821 65 b 701 401 821 326 772 378 b 790 551 758 431 790 483 b 503 747 790 708 669 747 z m 319 446 l 319 593 l 474 593 b 569 522 535 593 569 565 b 474 446 569 476 535 446 z m 319 319 l 483 319 b 597 236 560 319 597 290 b 483 154 597 188 560 154 l 319 154 z "},"г":{"ha":665,"x_min":0,"x_max":0,"o":"m 651 585 l 651 747 l 90 747 l 90 0 l 319 0 l 319 585 z "},"д":{"ha":969,"x_min":0,"x_max":0,"o":"m 246 -171 l 246 0 l 717 0 l 717 -171 l 935 -171 l 935 163 l 814 163 l 814 747 l 201 747 l 189 486 b 64 163 178 225 140 163 l 28 163 l 28 -171 z m 308 163 b 401 444 371 219 394 322 l 410 585 l 585 585 l 585 163 z "},"е":{"ha":861,"x_min":0,"x_max":0,"o":"m 608 235 b 440 160 582 190 528 160 b 268 315 357 160 275 210 l 822 315 b 438 769 838 582 686 769 b 38 378 219 769 38 617 b 447 -18 38 129 204 -18 b 819 235 596 -18 753 58 z m 438 594 b 594 454 525 594 590 549 l 271 454 b 438 594 283 553 356 594 z "},"ё":{"ha":861,"x_min":0,"x_max":0,"o":"m 608 235 b 440 160 582 190 528 160 b 268 315 357 160 275 210 l 822 315 b 438 769 838 582 686 769 b 38 378 219 769 38 617 b 447 -18 38 129 204 -18 b 819 235 596 -18 753 58 z m 438 594 b 594 454 525 594 590 549 l 271 454 b 438 594 283 553 356 594 z m 172 831 l 378 831 l 378 1007 l 172 1007 z m 483 1007 l 483 831 l 688 831 l 688 1007 z "},"ж":{"ha":1290,"x_min":0,"x_max":0,"o":"m 988 407 l 1250 747 l 1000 747 l 758 396 l 757 396 l 757 747 l 528 747 l 528 396 l 526 396 l 288 747 l 33 747 l 296 396 l 15 0 l 278 0 l 526 383 l 528 383 l 528 0 l 757 0 l 757 383 l 758 383 l 1007 0 l 1275 0 z "},"з":{"ha":810,"x_min":0,"x_max":0,"o":"m 646 401 b 739 550 703 431 739 483 b 414 769 739 710 574 769 b 49 486 231 769 78 686 l 258 486 b 404 603 268 560 322 601 b 519 521 488 604 519 565 b 418 446 519 476 479 446 l 311 446 l 311 319 l 428 319 b 542 239 504 319 542 293 b 415 153 542 183 494 153 b 249 267 310 153 253 201 l 39 267 b 406 -18 72 50 226 -18 b 765 229 613 -18 765 58 b 646 401 765 325 717 378 z "},"и":{"ha":931,"x_min":0,"x_max":0,"o":"m 840 747 l 618 747 l 315 304 l 315 747 l 90 747 l 90 0 l 313 0 l 615 438 l 615 0 l 840 0 z "},"й":{"ha":907,"x_min":0,"x_max":0,"o":"m 840 747 l 618 747 l 315 304 l 315 747 l 90 747 l 90 0 l 313 0 l 615 438 l 615 0 l 840 0 z m 465 839 b 713 1007 633 839 701 924 l 563 1007 b 467 951 557 978 528 951 b 372 1007 406 951 378 978 l 222 1007 b 465 839 229 924 303 839 z "},"к":{"ha":863,"x_min":0,"x_max":0,"o":"m 582 0 l 847 0 l 554 397 l 832 747 l 581 747 l 321 396 l 319 396 l 319 747 l 90 747 l 90 0 l 319 0 l 319 385 l 321 385 z "},"л":{"ha":879,"x_min":0,"x_max":0,"o":"m 789 747 l 186 747 l 174 514 b 49 163 158 224 125 163 l 28 163 l 28 0 l 71 0 b 390 514 282 0 368 131 l 394 585 l 560 585 l 560 0 l 789 0 z "},"м":{"ha":1150,"x_min":0,"x_max":0,"o":"m 1060 747 l 750 747 l 582 254 l 404 747 l 90 747 l 90 0 l 306 0 l 306 547 l 503 0 l 646 0 l 844 549 l 844 0 l 1060 0 z "},"н":{"ha":914,"x_min":0,"x_max":0,"o":"m 824 0 l 824 747 l 594 747 l 594 464 l 319 464 l 319 747 l 90 747 l 90 0 l 319 0 l 319 301 l 594 301 l 594 0 z "},"о":{"ha":867,"x_min":0,"x_max":0,"o":"m 433 592 b 596 376 524 592 596 536 b 433 160 596 219 526 160 b 271 376 340 160 271 219 b 433 592 271 536 343 592 z m 433 769 b 38 376 226 769 38 647 b 433 -18 38 106 226 -18 b 829 376 640 -18 829 106 b 433 769 829 647 640 769 z "},"п":{"ha":879,"x_min":0,"x_max":0,"o":"m 789 747 l 90 747 l 90 0 l 319 0 l 319 585 l 560 585 l 560 0 l 789 0 z "},"р":{"ha":911,"x_min":0,"x_max":0,"o":"m 319 747 l 90 747 l 90 -243 l 319 -243 l 319 100 b 549 -18 368 18 468 -18 b 878 374 742 -18 878 129 b 549 764 878 618 742 764 b 319 646 468 764 368 728 z m 474 586 b 640 374 565 586 640 513 b 474 160 640 235 565 160 b 308 374 383 160 308 219 b 474 586 308 528 383 586 z "},"с":{"ha":828,"x_min":0,"x_max":0,"o":"m 419 769 b 38 378 193 769 38 615 b 419 -18 38 140 174 -18 b 800 275 569 -18 749 53 l 586 275 b 433 160 569 204 518 160 b 271 376 351 160 271 214 b 433 592 271 536 351 592 b 576 474 501 592 556 561 l 790 474 b 419 769 746 699 575 769 z "},"т":{"ha":754,"x_min":0,"x_max":0,"o":"m 733 585 l 733 747 l 21 747 l 21 585 l 263 585 l 263 0 l 492 0 l 492 585 z "},"у":{"ha":782,"x_min":0,"x_max":0,"o":"m 164 -243 b 489 0 358 -243 414 -190 l 782 747 l 536 747 l 389 279 l 251 747 l 0 747 l 279 4 l 272 -15 b 136 -78 250 -71 231 -78 l 90 -78 l 90 -243 z "},"ф":{"ha":1103,"x_min":0,"x_max":0,"o":"m 663 1007 l 440 1007 l 440 747 b 42 369 238 747 42 632 b 440 -11 42 92 238 -11 l 440 -243 l 663 -243 l 663 -11 b 1061 369 865 -11 1061 92 b 663 747 1061 632 865 747 z m 440 160 b 261 361 344 160 261 199 b 440 576 261 526 346 576 z m 663 576 b 842 361 757 576 842 526 b 663 160 842 199 758 160 z "},"х":{"ha":824,"x_min":0,"x_max":0,"o":"m 813 747 l 574 747 l 419 546 l 271 747 l 11 747 l 288 374 l 0 0 l 243 0 l 406 214 l 565 0 l 824 0 l 538 386 z "},"ц":{"ha":944,"x_min":0,"x_max":0,"o":"m 789 163 l 789 747 l 560 747 l 560 163 l 319 163 l 319 747 l 90 747 l 90 0 l 692 0 l 692 -171 l 910 -171 l 910 163 z "},"ч":{"ha":815,"x_min":0,"x_max":0,"o":"m 725 0 l 725 747 l 496 747 l 496 422 b 401 408 458 413 433 408 b 278 519 314 408 278 454 l 278 747 l 49 747 l 49 482 b 307 240 49 315 144 240 b 496 267 378 240 425 249 l 496 0 z "},"ш":{"ha":1238,"x_min":0,"x_max":0,"o":"m 1147 747 l 918 747 l 918 163 l 733 163 l 733 747 l 504 747 l 504 163 l 319 163 l 319 747 l 90 747 l 90 0 l 1147 0 z "},"щ":{"ha":1303,"x_min":0,"x_max":0,"o":"m 1268 163 l 1147 163 l 1147 747 l 918 747 l 918 163 l 733 163 l 733 747 l 504 747 l 504 163 l 319 163 l 319 747 l 90 747 l 90 0 l 1050 0 l 1050 -171 l 1268 -171 z "},"ъ":{"ha":901,"x_min":0,"x_max":0,"o":"m 426 515 l 426 747 l 21 747 l 21 585 l 207 585 l 207 0 l 563 0 b 867 261 772 0 867 65 b 551 515 867 435 774 515 z m 426 154 l 426 361 l 539 361 b 653 264 615 361 653 329 b 539 154 653 186 615 154 z "},"ы":{"ha":1156,"x_min":0,"x_max":0,"o":"m 435 0 b 739 261 644 0 739 65 b 424 515 739 435 646 515 l 321 515 l 321 747 l 90 747 l 90 0 z m 321 361 l 411 361 b 525 264 488 361 525 329 b 411 154 525 186 488 154 l 321 154 z m 1065 0 l 1065 747 l 835 747 l 835 0 z "},"ь":{"ha":818,"x_min":0,"x_max":0,"o":"m 319 515 l 319 747 l 90 747 l 90 0 l 479 0 b 783 261 689 0 783 65 b 468 515 783 435 690 515 z m 319 154 l 319 361 l 456 361 b 569 264 532 361 569 329 b 456 154 569 186 532 154 z "},"э":{"ha":839,"x_min":0,"x_max":0,"o":"m 39 271 b 419 -22 90 49 269 -22 b 801 374 665 -22 801 136 b 419 765 801 611 646 765 b 49 469 264 765 93 694 l 263 469 b 406 588 283 557 338 588 b 561 444 474 588 540 549 l 317 444 l 317 296 l 561 296 b 406 156 539 192 472 156 b 253 271 321 156 269 200 z "},"ю":{"ha":1251,"x_min":0,"x_max":0,"o":"m 818 769 b 454 483 653 769 494 678 l 319 483 l 319 747 l 90 747 l 90 0 l 319 0 l 319 321 l 446 321 b 818 -18 468 88 640 -18 b 1214 376 1025 -18 1214 106 b 818 769 1214 647 1025 769 z m 818 160 b 676 376 740 160 676 219 b 818 592 676 536 744 592 b 981 376 908 592 981 536 b 818 160 981 219 911 160 z "},"я":{"ha":861,"x_min":0,"x_max":0,"o":"m 771 747 l 379 747 b 79 504 169 747 79 654 b 224 299 79 399 146 336 l 35 0 l 279 0 l 421 232 l 540 232 l 540 0 l 771 0 z m 540 593 l 540 386 l 407 386 b 293 488 331 386 293 428 b 407 593 293 550 331 593 z "},"ђ":{"ha":871,"x_min":0,"x_max":0,"o":"m 822 240 b 578 556 822 443 771 556 b 353 440 468 556 386 496 l 353 640 l 581 640 l 581 803 l 353 803 l 353 1007 l 124 1007 l 124 803 l 14 803 l 14 640 l 124 640 l 124 0 l 353 0 l 353 175 b 486 378 353 310 397 378 b 593 183 594 378 593 290 l 593 3 b 517 -78 593 -60 582 -78 l 490 -78 l 490 -243 l 575 -243 b 822 -6 747 -243 822 -196 z "},"ѓ":{"ha":665,"x_min":0,"x_max":0,"o":"m 696 1007 l 436 1007 l 304 846 l 476 846 z m 651 585 l 651 747 l 90 747 l 90 0 l 319 0 l 319 585 z "},"є":{"ha":828,"x_min":0,"x_max":0,"o":"m 586 275 b 433 160 569 204 518 160 b 279 296 368 160 301 196 l 521 296 l 521 444 l 276 444 b 433 592 297 551 363 592 b 576 474 501 592 556 561 l 790 474 b 419 769 746 699 575 769 b 38 378 193 769 38 615 b 419 -18 38 140 174 -18 b 800 275 569 -18 749 53 z "},"ѕ":{"ha":808,"x_min":0,"x_max":0,"o":"m 756 528 b 401 767 726 699 572 767 b 60 536 217 767 60 685 b 303 307 60 403 158 331 l 436 285 b 553 215 524 269 553 249 b 414 149 553 171 496 149 b 257 243 335 149 278 171 l 44 243 b 411 -18 71 68 214 -18 b 772 235 618 -18 772 67 b 507 453 772 367 686 419 l 368 478 b 276 544 303 490 276 510 b 396 600 276 582 317 600 b 542 528 468 600 526 583 z "},"і":{"ha":394,"x_min":0,"x_max":0,"o":"m 82 1007 l 82 824 l 311 824 l 311 1007 z m 82 747 l 82 0 l 313 0 l 313 747 z "},"ї":{"ha":394,"x_min":0,"x_max":0,"o":"m 82 747 l 82 0 l 313 0 l 313 747 z m -58 831 l 147 831 l 147 1007 l -58 1007 z m 253 1007 l 253 831 l 457 831 l 457 1007 z "},"ј":{"ha":393,"x_min":0,"x_max":0,"o":"m 82 3 b 6 -78 82 -60 71 -78 l -21 -78 l -21 -243 l 64 -243 b 311 -6 236 -243 311 -196 l 311 747 l 82 747 z m 82 1007 l 82 824 l 311 824 l 311 1007 z "},"љ":{"ha":1253,"x_min":0,"x_max":0,"o":"m 782 515 l 782 747 l 186 747 l 174 514 b 49 163 158 224 118 163 l 28 163 l 28 0 l 71 0 b 390 514 282 0 368 131 l 394 585 l 553 585 l 553 0 l 914 0 b 1218 261 1124 0 1218 65 b 903 515 1218 435 1125 515 z m 782 154 l 782 361 l 890 361 b 1004 264 967 361 1004 329 b 890 154 1004 186 967 154 z "},"њ":{"ha":1249,"x_min":0,"x_max":0,"o":"m 789 488 l 789 747 l 560 747 l 560 464 l 319 464 l 319 747 l 90 747 l 90 0 l 319 0 l 319 301 l 560 301 l 560 0 l 910 0 b 1214 247 1119 0 1214 65 b 899 488 1214 408 1121 488 z m 789 154 l 789 333 l 886 333 b 1000 250 963 333 1000 304 b 886 154 1000 186 963 154 z "},"ћ":{"ha":878,"x_min":0,"x_max":0,"o":"m 571 556 b 353 440 460 556 386 496 l 353 640 l 581 640 l 581 803 l 353 803 l 353 1007 l 124 1007 l 124 803 l 14 803 l 14 640 l 124 640 l 124 0 l 353 0 l 353 175 b 479 378 353 314 390 378 b 593 183 590 378 593 290 l 593 0 l 822 0 l 822 240 b 571 556 822 443 763 556 z "},"ќ":{"ha":863,"x_min":0,"x_max":0,"o":"m 582 0 l 847 0 l 554 397 l 832 747 l 581 747 l 321 396 l 319 396 l 319 747 l 90 747 l 90 0 l 319 0 l 319 385 l 321 385 z m 715 1007 l 456 1007 l 324 846 l 496 846 z "},"ў":{"ha":782,"x_min":0,"x_max":0,"o":"m 164 -243 b 489 0 358 -243 414 -190 l 782 747 l 536 747 l 389 279 l 251 747 l 0 747 l 279 4 l 272 -15 b 136 -78 250 -71 231 -78 l 90 -78 l 90 -243 z m 383 839 b 631 1007 551 839 619 924 l 481 1007 b 385 951 475 978 446 951 b 290 1007 324 951 296 978 l 140 1007 b 383 839 147 924 221 839 z "},"џ":{"ha":879,"x_min":0,"x_max":0,"o":"m 789 0 l 789 747 l 560 747 l 560 163 l 319 163 l 319 747 l 90 747 l 90 0 l 331 0 l 331 -171 l 550 -171 l 550 0 z "},"ґ":{"ha":665,"x_min":0,"x_max":0,"o":"m 651 585 l 651 918 l 433 918 l 433 747 l 90 747 l 90 0 l 319 0 l 319 585 z "},"ѣ":{"ha":846,"x_min":0,"x_max":0,"o":"m 361 515 l 361 640 l 561 640 l 561 803 l 361 803 l 361 1007 l 132 1007 l 132 803 l 14 803 l 14 640 l 132 640 l 132 0 l 507 0 b 811 264 718 0 811 79 b 496 515 811 449 717 515 z m 361 154 l 361 361 l 483 361 b 597 261 560 361 597 328 b 483 154 597 194 560 154 z "},"ѳ":{"ha":867,"x_min":0,"x_max":0,"o":"m 38 376 b 433 -18 38 106 226 -18 b 829 376 640 -18 829 106 b 433 769 829 647 640 769 b 38 376 226 769 38 647 z m 276 444 b 433 592 294 551 356 592 b 590 444 511 592 572 551 z m 589 296 b 433 160 568 197 510 160 b 278 296 357 160 299 197 z "},"ѵ":{"ha":843,"x_min":0,"x_max":0,"o":"m 406 221 l 247 747 l 0 747 l 272 0 l 519 0 l 686 447 b 817 582 725 551 767 582 l 829 582 l 829 747 l 786 747 b 508 536 635 747 556 697 z "},"ғ":{"ha":671,"x_min":0,"x_max":0,"o":"m 325 585 l 657 585 l 657 747 l 96 747 l 96 454 l 14 454 l 14 306 l 96 306 l 96 0 l 325 0 l 325 306 l 531 306 l 531 454 l 325 454 z "},"җ":{"ha":1339,"x_min":0,"x_max":0,"o":"m 1297 -171 l 1297 163 l 1158 163 l 990 403 l 1243 747 l 993 747 l 756 396 l 754 396 l 754 747 l 525 747 l 525 396 l 524 396 l 289 747 l 35 747 l 288 392 l 13 0 l 275 0 l 524 383 l 525 383 l 525 0 l 754 0 l 754 383 l 756 383 l 1004 0 l 1093 0 l 1093 -171 z "},"қ":{"ha":913,"x_min":0,"x_max":0,"o":"m 871 -171 l 871 163 l 732 163 l 557 403 l 832 747 l 581 747 l 321 396 l 319 396 l 319 747 l 90 747 l 90 0 l 319 0 l 319 385 l 321 385 l 582 0 l 667 0 l 667 -171 z "},"ң":{"ha":958,"x_min":0,"x_max":0,"o":"m 924 163 l 803 163 l 803 747 l 574 747 l 574 464 l 319 464 l 319 747 l 90 747 l 90 0 l 319 0 l 319 301 l 574 301 l 574 0 l 713 0 l 713 -171 l 924 -171 z "},"ү":{"ha":793,"x_min":0,"x_max":0,"o":"m 515 -243 l 515 -32 l 793 747 l 557 747 l 406 207 l 247 747 l 0 747 l 286 -43 l 286 -243 z "},"ұ":{"ha":793,"x_min":0,"x_max":0,"o":"m 544 50 l 793 747 l 557 747 l 406 207 l 247 747 l 0 747 l 253 50 l 146 50 l 146 -99 l 286 -99 l 286 -243 l 515 -243 l 515 -99 l 650 -99 l 650 50 z "},"ҳ":{"ha":883,"x_min":0,"x_max":0,"o":"m 842 163 l 703 163 l 538 386 l 813 747 l 574 747 l 419 546 l 271 747 l 11 747 l 288 375 l 0 0 l 243 0 l 407 214 l 565 0 l 638 0 l 638 -171 l 842 -171 z "},"ҷ":{"ha":881,"x_min":0,"x_max":0,"o":"m 846 163 l 725 163 l 725 747 l 496 747 l 496 422 b 401 408 458 413 433 408 b 278 519 314 408 278 454 l 278 747 l 49 747 l 49 482 b 307 240 49 315 144 240 b 496 267 378 240 425 249 l 496 0 l 635 0 l 635 -171 l 846 -171 z "},"һ":{"ha":871,"x_min":0,"x_max":0,"o":"m 319 1007 l 90 1007 l 90 0 l 319 0 l 319 383 b 460 586 319 522 361 586 b 574 392 571 586 574 499 l 574 0 l 803 0 l 803 449 b 551 764 803 651 743 764 b 319 649 433 764 353 704 z "},"ӏ":{"ha":410,"x_min":0,"x_max":0,"o":"m 319 1007 l 90 1007 l 90 0 l 319 0 z "},"ә":{"ha":872,"x_min":0,"x_max":0,"o":"m 435 -18 b 835 374 653 -18 835 135 b 425 769 835 621 668 769 b 53 517 275 769 119 693 l 264 517 b 432 592 290 561 344 592 b 604 436 515 592 597 542 l 50 436 b 435 -18 35 169 186 -18 z m 435 157 b 278 297 347 157 282 203 l 601 297 b 435 157 590 199 515 157 z "},"ӣ":{"ha":907,"x_min":0,"x_max":0,"o":"m 840 747 l 618 747 l 315 304 l 315 747 l 90 747 l 90 0 l 313 0 l 615 438 l 615 0 l 840 0 z m 667 860 l 667 1008 l 232 1008 l 232 860 z "},"ө":{"ha":867,"x_min":0,"x_max":0,"o":"m 433 769 b 38 376 226 769 38 647 b 433 -18 38 106 226 -18 b 829 376 640 -18 829 106 b 433 769 829 647 640 769 z m 433 592 b 590 444 511 592 572 551 l 276 444 b 433 592 294 551 356 592 z m 589 296 b 433 160 568 197 510 160 b 278 296 357 160 299 197 z "},"ӯ":{"ha":782,"x_min":0,"x_max":0,"o":"m 164 -243 b 489 0 358 -243 414 -190 l 782 747 l 536 747 l 389 279 l 251 747 l 0 747 l 279 4 l 272 -15 b 136 -78 250 -71 231 -78 l 90 -78 l 90 -243 z m 608 860 l 608 1008 l 174 1008 l 174 860 z "},"":{"ha":610,"x_min":0,"x_max":0,"o":"m 303 839 b 550 1007 471 839 539 924 l 400 1007 b 304 951 394 978 365 951 b 210 1007 243 951 215 978 l 60 1007 b 303 839 67 924 140 839 z "},"":{"ha":679,"x_min":0,"x_max":0,"o":"m 468 1231 b 350 1151 461 1181 418 1151 b 244 1231 285 1151 251 1181 l 75 1231 b 351 1051 85 1115 183 1051 b 636 1231 525 1051 625 1115 z "},"₽":{"ha":919,"x_min":0,"x_max":0,"o":"m 361 349 l 456 349 b 906 679 717 349 906 436 b 456 1007 906 943 717 1007 l 124 1007 l 124 549 l 21 549 l 21 349 l 124 349 l 124 261 l 21 261 l 21 151 l 124 151 l 124 0 l 361 0 l 361 151 l 643 151 l 643 261 l 361 261 z m 361 549 l 361 807 l 463 807 b 661 679 574 807 661 785 b 463 549 661 574 574 549 z "},"₴":{"ha":1025,"x_min":0,"x_max":0,"o":"m 900 647 b 917 722 911 667 917 692 b 535 1024 917 928 736 1024 b 125 729 350 1024 158 938 l 347 729 b 535 833 369 797 439 833 b 685 736 635 833 685 790 b 614 647 685 697 657 668 l 49 647 l 49 538 l 976 538 l 976 647 z m 121 372 b 111 299 114 351 111 328 b 510 -18 111 94 293 -18 b 949 300 747 -18 915 111 l 725 300 b 506 175 699 229 638 175 b 342 283 415 175 342 213 b 417 372 342 324 368 351 l 976 372 l 976 482 l 49 482 l 49 372 z "},"π":{"ha":979,"x_min":0,"x_max":0,"o":"m 371 0 l 371 554 l 608 554 l 608 238 b 857 0 608 47 685 0 l 933 0 l 933 181 l 903 181 b 824 261 838 181 824 199 l 824 554 l 933 554 l 933 747 l 44 747 l 44 554 l 156 554 l 156 0 z "},"µ":{"ha":874,"x_min":0,"x_max":0,"o":"m 289 -243 b 306 0 300 -182 306 -101 l 306 65 b 438 -8 339 6 392 -8 b 568 65 486 -8 533 6 l 568 0 l 794 0 l 794 747 l 568 747 l 568 347 b 438 158 568 214 522 158 b 308 347 353 158 308 214 l 308 747 l 79 747 l 79 8 b 61 -243 79 -114 72 -181 z "},"μ":{"ha":874,"x_min":0,"x_max":0,"o":"m 289 -243 b 306 0 300 -182 306 -101 l 306 65 b 438 -8 339 6 392 -8 b 568 65 486 -8 533 6 l 568 0 l 794 0 l 794 747 l 568 747 l 568 347 b 438 158 568 214 522 158 b 308 347 353 158 308 214 l 308 747 l 79 747 l 79 8 b 61 -243 79 -114 72 -181 z "},"…":{"ha":1175,"x_min":0,"x_max":0,"o":"m 1108 0 l 1108 247 l 850 247 l 850 0 z m 717 0 l 717 247 l 458 247 l 458 0 z m 325 0 l 325 247 l 67 247 l 67 0 z "},"–":{"ha":679,"x_min":0,"x_max":0,"o":"m 649 272 l 649 465 l 31 465 l 31 272 z "},"—":{"ha":1004,"x_min":0,"x_max":0,"o":"m 975 272 l 975 465 l 31 465 l 31 272 z "},"‹":{"ha":492,"x_min":0,"x_max":0,"o":"m 247 57 l 461 57 l 281 379 l 463 701 l 247 701 l 14 381 z "},"›":{"ha":492,"x_min":0,"x_max":0,"o":"m 478 381 l 244 701 l 29 701 l 211 379 l 31 57 l 244 57 z "},"‘":{"ha":390,"x_min":0,"x_max":0,"o":"m 324 788 l 224 788 l 344 1007 l 208 1007 l 67 801 l 67 542 l 324 542 z "},"’":{"ha":390,"x_min":0,"x_max":0,"o":"m 67 760 l 167 760 l 46 540 l 182 540 l 324 746 l 324 1007 l 67 1007 z "},"“":{"ha":725,"x_min":0,"x_max":0,"o":"m 324 788 l 224 788 l 344 1007 l 208 1007 l 67 801 l 67 542 l 324 542 z m 658 788 l 558 788 l 679 1007 l 543 1007 l 401 801 l 401 542 l 658 542 z "},"”":{"ha":726,"x_min":0,"x_max":0,"o":"m 401 760 l 501 760 l 381 540 l 517 540 l 658 746 l 658 1007 l 401 1007 z m 67 760 l 167 760 l 46 540 l 182 540 l 324 746 l 324 1007 l 67 1007 z "},"‚":{"ha":392,"x_min":0,"x_max":0,"o":"m 67 0 l 167 0 l 46 -219 l 182 -219 l 324 -14 l 324 247 l 67 247 z "},"„":{"ha":725,"x_min":0,"x_max":0,"o":"m 67 0 l 167 0 l 46 -219 l 182 -219 l 324 -14 l 324 247 l 67 247 z m 401 0 l 501 0 l 381 -219 l 517 -219 l 658 -14 l 658 247 l 401 247 z "},"•":{"ha":621,"x_min":0,"x_max":0,"o":"m 60 388 b 304 133 60 243 171 133 b 560 388 450 133 560 243 b 304 633 560 524 450 633 b 60 388 171 633 60 524 z "},"†":{"ha":863,"x_min":0,"x_max":0,"o":"m 539 0 l 539 554 l 817 554 l 817 747 l 539 747 l 539 1007 l 324 1007 l 324 747 l 44 747 l 44 554 l 324 554 l 324 0 z "},"‡":{"ha":892,"x_min":0,"x_max":0,"o":"m 554 408 l 554 601 l 847 601 l 847 793 l 554 793 l 554 1007 l 339 1007 l 339 793 l 44 793 l 44 601 l 339 601 l 339 408 l 44 408 l 44 215 l 339 215 l 339 0 l 554 0 l 554 215 l 847 215 l 847 408 z "},"‰":{"ha":2053,"x_min":0,"x_max":0,"o":"m 1761 104 b 1669 282 1707 104 1669 150 b 1761 461 1669 417 1707 461 b 1850 282 1813 461 1850 417 b 1761 104 1850 150 1813 104 z m 1761 -11 b 2007 282 1924 -11 2007 97 b 1761 576 2007 467 1924 576 b 1513 282 1596 576 1513 467 b 1761 -11 1513 97 1596 -11 z m 269 544 b 178 722 215 544 178 590 b 269 901 178 857 215 901 b 358 722 321 901 358 857 b 269 544 358 590 321 544 z m 269 429 b 515 722 432 429 515 538 b 269 1017 515 907 432 1017 b 21 722 104 1017 21 907 b 269 429 21 538 104 429 z m 514 0 l 1208 1007 l 978 1007 l 283 0 z m 1200 104 b 1108 282 1146 104 1108 150 b 1200 461 1108 417 1146 461 b 1289 282 1251 461 1289 417 b 1200 104 1289 150 1251 104 z m 1200 -11 b 1446 282 1363 -11 1446 97 b 1200 576 1446 467 1363 576 b 951 282 1035 576 951 467 b 1200 -11 951 97 1035 -11 z "},"ℓ":{"ha":719,"x_min":0,"x_max":0,"o":"m 422 -18 b 681 78 547 -18 636 38 l 601 217 b 474 165 564 189 525 165 b 381 288 411 165 381 199 l 381 397 l 397 410 b 692 801 568 528 692 642 b 440 1024 692 944 597 1024 b 153 681 269 1024 153 929 l 153 399 l -17 276 l 56 168 l 153 236 b 422 -18 157 49 271 -18 z m 381 754 b 444 863 381 826 396 863 b 506 785 482 863 506 839 b 388 568 506 700 458 622 l 381 563 z "},"№":{"ha":1611,"x_min":0,"x_max":0,"o":"m 1579 761 b 1328 1024 1579 954 1464 1024 b 1076 761 1193 1024 1076 944 b 1328 494 1076 578 1178 494 b 1579 761 1478 494 1579 578 z m 1390 761 b 1328 636 1390 682 1371 636 b 1264 761 1279 636 1264 682 b 1328 883 1264 844 1279 883 b 1390 761 1369 883 1390 843 z m 1571 263 l 1571 456 l 1083 456 l 1083 263 z m 1014 0 l 1014 1007 l 785 1007 l 785 313 l 381 1007 l 92 1007 l 92 0 l 321 0 l 321 694 l 725 0 z "},"℗":{"ha":1146,"x_min":0,"x_max":0,"o":"m 53 501 b 574 -18 53 193 285 -18 b 1093 501 861 -18 1093 193 b 574 1025 1093 811 861 1025 b 53 501 285 1025 53 811 z m 168 501 b 574 919 168 751 346 919 b 978 501 806 919 978 751 b 574 86 978 257 806 86 b 168 501 346 86 168 257 z m 588 442 b 846 617 717 442 846 471 b 588 799 846 761 736 799 l 365 799 l 365 243 l 515 243 l 515 442 z m 696 617 b 625 557 696 583 675 557 l 515 557 l 515 682 l 625 682 b 696 617 675 682 696 649 z "},"™":{"ha":1347,"x_min":0,"x_max":0,"o":"m 197 453 l 361 453 l 361 868 l 544 868 l 544 1007 l 15 1007 l 15 868 l 197 868 z m 1014 453 l 1140 842 l 1140 453 l 1301 453 l 1301 1007 l 1057 1007 l 942 651 l 840 1007 l 579 1007 l 579 453 l 740 453 l 740 839 l 868 453 z "},"◊":{"ha":799,"x_min":0,"x_max":0,"o":"m 404 740 l 581 467 l 404 193 l 226 467 z m 3 467 l 403 -143 l 794 467 l 403 1075 z "},"℮":{"ha":774,"x_min":0,"x_max":0,"o":"m 675 210 b 407 31 631 97 539 31 b 182 107 314 31 225 61 l 182 375 l 750 375 b 389 764 746 585 622 764 b 22 374 165 764 22 603 b 396 -18 22 156 151 -18 b 731 210 578 -18 686 82 z m 182 643 b 388 715 226 692 303 715 b 589 642 476 715 549 685 l 589 421 l 182 421 z "},"−":{"ha":942,"x_min":0,"x_max":0,"o":"m 69 471 l 69 278 l 872 278 l 872 471 z "},"≤":{"ha":942,"x_min":0,"x_max":0,"o":"m 354 483 l 857 589 l 857 788 l 85 578 l 85 386 l 857 206 l 857 406 z m 85 0 l 857 0 l 857 193 l 85 193 z "},"≥":{"ha":942,"x_min":0,"x_max":0,"o":"m 589 483 l 85 406 l 85 206 l 857 386 l 857 578 l 85 788 l 85 589 z m 857 0 l 857 193 l 85 193 l 85 0 z "},"≠":{"ha":942,"x_min":0,"x_max":0,"o":"m 244 140 l 189 0 l 418 0 l 474 140 l 836 140 l 836 332 l 551 332 l 583 414 l 836 414 l 836 607 l 661 607 l 718 747 l 490 747 l 433 607 l 106 607 l 106 414 l 356 414 l 322 332 l 106 332 l 106 140 z "},"≈":{"ha":942,"x_min":0,"x_max":0,"o":"m 606 569 b 321 658 524 569 447 658 b 93 386 154 658 97 554 l 269 386 b 336 476 274 457 296 476 b 625 386 429 476 508 386 b 849 658 792 386 842 490 l 672 658 b 606 569 668 590 646 569 z m 606 271 b 321 360 524 271 447 360 b 93 88 154 360 97 256 l 269 88 b 336 178 274 158 296 178 b 625 88 429 178 508 88 b 849 360 792 88 842 192 l 672 360 b 606 271 668 292 646 271 z "},"∂":{"ha":889,"x_min":0,"x_max":0,"o":"m 601 331 b 440 165 601 236 540 165 b 279 331 340 165 279 236 b 440 489 279 421 340 489 b 601 331 540 489 601 426 z m 432 -18 b 844 474 726 -18 844 194 b 240 1008 844 754 681 1001 l 240 828 b 607 604 422 824 607 760 l 606 603 b 383 675 556 647 483 675 b 44 331 200 675 44 536 b 432 -18 44 125 194 -18 z "},"∏":{"ha":961,"x_min":0,"x_max":0,"o":"m 294 -243 l 294 814 l 667 814 l 667 -243 l 882 -243 l 882 1007 l 79 1007 l 79 -243 z "},"√":{"ha":933,"x_min":0,"x_max":0,"o":"m 0 276 l 76 93 l 213 157 l 386 -243 l 604 -243 l 935 1007 l 717 1007 l 474 43 l 318 419 z "},"∑":{"ha":897,"x_min":0,"x_max":0,"o":"m 44 -51 l 44 -243 l 851 -243 l 851 -51 l 300 -51 l 719 379 l 307 814 l 851 814 l 851 1007 l 51 1007 l 51 814 l 460 379 z "},"∫":{"ha":518,"x_min":0,"x_max":0,"o":"m 151 303 b 164 3 151 176 164 74 b 110 -161 164 -99 150 -151 b 114 -125 113 -149 114 -137 b 39 -44 114 -64 72 -44 b -46 -126 -15 -44 -46 -83 b 104 -249 -46 -208 31 -249 b 367 188 249 -249 367 -168 l 367 410 b 351 769 367 629 351 669 b 408 935 351 871 371 925 b 404 897 406 921 404 908 b 481 818 404 835 447 818 b 564 900 532 818 564 850 b 414 1021 564 981 488 1021 b 151 586 269 1021 151 940 z "},"∞":{"ha":1074,"x_min":0,"x_max":0,"o":"m 776 603 b 535 489 672 603 600 560 b 299 603 469 554 399 603 b 44 365 149 603 44 504 b 292 126 44 225 146 126 b 538 246 401 126 475 179 b 778 125 599 181 669 125 b 1028 365 928 125 1028 224 b 776 603 1028 504 926 603 z m 306 442 b 435 367 357 442 400 407 b 303 288 400 324 358 288 b 214 367 249 288 214 321 b 306 442 214 411 254 442 z m 769 442 b 860 365 824 442 860 410 b 772 288 860 319 824 288 b 640 365 718 288 678 325 b 769 442 675 406 714 442 z "},"Δ":{"ha":963,"x_min":0,"x_max":0,"o":"m 0 0 l 963 0 l 481 1025 z m 692 176 l 269 176 l 481 622 z "},"∆":{"ha":963,"x_min":0,"x_max":0,"o":"m 0 0 l 963 0 l 481 1025 z m 692 176 l 269 176 l 481 622 z "},"Ω":{"ha":1090,"x_min":0,"x_max":0,"o":"m 546 1024 b 53 597 290 1024 53 879 b 310 231 53 424 143 290 l 310 192 l 53 192 l 53 0 l 507 0 l 507 336 b 258 590 353 358 258 451 b 546 851 258 739 367 851 b 831 590 724 851 831 739 b 582 336 831 451 736 358 l 582 0 l 1038 0 l 1038 192 l 779 192 l 779 231 b 1038 597 946 290 1038 424 b 546 1024 1038 879 796 1024 z "},"Ω":{"ha":1090,"x_min":0,"x_max":0,"o":"m 546 1024 b 53 597 290 1024 53 879 b 310 231 53 424 143 290 l 310 192 l 53 192 l 53 0 l 507 0 l 507 336 b 258 590 353 358 258 451 b 546 851 258 739 367 851 b 831 590 724 851 831 739 b 582 336 831 451 736 358 l 582 0 l 1038 0 l 1038 192 l 779 192 l 779 231 b 1038 597 946 290 1038 424 b 546 1024 1038 879 796 1024 z "},"€":{"ha":1097,"x_min":0,"x_max":0,"o":"m 543 342 l 633 467 l 413 467 l 413 543 l 669 543 l 758 667 l 429 667 b 632 839 456 768 511 839 b 843 660 733 839 819 789 l 1064 660 b 636 1024 1031 893 861 1024 b 200 667 410 1024 250 894 l 75 667 l -15 543 l 183 543 l 183 467 l 75 467 l -15 342 l 200 342 b 631 -18 249 114 399 -18 b 1067 347 858 -18 1022 114 l 846 347 b 635 168 824 214 729 168 b 428 342 507 168 454 244 z "},"ﬁ":{"ha":907,"x_min":0,"x_max":0,"o":"m 104 747 l 3 747 l 3 585 l 104 585 l 104 0 l 333 0 l 333 585 l 499 585 l 499 747 l 333 747 l 333 785 b 433 846 333 842 351 846 l 499 846 l 499 1007 l 382 1007 b 104 794 182 1007 104 971 z m 596 1007 l 596 824 l 825 824 l 825 1007 z m 596 747 l 596 0 l 826 0 l 826 747 z "},"ﬂ":{"ha":907,"x_min":0,"x_max":0,"o":"m 104 747 l 3 747 l 3 585 l 104 585 l 104 0 l 333 0 l 333 585 l 499 585 l 499 747 l 333 747 l 333 785 b 433 846 333 842 351 846 l 499 846 l 499 1007 l 382 1007 b 104 794 182 1007 104 971 z m 825 1007 l 596 1007 l 596 0 l 825 0 z "},"˘":{"ha":532,"x_min":0,"x_max":0,"o":"m 351 1007 b 265 951 346 978 317 951 b 181 1007 214 951 186 978 l 31 1007 b 264 839 38 924 110 839 b 501 1007 424 839 490 924 z "},"ˇ":{"ha":654,"x_min":0,"x_max":0,"o":"m 221 846 l 428 846 l 624 1007 l 413 1007 l 325 943 l 240 1007 l 31 1007 z "},"ˆ":{"ha":654,"x_min":0,"x_max":0,"o":"m 435 1007 l 226 1007 l 31 846 l 242 846 l 329 910 l 415 846 l 624 846 z "},"˙":{"ha":267,"x_min":0,"x_max":0,"o":"m 31 1007 l 31 846 l 236 846 l 236 1007 z "},"˝":{"ha":764,"x_min":0,"x_max":0,"o":"m 422 1007 l 163 1007 l 31 846 l 203 846 z m 733 1007 l 472 1007 l 342 846 l 514 846 z "},"˛":{"ha":385,"x_min":0,"x_max":0,"o":"m 126 0 b 31 -128 69 -32 31 -72 b 247 -261 31 -221 140 -261 b 354 -246 285 -261 321 -256 l 354 -132 b 288 -144 336 -137 310 -144 b 232 -94 256 -144 232 -132 b 354 0 232 -62 283 -35 z "},"˚":{"ha":324,"x_min":0,"x_max":0,"o":"m 163 1090 b 31 967 90 1090 31 1039 b 163 843 31 894 89 843 b 293 967 235 843 293 896 b 163 1090 293 1039 233 1090 z m 163 1024 b 219 967 194 1024 219 1000 b 163 911 219 935 194 911 b 106 967 131 911 106 935 b 163 1024 106 1000 131 1024 z "},"˜":{"ha":644,"x_min":0,"x_max":0,"o":"m 406 961 b 219 1022 343 961 313 1022 b 31 846 113 1022 49 957 l 165 846 b 236 907 172 886 196 907 b 426 846 292 907 331 846 b 614 1022 526 846 593 906 l 479 1022 b 406 961 471 982 446 961 z "},"̬":{"ha":654,"x_min":0,"x_max":0,"o":"m 221 -192 l 428 -192 l 624 0 l 413 0 l 325 -79 l 240 0 l 31 0 z "},"̦":{"ha":242,"x_min":0,"x_max":0,"o":"m 35 -189 l 85 -189 l 31 -321 l 150 -321 l 211 -197 l 211 -50 l 35 -50 z "},"↲":{"ha":1111,"x_min":0,"x_max":0,"o":"m 32 378 l 468 -61 l 601 76 l 392 278 l 1072 278 l 1072 1007 l 881 1007 l 881 469 l 383 469 l 601 678 l 468 815 z "},"↳":{"ha":1111,"x_min":0,"x_max":0,"o":"m 643 814 l 510 676 l 725 469 l 231 469 l 231 1007 l 39 1007 l 39 278 l 719 278 l 510 75 l 643 -62 l 1079 376 z "},"↰":{"ha":1111,"x_min":0,"x_max":0,"o":"m 32 378 l 468 -61 l 601 76 l 392 278 l 881 278 l 881 -243 l 1072 -243 l 1072 469 l 383 469 l 601 678 l 468 815 z "},"↱":{"ha":1111,"x_min":0,"x_max":0,"o":"m 231 -243 l 231 278 l 719 278 l 510 75 l 643 -62 l 1079 376 l 643 814 l 510 676 l 725 469 l 39 469 l 39 -243 z "},"←":{"ha":1111,"x_min":0,"x_max":0,"o":"m 32 378 l 468 -61 l 601 76 l 392 278 l 1072 278 l 1072 469 l 383 469 l 601 678 l 468 815 z "},"↑":{"ha":1111,"x_min":0,"x_max":0,"o":"m 554 1015 l 117 575 l 250 444 l 458 656 l 458 0 l 650 0 l 650 657 l 860 444 l 994 575 z "},"→":{"ha":1111,"x_min":0,"x_max":0,"o":"m 643 814 l 510 676 l 725 469 l 39 469 l 39 278 l 719 278 l 510 75 l 643 -62 l 1079 376 z "},"↓":{"ha":1111,"x_min":0,"x_max":0,"o":"m 996 397 l 861 531 l 651 315 l 651 1007 l 460 1007 l 460 317 l 251 531 l 118 397 l 556 -40 z "},"↖":{"ha":1111,"x_min":0,"x_max":0,"o":"m 165 747 l 165 129 l 350 129 l 350 424 l 835 -56 l 968 78 l 489 561 l 781 561 l 781 747 z "},"↗":{"ha":1111,"x_min":0,"x_max":0,"o":"m 317 747 l 317 561 l 611 561 l 132 78 l 268 -56 l 749 422 l 749 129 l 936 129 l 936 747 z "},"↘":{"ha":1111,"x_min":0,"x_max":0,"o":"m 935 617 l 747 617 l 747 324 l 267 804 l 131 668 l 614 183 l 315 183 l 315 0 l 935 0 z "},"↙":{"ha":1111,"x_min":0,"x_max":0,"o":"m 172 0 l 788 0 l 788 183 l 490 183 l 975 668 l 842 804 l 357 322 l 357 617 l 172 617 z "},"↞":{"ha":1111,"x_min":0,"x_max":0,"o":"m 32 378 l 468 -61 l 601 76 l 392 278 l 485 278 l 826 -65 l 960 72 l 746 278 l 1072 278 l 1072 469 l 747 469 l 960 674 l 826 811 l 485 469 l 383 469 l 601 678 l 468 815 z "},"↟":{"ha":1111,"x_min":0,"x_max":0,"o":"m 554 1015 l 117 575 l 250 444 l 458 656 l 458 554 l 117 211 l 250 79 l 458 289 l 458 0 l 650 0 l 650 289 l 860 79 l 994 211 l 650 554 l 650 657 l 860 444 l 994 575 z "},"↠":{"ha":1111,"x_min":0,"x_max":0,"o":"m 643 814 l 510 676 l 725 469 l 614 469 l 274 811 l 140 674 l 351 469 l 39 469 l 39 278 l 353 278 l 140 72 l 274 -65 l 614 278 l 719 278 l 510 75 l 643 -62 l 1079 376 z "},"↡":{"ha":1111,"x_min":0,"x_max":0,"o":"m 996 397 l 861 531 l 651 315 l 651 421 l 994 763 l 860 896 l 651 686 l 651 1007 l 460 1007 l 460 683 l 250 896 l 117 763 l 460 418 l 460 317 l 251 531 l 118 397 l 556 -40 z "},"↢":{"ha":1111,"x_min":0,"x_max":0,"o":"m 31 374 l 468 -65 l 601 72 l 392 275 l 628 275 l 967 -65 l 1099 72 l 797 374 l 1099 674 l 967 811 l 622 467 l 386 467 l 601 674 l 468 811 z "},"↣":{"ha":1111,"x_min":0,"x_max":0,"o":"m 1081 374 l 643 811 l 510 674 l 724 467 l 489 467 l 144 811 l 13 674 l 314 374 l 13 72 l 144 -65 l 483 275 l 718 275 l 510 72 l 643 -65 z "},"↤":{"ha":1111,"x_min":0,"x_max":0,"o":"m 32 378 l 468 -61 l 601 76 l 392 278 l 875 278 l 875 0 l 1072 0 l 1072 747 l 875 747 l 875 469 l 383 469 l 601 678 l 468 815 z "},"↥":{"ha":1111,"x_min":0,"x_max":0,"o":"m 554 1015 l 117 575 l 250 444 l 458 656 l 458 193 l 183 193 l 183 0 l 917 0 l 917 193 l 650 193 l 650 657 l 860 444 l 994 575 z "},"↦":{"ha":1111,"x_min":0,"x_max":0,"o":"m 643 814 l 510 676 l 725 469 l 236 469 l 236 747 l 39 747 l 39 0 l 236 0 l 236 278 l 719 278 l 510 75 l 643 -62 l 1079 376 z "},"↧":{"ha":1111,"x_min":0,"x_max":0,"o":"m 996 397 l 861 531 l 651 315 l 651 813 l 921 813 l 921 1007 l 188 1007 l 188 813 l 460 813 l 460 317 l 251 531 l 118 397 l 556 -40 z "},"■":{"ha":867,"x_min":0,"x_max":0,"o":"m 60 0 l 807 0 l 807 747 l 60 747 z "},"□":{"ha":867,"x_min":0,"x_max":0,"o":"m 60 0 l 807 0 l 807 747 l 60 747 z m 251 556 l 615 556 l 615 192 l 251 192 z "},"●":{"ha":836,"x_min":0,"x_max":0,"o":"m 418 -18 b 811 372 644 -18 811 157 b 418 764 811 588 644 764 b 25 372 192 764 25 588 b 418 -18 25 157 192 -18 z "},"⅓":{"ha":1251,"x_min":0,"x_max":0,"o":"m 286 440 l 286 1007 l 167 1007 b 7 919 144 947 106 924 l 7 808 l 133 808 l 133 440 z m 299 0 l 993 1007 l 763 1007 l 68 0 z m 983 104 b 885 186 932 104 894 132 l 736 186 b 981 -11 749 63 840 -11 b 1219 163 1107 -11 1219 50 b 1128 297 1219 228 1182 276 b 1203 422 1168 318 1203 363 b 989 576 1203 521 1111 576 b 743 393 849 576 758 514 l 893 393 b 978 461 897 438 935 461 b 1047 411 1013 461 1047 446 b 949 351 1047 371 1014 351 l 921 351 l 921 225 l 949 225 b 1060 163 1022 225 1060 208 b 983 104 1060 131 1035 104 z "},"⅔":{"ha":1413,"x_min":0,"x_max":0,"o":"m 261 1017 b 21 797 111 1017 22 938 l 167 797 b 254 901 171 869 206 901 b 319 842 292 901 319 885 b 21 563 319 753 121 633 l 21 440 l 474 440 l 474 572 l 235 572 b 475 854 379 668 475 742 b 261 1017 475 965 382 1017 z m 460 0 l 1154 1007 l 924 1007 l 229 0 z m 1144 104 b 1046 186 1093 104 1056 132 l 897 186 b 1142 -11 910 63 1001 -11 b 1381 163 1268 -11 1381 50 b 1289 297 1381 228 1343 276 b 1364 422 1329 318 1364 363 b 1150 576 1364 521 1272 576 b 904 393 1010 576 919 514 l 1054 393 b 1139 461 1058 438 1096 461 b 1208 411 1174 461 1208 446 b 1110 351 1208 371 1175 351 l 1082 351 l 1082 225 l 1110 225 b 1221 163 1183 225 1221 208 b 1144 104 1221 131 1196 104 z "},"⅕":{"ha":1267,"x_min":0,"x_max":0,"o":"m 286 440 l 286 1007 l 167 1007 b 7 919 144 947 106 924 l 7 808 l 133 808 l 133 440 z m 299 0 l 993 1007 l 763 1007 l 68 0 z m 988 104 b 893 176 938 104 903 138 l 747 176 b 996 -11 765 43 868 -11 b 1235 190 1136 -11 1235 63 b 1044 390 1235 317 1154 390 b 922 353 1000 390 951 379 l 936 436 l 1199 436 l 1199 567 l 807 567 l 765 240 l 901 229 b 992 275 918 257 949 275 b 1078 190 1043 275 1078 239 b 988 104 1078 139 1043 104 z "},"⅙":{"ha":1258,"x_min":0,"x_max":0,"o":"m 286 440 l 286 1007 l 167 1007 b 7 919 144 947 106 924 l 7 808 l 133 808 l 133 440 z m 299 0 l 993 1007 l 763 1007 l 68 0 z m 907 190 b 988 274 907 244 943 274 b 1068 190 1031 274 1068 242 b 988 104 1068 136 1032 104 b 907 190 943 104 907 136 z m 997 461 b 1069 413 1035 461 1065 447 l 1213 413 b 1004 576 1208 507 1138 576 b 749 271 829 576 749 446 b 988 -11 749 103 829 -11 b 1225 192 1125 -11 1225 63 b 1035 389 1225 324 1124 389 b 903 346 981 389 932 375 b 997 461 903 422 943 461 z "},"⅛":{"ha":1257,"x_min":0,"x_max":0,"o":"m 286 440 l 286 1007 l 167 1007 b 7 919 144 947 106 924 l 7 808 l 133 808 l 133 440 z m 299 0 l 993 1007 l 763 1007 l 68 0 z m 986 576 b 764 422 843 576 764 507 b 822 304 764 374 785 332 b 747 168 772 272 747 228 b 986 -11 747 63 844 -11 b 1225 168 1128 -11 1225 63 b 1151 304 1225 228 1200 272 b 1208 422 1186 332 1208 376 b 986 576 1208 507 1129 576 z m 986 247 b 1069 176 1038 247 1069 217 b 986 104 1069 133 1038 104 b 903 176 936 104 903 133 b 986 247 903 217 936 247 z m 1058 406 b 986 347 1058 371 1029 347 b 915 406 943 347 915 371 b 986 461 915 439 943 461 b 1058 406 1029 461 1058 439 z "},"⅖":{"ha":1428,"x_min":0,"x_max":0,"o":"m 261 1017 b 21 797 111 1017 22 938 l 167 797 b 254 901 171 869 206 901 b 319 842 292 901 319 885 b 21 563 319 753 121 633 l 21 440 l 474 440 l 474 572 l 235 572 b 475 854 379 668 475 742 b 261 1017 475 965 382 1017 z m 460 0 l 1154 1007 l 924 1007 l 229 0 z m 1149 104 b 1054 176 1099 104 1064 138 l 908 176 b 1157 -11 926 43 1029 -11 b 1396 190 1297 -11 1396 63 b 1206 390 1396 317 1315 390 b 1083 353 1161 390 1113 379 l 1097 436 l 1360 436 l 1360 567 l 968 567 l 926 240 l 1063 229 b 1153 275 1079 257 1110 275 b 1239 190 1204 275 1239 239 b 1149 104 1239 139 1204 104 z "},"⅗":{"ha":1457,"x_min":0,"x_max":0,"o":"m 268 544 b 169 626 217 544 179 572 l 21 626 b 265 429 33 503 125 429 b 504 603 392 429 504 490 b 413 738 504 668 467 717 b 488 863 453 758 488 803 b 274 1017 488 961 396 1017 b 28 833 133 1017 43 954 l 178 833 b 263 901 182 878 219 901 b 332 851 297 901 332 886 b 233 792 332 811 299 792 l 206 792 l 206 665 l 233 665 b 344 603 307 665 344 649 b 268 544 344 571 319 544 z m 489 0 l 1183 1007 l 953 1007 l 258 0 z m 1178 104 b 1083 176 1128 104 1093 138 l 938 176 b 1186 -11 956 43 1058 -11 b 1425 190 1326 -11 1425 63 b 1235 390 1425 317 1344 390 b 1113 353 1190 390 1142 379 l 1126 436 l 1389 436 l 1389 567 l 997 567 l 956 240 l 1092 229 b 1182 275 1108 257 1139 275 b 1268 190 1233 275 1268 239 b 1178 104 1268 139 1233 104 z "},"⅜":{"ha":1447,"x_min":0,"x_max":0,"o":"m 268 544 b 169 626 217 544 179 572 l 21 626 b 265 429 33 503 125 429 b 504 603 392 429 504 490 b 413 738 504 668 467 717 b 488 863 453 758 488 803 b 274 1017 488 961 396 1017 b 28 833 133 1017 43 954 l 178 833 b 263 901 182 878 219 901 b 332 851 297 901 332 886 b 233 792 332 811 299 792 l 206 792 l 206 665 l 233 665 b 344 603 307 665 344 649 b 268 544 344 571 319 544 z m 489 0 l 1183 1007 l 953 1007 l 258 0 z m 1176 576 b 954 422 1033 576 954 507 b 1013 304 954 374 975 332 b 938 168 963 272 938 228 b 1176 -11 938 63 1035 -11 b 1415 168 1318 -11 1415 63 b 1342 304 1415 228 1390 272 b 1399 422 1376 332 1399 376 b 1176 576 1399 507 1319 576 z m 1176 247 b 1260 176 1228 247 1260 217 b 1176 104 1260 133 1228 104 b 1093 176 1126 104 1093 133 b 1176 247 1093 217 1126 247 z m 1249 406 b 1176 347 1249 371 1219 347 b 1106 406 1133 347 1106 371 b 1176 461 1106 439 1133 461 b 1249 406 1219 461 1249 439 z "},"⅘":{"ha":1474,"x_min":0,"x_max":0,"o":"m 294 821 l 294 683 l 176 683 z m 533 683 l 447 683 l 447 1007 l 313 1007 l 22 669 l 22 553 l 294 553 l 294 440 l 447 440 l 447 553 l 533 553 z m 506 0 l 1200 1007 l 969 1007 l 275 0 z m 1194 104 b 1100 176 1144 104 1110 138 l 954 176 b 1203 -11 972 43 1075 -11 b 1442 190 1343 -11 1442 63 b 1251 390 1442 317 1361 390 b 1129 353 1207 390 1158 379 l 1143 436 l 1406 436 l 1406 567 l 1014 567 l 972 240 l 1108 229 b 1199 275 1125 257 1156 275 b 1285 190 1250 275 1285 239 b 1194 104 1285 139 1250 104 z "},"⅚":{"ha":1464,"x_min":0,"x_max":0,"o":"m 272 544 b 178 617 222 544 188 578 l 32 617 b 281 429 50 483 153 429 b 519 631 421 429 519 503 b 329 831 519 757 439 831 b 207 793 285 831 236 819 l 221 876 l 483 876 l 483 1007 l 92 1007 l 50 681 l 186 669 b 276 715 203 697 233 715 b 363 631 328 715 363 679 b 272 544 363 579 328 544 z m 504 0 l 1199 1007 l 968 1007 l 274 0 z m 1113 190 b 1193 274 1113 244 1149 274 b 1274 190 1236 274 1274 242 b 1193 104 1274 136 1238 104 b 1113 190 1149 104 1113 136 z m 1203 461 b 1275 413 1240 461 1271 447 l 1418 413 b 1210 576 1414 507 1343 576 b 954 271 1035 576 954 446 b 1193 -11 954 103 1035 -11 b 1431 192 1331 -11 1431 63 b 1240 389 1431 324 1329 389 b 1108 346 1186 389 1138 375 b 1203 461 1108 422 1149 461 z "},"⅝":{"ha":1463,"x_min":0,"x_max":0,"o":"m 272 544 b 178 617 222 544 188 578 l 32 617 b 281 429 50 483 153 429 b 519 631 421 429 519 503 b 329 831 519 757 439 831 b 207 793 285 831 236 819 l 221 876 l 483 876 l 483 1007 l 92 1007 l 50 681 l 186 669 b 276 715 203 697 233 715 b 363 631 328 715 363 679 b 272 544 363 579 328 544 z m 504 0 l 1199 1007 l 968 1007 l 274 0 z m 1192 576 b 969 422 1049 576 969 507 b 1028 304 969 374 990 332 b 953 168 978 272 953 228 b 1192 -11 953 63 1050 -11 b 1431 168 1333 -11 1431 63 b 1357 304 1431 228 1406 272 b 1414 422 1392 332 1414 376 b 1192 576 1414 507 1335 576 z m 1192 247 b 1275 176 1243 247 1275 217 b 1192 104 1275 133 1243 104 b 1108 176 1142 104 1108 133 b 1192 247 1108 217 1142 247 z m 1264 406 b 1192 347 1264 371 1235 347 b 1121 406 1149 347 1121 371 b 1192 461 1121 439 1149 461 b 1264 406 1235 461 1264 439 z "},"⅞":{"ha":1381,"x_min":0,"x_max":0,"o":"m 15 876 l 311 876 b 71 440 185 792 67 636 l 238 440 b 469 876 233 643 314 765 l 469 1007 l 15 1007 z m 422 0 l 1117 1007 l 886 1007 l 192 0 z m 1110 576 b 888 422 967 576 888 507 b 946 304 888 374 908 332 b 871 168 896 272 871 228 b 1110 -11 871 63 968 -11 b 1349 168 1251 -11 1349 63 b 1275 304 1349 228 1324 272 b 1332 422 1310 332 1332 376 b 1110 576 1332 507 1253 576 z m 1110 247 b 1193 176 1161 247 1193 217 b 1110 104 1193 133 1161 104 b 1026 176 1060 104 1026 133 b 1110 247 1026 217 1060 247 z m 1182 406 b 1110 347 1182 371 1153 347 b 1039 406 1067 347 1039 371 b 1110 461 1039 439 1067 461 b 1182 406 1153 461 1182 439 z "},"⅟":{"ha":715,"x_min":0,"x_max":0,"o":"m 286 440 l 286 1007 l 167 1007 b 7 919 144 947 106 924 l 7 808 l 133 808 l 133 440 z m 299 0 l 993 1007 l 763 1007 l 68 0 z "},"⁄":{"ha":369,"x_min":0,"x_max":0,"o":"m -47 0 l 647 1007 l 417 1007 l -278 0 z "},"ⁿ":{"ha":518,"x_min":0,"x_max":0,"o":"m 203 1026 l 51 1026 l 51 608 l 204 608 l 204 822 b 269 914 204 888 229 914 b 313 896 289 914 303 908 b 325 828 322 885 325 867 l 325 608 l 478 608 l 478 860 b 444 994 478 931 467 968 b 333 1036 421 1022 382 1036 b 203 979 274 1036 231 1017 z "},"⁴":{"ha":553,"x_min":0,"x_max":0,"o":"m 294 989 l 294 851 l 176 851 z m 533 851 l 447 851 l 447 1175 l 313 1175 l 22 838 l 22 721 l 294 721 l 294 608 l 447 608 l 447 721 l 533 721 z "},"⁵":{"ha":551,"x_min":0,"x_max":0,"o":"m 272 713 b 178 785 222 713 188 746 l 32 785 b 281 597 50 651 153 597 b 519 799 421 597 519 671 b 329 999 519 925 439 999 b 207 961 285 999 236 988 l 221 1044 l 483 1044 l 483 1175 l 92 1175 l 50 849 l 186 838 b 276 883 203 865 233 883 b 363 799 328 883 363 847 b 272 713 363 747 328 713 z "},"⁶":{"ha":543,"x_min":0,"x_max":0,"o":"m 192 799 b 272 882 192 853 228 882 b 353 799 315 882 353 850 b 272 713 353 744 317 713 b 192 799 228 713 192 744 z m 282 1069 b 354 1021 319 1069 350 1056 l 497 1021 b 289 1185 493 1115 422 1185 b 33 879 114 1185 33 1054 b 272 597 33 711 114 597 b 510 800 410 597 510 671 b 319 997 510 932 408 997 b 188 954 265 997 217 983 b 282 1069 188 1031 228 1069 z "},"⁷":{"ha":469,"x_min":0,"x_max":0,"o":"m 15 1044 l 311 1044 b 71 608 185 960 67 804 l 238 608 b 469 1044 233 811 314 933 l 469 1175 l 15 1175 z "},"⁸":{"ha":542,"x_min":0,"x_max":0,"o":"m 271 1185 b 49 1031 128 1185 49 1115 b 107 913 49 982 69 940 b 32 776 57 881 32 836 b 271 597 32 671 129 597 b 510 776 413 597 510 671 b 436 913 510 836 485 881 b 493 1031 471 940 493 985 b 271 1185 493 1115 414 1185 z m 271 856 b 354 785 322 856 354 825 b 271 713 354 742 322 713 b 188 785 221 713 188 742 b 271 856 188 825 221 856 z m 343 1014 b 271 956 343 979 314 956 b 200 1014 228 956 200 979 b 271 1069 200 1047 228 1069 b 343 1014 314 1069 343 1047 z "},"⁹":{"ha":543,"x_min":0,"x_max":0,"o":"m 261 713 b 188 764 224 713 192 726 l 44 764 b 254 597 49 669 121 597 b 508 904 432 597 508 731 b 264 1185 508 1076 429 1185 b 32 983 131 1185 32 1113 b 224 786 32 850 132 786 b 353 829 278 786 324 800 b 261 713 354 751 313 713 z m 350 985 b 268 903 350 931 313 903 b 189 985 225 903 189 931 b 268 1069 189 1039 225 1069 b 350 985 313 1069 350 1039 z "},"⁰":{"ha":561,"x_min":0,"x_max":0,"o":"m 269 713 b 178 890 215 713 178 758 b 269 1069 178 1025 215 1069 b 358 890 321 1069 358 1025 b 269 713 358 758 321 713 z m 269 597 b 515 890 432 597 515 706 b 269 1185 515 1075 432 1185 b 21 890 104 1185 21 1075 b 269 597 21 706 104 597 z "},"⁼":{"ha":507,"x_min":0,"x_max":0,"o":"m 474 846 l 474 979 l 33 979 l 33 846 z m 474 667 l 474 800 l 33 800 l 33 667 z "},"⁺":{"ha":528,"x_min":0,"x_max":0,"o":"m 340 608 l 340 753 l 494 753 l 494 886 l 340 886 l 340 1026 l 189 1026 l 189 886 l 33 886 l 33 753 l 189 753 l 189 608 z "},"⁻":{"ha":528,"x_min":0,"x_max":0,"o":"m 33 886 l 33 753 l 494 753 l 494 886 z "},"⁽":{"ha":296,"x_min":0,"x_max":0,"o":"m 32 821 b 143 460 32 676 96 529 l 293 460 b 186 821 233 553 186 700 b 293 1175 186 942 235 1079 l 143 1175 b 32 821 94 1106 32 965 z "},"⁾":{"ha":296,"x_min":0,"x_max":0,"o":"m 264 821 b 154 1175 264 965 203 1104 l 3 1175 b 113 821 61 1079 113 943 b 3 460 113 700 63 554 l 154 460 b 264 821 201 529 264 675 z "},"₁":{"ha":346,"x_min":0,"x_max":0,"o":"m 286 -178 l 286 389 l 167 389 b 7 301 144 329 106 306 l 7 190 l 133 190 l 133 -178 z "},"₂":{"ha":507,"x_min":0,"x_max":0,"o":"m 261 399 b 21 179 111 399 22 319 l 167 179 b 254 283 171 251 206 283 b 319 224 292 283 319 267 b 21 -56 319 135 121 15 l 21 -178 l 474 -178 l 474 -46 l 235 -46 b 475 236 379 50 475 124 b 261 399 475 347 382 399 z "},"₃":{"ha":536,"x_min":0,"x_max":0,"o":"m 268 -74 b 169 8 217 -74 179 -46 l 21 8 b 265 -189 33 -115 125 -189 b 504 -15 392 -189 504 -128 b 413 119 504 50 467 99 b 488 244 453 140 488 185 b 274 399 488 343 396 399 b 28 215 133 399 43 336 l 178 215 b 263 283 182 260 219 283 b 332 233 297 283 332 268 b 233 174 332 193 299 174 l 206 174 l 206 47 l 233 47 b 344 -15 307 47 344 31 b 268 -74 344 -47 319 -74 z "},"₄":{"ha":553,"x_min":0,"x_max":0,"o":"m 294 203 l 294 65 l 176 65 z m 533 65 l 447 65 l 447 389 l 313 389 l 22 51 l 22 -65 l 294 -65 l 294 -178 l 447 -178 l 447 -65 l 533 -65 z "},"₅":{"ha":551,"x_min":0,"x_max":0,"o":"m 272 -74 b 178 -1 222 -74 188 -40 l 32 -1 b 281 -189 50 -135 153 -189 b 519 13 421 -189 519 -115 b 329 213 519 139 439 213 b 207 175 285 213 236 201 l 221 258 l 483 258 l 483 389 l 92 389 l 50 63 l 186 51 b 276 97 203 79 233 97 b 363 13 328 97 363 61 b 272 -74 363 -39 328 -74 z "},"₆":{"ha":543,"x_min":0,"x_max":0,"o":"m 192 13 b 272 96 192 67 228 96 b 353 13 315 96 353 64 b 272 -74 353 -42 317 -74 b 192 13 228 -74 192 -42 z m 282 283 b 354 235 319 283 350 269 l 497 235 b 289 399 493 329 422 399 b 33 93 114 399 33 268 b 272 -189 33 -75 114 -189 b 510 14 410 -189 510 -115 b 319 211 510 146 408 211 b 188 168 265 211 217 197 b 282 283 188 244 228 283 z "},"₇":{"ha":469,"x_min":0,"x_max":0,"o":"m 15 258 l 311 258 b 71 -178 185 174 67 18 l 238 -178 b 469 258 233 25 314 147 l 469 389 l 15 389 z "},"₈":{"ha":542,"x_min":0,"x_max":0,"o":"m 271 399 b 49 244 128 399 49 329 b 107 126 49 196 69 154 b 32 -10 57 94 32 50 b 271 -189 32 -115 129 -189 b 510 -10 413 -189 510 -115 b 436 126 510 50 485 94 b 493 244 471 154 493 199 b 271 399 493 329 414 399 z m 271 69 b 354 -1 322 69 354 39 b 271 -74 354 -44 322 -74 b 188 -1 221 -74 188 -44 b 271 69 188 39 221 69 z m 343 228 b 271 169 343 193 314 169 b 200 228 228 169 200 193 b 271 283 200 261 228 283 b 343 228 314 283 343 261 z "},"₉":{"ha":543,"x_min":0,"x_max":0,"o":"m 261 -74 b 188 -22 224 -74 192 -60 l 44 -22 b 254 -189 49 -117 121 -189 b 508 118 432 -189 508 -56 b 264 399 508 290 429 399 b 32 197 131 399 32 326 b 224 0 32 64 132 0 b 353 43 278 0 324 14 b 261 -74 354 -35 313 -74 z m 350 199 b 268 117 350 144 313 117 b 189 199 225 117 189 144 b 268 283 189 253 225 283 b 350 199 313 283 350 253 z "},"₀":{"ha":561,"x_min":0,"x_max":0,"o":"m 269 -74 b 178 104 215 -74 178 -28 b 269 283 178 239 215 283 b 358 104 321 283 358 239 b 269 -74 358 -28 321 -74 z m 269 -189 b 515 104 432 -189 515 -81 b 269 399 515 289 432 399 b 21 104 104 399 21 289 b 269 -189 21 -81 104 -189 z "},"₍":{"ha":296,"x_min":0,"x_max":0,"o":"m 32 35 b 143 -326 32 -110 96 -257 l 293 -326 b 186 35 233 -233 186 -86 b 293 389 186 156 235 293 l 143 389 b 32 35 94 319 32 179 z "},"₎":{"ha":296,"x_min":0,"x_max":0,"o":"m 264 35 b 154 389 264 179 203 318 l 3 389 b 113 35 61 293 113 157 b 3 -326 113 -86 63 -232 l 154 -326 b 264 35 201 -257 264 -111 z "},"○":{"ha":836,"x_min":0,"x_max":0,"o":"m 418 572 b 614 374 532 572 614 481 b 418 174 614 264 532 174 b 222 374 301 174 222 264 b 418 572 222 481 301 572 z m 418 764 b 25 374 192 764 25 588 b 418 -18 25 158 192 -18 b 811 374 644 -18 811 158 b 418 764 811 588 644 764 z "},"ء":{"ha":690,"x_min":0,"x_max":0,"o":"m 435 218 b 375 228 411 219 392 222 b 292 326 313 247 292 288 b 415 426 292 381 338 426 b 593 389 465 426 515 415 l 593 578 b 381 626 504 611 443 626 b 106 367 226 626 106 517 b 160 225 106 311 124 264 b 175 210 164 219 169 214 l 156 207 b 19 171 117 201 75 189 l 19 -40 b 279 0 132 -7 203 0 l 615 0 l 669 218 z "},"ا":{"ha":414,"x_min":0,"x_max":0,"o":"m 110 1007 l 110 0 l 317 0 l 317 1007 z "},"ﺎ":{"ha":429,"x_min":0,"x_max":0,"o":"m 103 1007 l 104 285 b 429 0 104 103 213 0 b 443 15 439 0 443 6 l 442 204 b 428 218 442 214 438 218 b 311 343 340 218 311 256 l 310 1007 z "},"أ":{"ha":414,"x_min":0,"x_max":0,"o":"m 110 833 l 110 0 l 317 0 l 317 833 z m 258 1022 b 188 1065 221 1022 188 1036 b 244 1108 188 1092 213 1108 b 335 1088 268 1108 294 1103 l 335 1194 b 210 1222 306 1210 260 1222 b 72 1094 132 1222 72 1167 b 103 1021 72 1065 82 1040 b 79 1018 94 1021 86 1019 b 24 1003 65 1017 47 1011 l 24 893 b 128 910 72 908 96 910 l 360 910 l 388 1022 z "},"ﺄ":{"ha":429,"x_min":0,"x_max":0,"o":"m 103 833 l 104 285 b 429 0 104 103 213 0 b 443 15 439 0 443 6 l 443 204 b 429 218 443 214 439 218 b 311 343 342 218 311 256 l 310 833 z m 251 1022 b 181 1065 214 1022 181 1036 b 238 1108 181 1092 206 1108 b 328 1088 261 1108 288 1103 l 328 1194 b 203 1222 299 1210 253 1222 b 65 1094 125 1222 65 1167 b 96 1021 65 1065 75 1040 b 72 1018 88 1021 79 1019 b 17 1003 58 1017 40 1011 l 17 893 b 121 910 65 908 89 910 l 353 910 l 381 1022 z "},"إ":{"ha":414,"x_min":0,"x_max":0,"o":"m 110 1007 l 110 0 l 317 0 l 317 1007 z m 239 -253 b 168 -211 201 -253 168 -240 b 225 -167 168 -185 193 -167 b 315 -189 249 -167 275 -172 l 315 -82 b 190 -54 286 -67 240 -54 b 53 -182 113 -54 53 -110 b 83 -253 53 -211 63 -235 l 60 -256 b 4 -272 46 -258 28 -264 l 4 -383 b 108 -367 53 -368 76 -367 l 340 -367 l 368 -253 z "},"ﺈ":{"ha":429,"x_min":0,"x_max":0,"o":"m 103 1007 l 104 285 b 429 0 104 103 213 0 b 443 15 439 0 443 6 l 442 204 b 428 218 442 214 438 218 b 311 343 340 218 311 256 l 310 1007 z m 257 -253 b 186 -211 219 -253 186 -240 b 243 -167 186 -185 211 -167 b 333 -189 267 -167 293 -172 l 333 -82 b 208 -54 304 -67 258 -54 b 71 -182 131 -54 71 -110 b 101 -253 71 -211 81 -235 l 78 -256 b 22 -272 64 -258 46 -264 l 22 -383 b 126 -367 71 -368 94 -367 l 358 -367 l 386 -253 z "},"آ":{"ha":414,"x_min":0,"x_max":0,"o":"m 110 833 l 110 0 l 317 0 l 317 833 z m 115 1069 b -37 888 22 1069 -37 1004 l 61 888 b 132 942 67 922 93 942 b 299 890 186 942 235 890 b 406 925 339 890 378 904 l 407 1054 b 296 1018 375 1031 324 1018 b 115 1069 235 1018 176 1069 z "},"ﺂ":{"ha":429,"x_min":0,"x_max":0,"o":"m 103 833 l 104 285 b 429 0 104 103 213 0 b 443 15 439 0 443 6 l 443 204 b 429 218 443 214 439 218 b 311 343 342 218 311 256 l 310 833 z m 117 1069 b -36 888 24 1069 -36 1004 l 63 888 b 133 942 68 922 94 942 b 300 890 188 942 236 890 b 407 925 340 890 379 904 l 408 1054 b 297 1018 376 1031 325 1018 b 117 1069 236 1018 178 1069 z "},"ٱ":{"ha":414,"x_min":0,"x_max":0,"o":"m 110 833 l 110 0 l 317 0 l 317 833 z m 281 1140 b 118 1040 229 1140 179 1110 l 76 989 b 18 1007 58 993 39 1000 l -12 910 b 199 868 54 883 132 868 b 415 1011 333 868 415 921 b 281 1140 415 1083 356 1140 z m 201 974 b 157 975 189 974 174 974 l 160 979 b 260 1039 207 1024 235 1039 b 296 1010 281 1039 296 1026 b 201 974 296 986 264 974 z "},"ﭑ":{"ha":429,"x_min":0,"x_max":0,"o":"m 103 833 l 104 285 b 429 0 104 103 213 0 b 443 15 439 0 443 6 l 443 204 b 429 218 443 214 439 218 b 311 343 342 218 311 256 l 310 833 z m 272 1140 b 110 1040 221 1140 171 1110 l 68 989 b 10 1007 50 993 31 1000 l -21 910 b 190 868 46 883 124 868 b 407 1011 325 868 407 921 b 272 1140 407 1083 347 1140 z m 193 974 b 149 975 181 974 165 974 l 151 979 b 251 1039 199 1024 226 1039 b 288 1010 272 1039 288 1026 b 193 974 288 986 256 974 z "},"ٮ":{"ha":1135,"x_min":0,"x_max":0,"o":"m 60 539 b 35 338 42 457 35 403 b 392 0 35 117 153 0 l 751 0 b 765 15 761 0 765 6 l 765 204 b 751 218 765 214 761 218 l 442 218 b 229 389 282 218 229 274 b 249 539 229 429 233 474 z m 825 674 b 867 343 854 492 867 407 b 749 218 867 256 836 218 b 735 204 739 218 735 214 l 733 15 b 747 0 733 6 738 0 b 1072 285 964 0 1072 103 b 1032 674 1072 374 1061 485 z "},"ب":{"ha":1135,"x_min":0,"x_max":0,"o":"m 60 539 b 35 338 42 457 35 403 b 392 0 35 117 153 0 l 751 0 b 765 15 761 0 765 6 l 765 204 b 751 218 765 214 761 218 l 442 218 b 229 389 282 218 229 274 b 249 539 229 429 233 474 z m 825 674 b 867 343 854 492 867 407 b 749 218 867 256 836 218 b 735 204 739 218 735 214 l 733 15 b 747 0 733 6 738 0 b 1072 285 964 0 1072 103 b 1032 674 1072 374 1061 485 z m 439 -208 l 581 -349 l 721 -208 l 579 -68 z "},"ﺐ":{"ha":1178,"x_min":0,"x_max":0,"o":"m 865 514 b 836 276 865 397 860 322 b 735 218 817 240 783 221 l 722 218 l 718 218 l 443 218 b 231 397 281 218 231 275 b 256 611 231 451 239 528 l 67 611 b 33 339 44 500 33 407 b 393 0 33 117 154 0 l 753 0 b 760 1 756 0 758 0 b 897 43 815 6 861 19 b 957 96 921 58 940 75 b 1178 0 1022 32 1096 0 b 1192 15 1188 0 1192 6 l 1192 204 b 1178 218 1192 214 1188 218 b 1083 232 1146 218 1114 222 b 1031 254 1065 236 1049 244 l 1043 317 b 1056 514 1051 375 1056 440 z m 450 -208 l 592 -349 l 732 -208 l 590 -68 z "},"ﺒ":{"ha":456,"x_min":0,"x_max":0,"o":"m 143 514 b 114 276 143 397 138 322 b 0 218 93 238 56 218 b -14 204 -10 218 -14 214 l -14 15 b 0 0 -14 6 -10 0 b 175 43 72 0 131 14 b 235 96 199 58 218 75 b 456 0 300 32 374 0 b 469 15 465 0 469 6 l 469 204 b 456 218 469 214 465 218 b 361 232 424 218 392 222 b 308 254 343 236 326 244 l 321 317 b 333 514 329 375 333 440 z m 85 -215 l 226 -356 l 367 -215 l 225 -75 z "},"ﺑ":{"ha":388,"x_min":0,"x_max":0,"o":"m 78 674 b 119 343 107 492 119 407 b 1 218 119 256 89 218 b -12 204 -8 218 -12 214 l -14 15 b 0 0 -14 6 -10 0 b 325 285 217 0 325 103 b 285 674 325 374 314 485 z m 19 -215 l 161 -356 l 301 -215 l 160 -75 z "},"پ":{"ha":1135,"x_min":0,"x_max":0,"o":"m 60 539 b 35 338 42 457 35 403 b 392 0 35 117 153 0 l 751 0 b 765 15 761 0 765 6 l 765 204 b 751 218 765 214 761 218 l 442 218 b 229 389 282 218 229 274 b 249 539 229 429 233 474 z m 825 674 b 867 343 854 492 867 407 b 749 218 867 256 836 218 b 735 204 739 218 735 214 l 733 15 b 747 0 733 6 738 0 b 1072 285 964 0 1072 103 b 1032 674 1072 374 1061 485 z m 363 -219 l 504 -361 l 611 -253 l 721 -361 l 861 -219 l 719 -79 l 611 -186 l 501 -79 z m 514 -407 l 611 -504 l 708 -407 l 610 -308 z "},"ﭗ":{"ha":1178,"x_min":0,"x_max":0,"o":"m 865 514 b 836 276 865 397 860 322 b 735 218 817 240 783 221 l 722 218 l 718 218 l 443 218 b 231 397 281 218 231 275 b 256 611 231 451 239 528 l 67 611 b 33 339 44 500 33 407 b 393 0 33 117 154 0 l 718 0 l 722 0 l 753 0 b 760 1 756 0 758 0 b 897 43 815 6 861 19 b 957 96 921 58 940 75 b 1178 0 1022 32 1096 0 b 1192 15 1188 0 1192 6 l 1192 204 b 1178 218 1192 214 1188 218 b 1083 232 1146 218 1114 222 b 1031 254 1065 236 1049 244 l 1043 317 b 1056 514 1051 375 1056 440 z m 371 -219 l 513 -361 l 619 -253 l 729 -361 l 869 -219 l 728 -79 l 619 -186 l 510 -79 z m 522 -407 l 619 -504 l 717 -407 l 618 -308 z "},"ﭙ":{"ha":529,"x_min":0,"x_max":0,"o":"m 182 514 b 144 274 182 397 178 319 b 0 218 118 236 71 218 b -14 204 -10 218 -14 214 l -14 15 b 0 0 -14 6 -10 0 b 201 42 85 0 151 14 b 286 114 236 61 264 85 b 375 43 314 85 343 61 b 529 0 425 14 476 0 b 543 15 539 0 543 6 l 543 204 b 529 218 543 214 539 218 b 429 235 497 218 464 224 b 353 271 401 244 376 256 b 361 318 357 286 360 303 b 372 514 368 378 372 443 z m 6 -217 l 147 -358 l 254 -250 l 364 -358 l 504 -217 l 363 -76 l 254 -183 l 144 -76 z m 157 -404 l 254 -501 l 351 -404 l 253 -306 z "},"ﭘ":{"ha":500,"x_min":0,"x_max":0,"o":"m 193 674 b 235 343 222 492 235 407 b 118 218 235 256 206 218 l 1 218 b -12 204 -8 218 -12 214 l -14 15 b 0 0 -14 6 -10 0 l 117 0 b 442 285 333 0 442 103 b 401 674 442 374 431 485 z m -43 -215 l 99 -357 l 206 -249 l 315 -357 l 456 -215 l 314 -75 l 206 -182 l 96 -75 z m 108 -403 l 206 -500 l 303 -403 l 204 -304 z "},"ت":{"ha":1135,"x_min":0,"x_max":0,"o":"m 60 539 b 35 338 42 457 35 403 b 392 0 35 117 153 0 l 751 0 b 765 15 761 0 765 6 l 765 204 b 751 218 765 214 761 218 l 442 218 b 229 389 282 218 229 274 b 249 539 229 429 233 474 z m 825 674 b 867 343 854 492 867 407 b 749 218 867 256 836 218 b 735 204 739 218 735 214 l 733 15 b 747 0 733 6 738 0 b 1072 285 964 0 1072 103 b 1032 674 1072 374 1061 485 z m 304 760 l 446 621 l 551 724 l 658 621 l 797 760 l 656 900 l 550 796 l 443 900 z "},"ﺖ":{"ha":1178,"x_min":0,"x_max":0,"o":"m 865 514 b 836 276 865 397 860 322 b 735 218 817 240 783 221 l 722 218 l 718 218 l 443 218 b 231 397 281 218 231 275 b 256 611 231 451 239 528 l 67 611 b 33 339 44 500 33 407 b 393 0 33 117 154 0 l 718 0 l 722 0 l 753 0 b 760 1 756 0 758 0 b 897 43 815 6 861 19 b 957 96 921 58 940 75 b 1178 0 1022 32 1096 0 b 1192 15 1188 0 1192 6 l 1192 204 b 1178 218 1192 214 1188 218 b 1083 232 1146 218 1114 222 b 1031 254 1065 236 1049 244 l 1043 317 b 1056 514 1051 375 1056 440 z m 374 758 l 515 619 l 621 722 l 728 619 l 867 758 l 725 899 l 619 794 l 513 899 z "},"ﺘ":{"ha":529,"x_min":0,"x_max":0,"o":"m 182 514 b 144 274 182 397 178 319 b 0 218 118 236 71 218 b -14 204 -10 218 -14 214 l -14 15 b 0 0 -14 6 -10 0 b 201 42 85 0 151 14 b 286 114 236 61 264 85 b 375 43 314 85 343 61 b 529 0 425 14 476 0 b 543 15 539 0 543 6 l 543 204 b 529 218 543 214 539 218 b 429 235 497 218 464 224 b 353 271 401 244 376 256 b 361 318 357 286 360 303 b 372 514 368 378 372 443 z m 29 758 l 171 619 l 276 722 l 383 619 l 522 758 l 381 899 l 275 794 l 168 899 z "},"ﺗ":{"ha":551,"x_min":0,"x_max":0,"o":"m 193 674 b 235 343 222 492 235 407 b 118 218 235 256 206 218 l 1 218 b -12 204 -8 218 -12 214 l -14 15 b 0 0 -14 6 -10 0 l 117 0 b 442 285 333 0 442 103 b 401 674 442 374 431 485 z m 33 906 l 175 767 l 281 869 l 388 767 l 526 906 l 385 1046 l 279 942 l 172 1046 z "},"ث":{"ha":1135,"x_min":0,"x_max":0,"o":"m 60 539 b 35 338 42 457 35 403 b 392 0 35 117 153 0 l 751 0 b 765 15 761 0 765 6 l 765 204 b 751 218 765 214 761 218 l 442 218 b 229 389 282 218 229 274 b 249 539 229 429 233 474 z m 825 674 b 867 343 854 492 867 407 b 749 218 867 256 836 218 b 735 204 739 218 735 214 l 733 15 b 747 0 733 6 738 0 b 1072 285 964 0 1072 103 b 1032 674 1072 374 1061 485 z m 288 761 l 428 621 l 536 729 l 647 621 l 786 761 l 646 903 l 536 793 l 426 903 z m 440 956 l 538 858 l 635 956 l 536 1053 z "},"ﺚ":{"ha":1178,"x_min":0,"x_max":0,"o":"m 865 514 b 836 276 865 397 860 322 b 735 218 817 240 783 221 l 443 218 b 231 397 281 218 231 275 b 256 611 231 451 239 528 l 67 611 b 33 339 44 500 33 407 b 393 0 33 117 154 0 l 753 0 b 760 1 756 0 758 0 b 897 43 815 6 861 19 b 957 96 921 58 940 75 b 1178 0 1022 32 1096 0 b 1192 15 1188 0 1192 6 l 1192 204 b 1178 218 1192 214 1188 218 b 1083 232 1146 218 1114 222 b 1031 254 1065 236 1049 244 l 1043 317 b 1056 514 1051 375 1056 440 z m 357 751 l 497 611 l 606 719 l 717 611 l 856 751 l 715 893 l 606 783 l 496 893 z m 510 946 l 607 849 l 704 946 l 606 1043 z "},"ﺜ":{"ha":529,"x_min":0,"x_max":0,"o":"m 182 514 b 144 274 182 397 178 319 b 0 218 118 236 71 218 b -14 204 -10 218 -14 214 l -14 15 b 0 0 -14 6 -10 0 b 201 42 85 0 151 14 b 286 114 236 61 264 85 b 375 43 314 85 343 61 b 529 0 425 14 476 0 b 543 15 539 0 543 6 l 543 204 b 529 218 543 214 539 218 b 429 235 497 218 464 224 b 353 271 401 244 376 256 b 361 318 357 286 360 303 b 372 514 368 378 372 443 z m 18 758 l 158 618 l 267 726 l 378 618 l 517 758 l 376 900 l 267 790 l 157 900 z m 171 953 l 268 856 l 365 953 l 267 1050 z "},"ﺛ":{"ha":554,"x_min":0,"x_max":0,"o":"m 193 674 b 235 343 222 492 235 407 b 118 218 235 256 206 218 l 1 218 b -12 204 -8 218 -12 214 l -14 15 b 0 0 -14 6 -10 0 l 117 0 b 442 285 333 0 442 103 b 401 674 442 374 431 485 z m 31 901 l 171 761 l 279 869 l 390 761 l 529 901 l 389 1043 l 279 933 l 169 1043 z m 183 1096 l 281 999 l 378 1096 l 279 1193 z "},"ٹ":{"ha":1135,"x_min":0,"x_max":0,"o":"m 60 539 b 35 338 42 457 35 403 b 392 0 35 117 153 0 l 751 0 b 765 15 761 0 765 6 l 765 204 b 751 218 765 214 761 218 l 442 218 b 229 389 282 218 229 274 b 249 539 229 429 233 474 z m 825 674 b 867 343 854 492 867 407 b 749 218 867 256 836 218 b 735 204 739 218 735 214 l 733 15 b 747 0 733 6 738 0 b 1072 285 964 0 1072 103 b 1032 674 1072 374 1061 485 z m 392 933 l 392 715 l 308 715 l 358 614 l 538 614 b 772 760 681 614 772 669 b 632 892 772 832 714 892 b 529 847 600 892 567 876 b 479 800 514 835 497 819 l 483 822 l 483 933 z m 492 715 l 503 725 b 611 792 553 775 582 792 b 651 758 633 792 651 779 b 539 715 651 726 611 715 z "},"ﭧ":{"ha":1178,"x_min":0,"x_max":0,"o":"m 865 514 b 836 276 865 397 860 322 b 735 218 817 240 783 221 l 443 218 b 231 397 281 218 231 275 b 256 611 231 451 239 528 l 67 611 b 33 339 44 500 33 407 b 393 0 33 117 154 0 l 753 0 b 760 1 756 0 758 0 b 897 43 815 6 861 19 b 957 96 921 58 940 75 b 1178 0 1022 32 1096 0 b 1192 15 1188 0 1192 6 l 1192 204 b 1178 218 1192 214 1188 218 b 1083 232 1146 218 1114 222 b 1031 254 1065 236 1049 244 l 1043 317 b 1056 514 1051 375 1056 440 z m 488 931 l 488 713 l 404 713 l 454 611 l 633 611 b 868 757 776 611 868 667 b 728 889 868 829 810 889 b 624 844 696 889 661 874 b 575 797 608 832 592 817 l 579 819 l 579 931 z m 586 713 l 597 722 b 707 789 650 772 678 789 b 747 756 729 789 747 776 b 635 713 747 724 707 713 z "},"ﭩ":{"ha":529,"x_min":0,"x_max":0,"o":"m 182 514 b 144 274 182 397 178 319 b 0 218 118 236 71 218 b -14 204 -10 218 -14 214 l -14 15 b 0 0 -14 6 -10 0 b 201 42 85 0 151 14 b 286 114 236 61 264 85 b 375 43 314 85 343 61 b 529 0 425 14 476 0 b 543 15 539 0 543 6 l 543 204 b 529 218 543 214 539 218 b 429 235 497 218 464 224 b 353 271 401 244 376 256 b 361 318 357 286 360 303 b 372 514 368 378 372 443 z m 125 932 l 125 714 l 42 714 l 92 613 l 271 613 b 506 758 414 613 506 668 b 365 890 506 831 447 890 b 263 846 333 890 300 875 b 213 799 247 833 231 818 l 217 821 l 217 932 z m 225 714 l 236 724 b 344 790 286 774 315 790 b 385 757 367 790 385 778 b 272 714 385 725 344 714 z "},"ﭨ":{"ha":531,"x_min":0,"x_max":0,"o":"m 193 674 b 235 343 222 492 235 407 b 118 218 235 256 206 218 l 1 218 b -12 204 -8 218 -12 214 l -14 15 b 0 0 -14 6 -10 0 l 117 0 b 442 285 333 0 442 103 b 401 674 442 374 431 485 z m 126 1067 l 126 849 l 43 849 l 93 747 l 272 747 b 507 893 415 747 507 803 b 367 1025 507 965 449 1025 b 264 981 335 1025 301 1010 b 214 933 249 968 232 953 l 218 956 l 218 1067 z m 226 849 l 238 858 b 346 925 288 908 317 925 b 386 892 368 925 386 913 b 274 849 386 860 346 849 z "},"ج":{"ha":860,"x_min":0,"x_max":0,"o":"m 269 749 b 89 690 210 749 146 728 l 89 501 b 242 536 149 525 193 536 b 515 418 340 536 410 479 b 551 400 526 411 539 406 b 407 363 501 390 453 378 b 33 -51 188 292 33 157 b 438 -382 33 -262 178 -382 b 765 -317 531 -382 626 -362 l 765 -115 b 451 -168 621 -158 529 -168 b 235 -11 307 -168 235 -111 b 779 269 235 172 574 269 l 839 485 b 269 749 588 540 471 749 z m 365 29 l 507 -111 l 647 29 l 506 169 z "},"ﺞ":{"ha":904,"x_min":0,"x_max":0,"o":"m 269 749 b 89 690 210 749 146 728 l 89 501 b 242 536 149 525 193 536 b 515 418 340 536 410 479 b 551 400 526 411 539 406 b 407 363 501 390 453 378 b 33 -51 188 292 33 157 b 438 -382 33 -262 178 -382 b 765 -317 531 -382 626 -362 l 765 -115 b 451 -168 621 -158 529 -168 b 235 -11 307 -168 235 -111 b 546 238 235 110 385 196 b 632 256 575 244 603 251 l 632 247 b 904 0 632 82 731 0 b 918 15 914 0 918 6 l 918 204 b 904 218 918 214 914 218 b 729 264 772 218 735 219 b 728 268 729 265 729 267 b 779 269 746 269 763 269 l 839 485 b 269 749 588 540 471 749 z m 357 25 l 499 -115 l 639 25 l 497 165 z "},"ﺠ":{"ha":876,"x_min":0,"x_max":0,"o":"m 264 697 b 81 639 203 697 142 678 l 81 451 b 233 485 139 474 190 485 b 496 381 331 485 396 436 b 564 349 515 371 538 360 l 532 336 b 1 218 392 281 294 218 b -14 204 -8 218 -14 214 l -14 15 b 1 0 -14 6 -8 0 b 617 204 358 0 424 132 b 621 206 618 204 619 204 b 686 65 628 146 650 100 b 876 0 732 22 794 0 b 890 15 886 0 890 6 l 890 204 b 876 218 890 214 886 218 b 794 226 843 218 815 221 b 754 243 779 231 765 236 l 813 454 b 264 697 560 515 460 697 z m 204 -215 l 346 -356 l 486 -215 l 344 -75 z "},"ﺟ":{"ha":832,"x_min":0,"x_max":0,"o":"m 264 697 b 81 639 203 697 142 678 l 81 451 b 233 485 139 474 190 485 b 496 381 331 485 396 436 b 564 349 515 371 538 360 l 532 336 b 1 218 392 281 294 218 b -14 204 -8 218 -14 214 l -14 15 b 1 0 -14 6 -8 0 b 753 239 429 0 438 189 l 813 454 b 264 697 560 515 460 697 z m 196 -215 l 338 -356 l 478 -215 l 336 -75 z "},"چ":{"ha":904,"x_min":0,"x_max":0,"o":"m 276 749 b 96 690 217 749 153 728 l 96 501 b 249 536 156 525 200 536 b 525 418 346 536 418 478 b 561 400 536 411 549 406 b 413 363 510 390 460 378 b 40 -51 193 292 40 153 b 156 -319 40 -139 79 -224 l 333 -251 b 239 -46 268 -172 239 -112 b 786 269 239 132 482 269 l 846 485 b 276 749 594 540 478 749 z m 339 -99 l 481 -240 l 588 -132 l 697 -240 l 838 -99 l 696 42 l 588 -65 l 478 42 z m 490 -286 l 588 -383 l 685 -286 l 586 -187 z "},"ﭻ":{"ha":904,"x_min":0,"x_max":0,"o":"m 276 749 b 96 690 217 749 153 728 l 96 501 b 249 536 156 525 200 536 b 522 418 347 536 417 479 b 558 400 533 411 546 406 b 414 363 508 390 460 378 b 40 -51 194 292 40 157 b 154 -319 40 -139 76 -224 l 338 -251 b 239 -36 267 -169 239 -107 b 589 247 239 101 399 207 b 632 256 604 251 618 254 l 632 247 b 904 0 632 82 731 0 b 918 15 914 0 918 6 l 918 204 b 904 218 918 214 914 218 b 729 264 772 218 735 219 b 728 268 729 265 729 267 b 786 269 747 269 767 269 l 846 485 b 276 749 594 540 478 749 z m 386 -217 l 528 -358 l 635 -250 l 744 -358 l 885 -217 l 743 -76 l 635 -183 l 525 -76 z m 538 -404 l 635 -501 l 732 -404 l 633 -306 z "},"ﭽ":{"ha":876,"x_min":0,"x_max":0,"o":"m 264 697 b 81 639 203 697 142 678 l 81 451 b 233 485 139 474 190 485 b 496 381 331 485 396 436 b 564 349 515 371 538 360 l 532 336 b 1 218 392 281 294 218 b -14 204 -8 218 -14 214 l -14 15 b 1 0 -14 6 -8 0 b 617 204 358 0 424 132 b 621 206 618 204 619 204 b 686 65 628 146 650 100 b 876 0 732 22 794 0 b 890 15 886 0 890 6 l 890 204 b 876 218 890 214 886 218 b 794 226 843 218 815 221 b 754 243 779 231 765 236 l 813 454 b 264 697 560 515 460 697 z m 150 -217 l 292 -358 l 399 -250 l 508 -358 l 649 -217 l 507 -76 l 399 -183 l 289 -76 z m 301 -404 l 399 -501 l 496 -404 l 397 -306 z "},"ﭼ":{"ha":832,"x_min":0,"x_max":0,"o":"m 264 697 b 81 639 203 697 142 678 l 81 451 b 233 485 139 474 190 485 b 496 381 331 485 396 436 b 564 349 515 371 538 360 l 532 336 b 1 218 392 281 294 218 b -14 204 -8 218 -14 214 l -14 15 b 1 0 -14 6 -8 0 b 753 239 429 0 438 189 l 813 454 b 264 697 560 515 460 697 z m 150 -217 l 292 -358 l 399 -250 l 508 -358 l 649 -217 l 507 -76 l 399 -183 l 289 -76 z m 301 -404 l 399 -501 l 496 -404 l 397 -306 z "},"ح":{"ha":860,"x_min":0,"x_max":0,"o":"m 269 749 b 89 690 210 749 146 728 l 89 501 b 242 536 149 525 193 536 b 515 418 340 536 410 479 b 551 400 526 411 539 406 b 407 363 501 390 453 378 b 33 -51 188 292 33 157 b 438 -382 33 -262 178 -382 b 765 -317 531 -382 626 -362 l 765 -115 b 451 -168 621 -158 529 -168 b 235 -11 307 -168 235 -111 b 779 269 235 172 574 269 l 839 485 b 269 749 588 540 471 749 z "},"ﺢ":{"ha":904,"x_min":0,"x_max":0,"o":"m 269 749 b 89 690 210 749 146 728 l 89 501 b 242 536 149 525 193 536 b 515 418 340 536 410 479 b 551 400 526 411 539 406 b 407 363 501 390 453 378 b 33 -51 188 292 33 157 b 438 -382 33 -262 178 -382 b 765 -317 531 -382 626 -362 l 765 -115 b 451 -168 621 -158 529 -168 b 235 -11 307 -168 235 -111 b 546 238 235 110 385 196 b 632 256 575 244 603 251 l 632 247 b 904 0 632 82 731 0 b 918 15 914 0 918 6 l 918 204 b 904 218 918 214 914 218 b 729 264 772 218 735 219 b 728 268 729 265 729 267 b 779 269 746 269 763 269 l 839 485 b 269 749 588 540 471 749 z "},"ﺤ":{"ha":876,"x_min":0,"x_max":0,"o":"m 264 697 b 81 639 203 697 142 678 l 81 451 b 233 485 139 474 190 485 b 496 381 331 485 396 436 b 564 349 515 371 538 360 l 532 336 b 1 218 392 281 294 218 b -14 204 -8 218 -14 214 l -14 15 b 1 0 -14 6 -8 0 b 617 204 358 0 424 132 b 621 206 618 204 619 204 b 686 65 628 146 650 100 b 876 0 732 22 794 0 b 890 15 886 0 890 6 l 890 204 b 876 218 890 214 886 218 b 794 226 843 218 815 221 b 754 243 779 231 765 236 l 813 454 b 264 697 560 515 460 697 z "},"ﺣ":{"ha":832,"x_min":0,"x_max":0,"o":"m 264 697 b 81 639 203 697 142 678 l 81 451 b 233 485 139 474 190 485 b 496 381 331 485 396 436 b 564 349 515 371 538 360 l 532 336 b 1 218 392 281 294 218 b -14 204 -8 218 -14 214 l -14 15 b 1 0 -14 6 -8 0 b 753 239 429 0 438 189 l 813 454 b 264 697 560 515 460 697 z "},"خ":{"ha":860,"x_min":0,"x_max":0,"o":"m 269 749 b 89 690 210 749 146 728 l 89 501 b 242 536 149 525 193 536 b 515 418 340 536 410 479 b 551 400 526 411 539 406 b 407 363 501 390 453 378 b 33 -51 188 292 33 157 b 438 -382 33 -262 178 -382 b 765 -317 531 -382 626 -362 l 765 -115 b 451 -168 621 -158 529 -168 b 235 -11 307 -168 235 -111 b 779 269 235 172 574 269 l 839 485 b 269 749 588 540 471 749 z m 450 894 l 592 754 l 732 894 l 590 1035 z "},"ﺦ":{"ha":904,"x_min":0,"x_max":0,"o":"m 269 749 b 89 690 210 749 146 728 l 89 501 b 242 536 149 525 193 536 b 515 418 340 536 410 479 b 551 400 526 411 539 406 b 407 363 501 390 453 378 b 33 -51 188 292 33 157 b 438 -382 33 -262 178 -382 b 765 -317 531 -382 626 -362 l 765 -115 b 451 -168 621 -158 529 -168 b 235 -11 307 -168 235 -111 b 546 238 235 110 385 196 b 632 256 575 244 603 251 l 632 247 b 904 0 632 82 731 0 b 918 15 914 0 918 6 l 918 204 b 904 218 918 214 914 218 b 729 264 772 218 735 219 b 728 268 729 265 729 267 b 779 269 746 269 763 269 l 839 485 b 269 749 588 540 471 749 z m 450 893 l 592 753 l 732 893 l 590 1033 z "},"ﺨ":{"ha":876,"x_min":0,"x_max":0,"o":"m 264 697 b 81 639 203 697 142 678 l 81 451 b 233 485 139 474 190 485 b 496 381 331 485 396 436 b 564 349 515 371 538 360 l 532 336 b 1 218 392 281 294 218 b -14 204 -8 218 -14 214 l -14 15 b 1 0 -14 6 -8 0 b 617 204 358 0 424 132 b 621 206 618 204 619 204 b 686 65 628 146 650 100 b 876 0 732 22 794 0 b 890 15 886 0 890 6 l 890 204 b 876 218 890 214 886 218 b 794 226 843 218 815 221 b 754 243 779 231 765 236 l 813 454 b 264 697 560 515 460 697 z m 224 926 l 365 786 l 506 926 l 364 1067 z "},"ﺧ":{"ha":832,"x_min":0,"x_max":0,"o":"m 264 697 b 81 639 203 697 142 678 l 81 451 b 233 485 139 474 190 485 b 496 381 331 485 396 436 b 564 349 515 371 538 360 l 532 336 b 1 218 392 281 294 218 b -14 204 -8 218 -14 214 l -14 15 b 1 0 -14 6 -8 0 b 753 239 429 0 438 189 l 813 454 b 264 697 560 515 460 697 z m 224 926 l 365 786 l 506 926 l 364 1067 z "},"د":{"ha":640,"x_min":0,"x_max":0,"o":"m 253 674 b 386 293 347 478 386 343 b 260 218 386 242 349 218 b 6 254 188 218 140 225 l 6 43 b 313 0 126 14 214 0 b 592 256 494 0 592 93 b 463 674 592 350 544 503 z "},"ﺪ":{"ha":697,"x_min":0,"x_max":0,"o":"m 6 47 b 239 1 103 14 151 1 b 385 25 292 1 340 10 b 490 79 418 38 453 56 b 511 61 497 72 504 67 b 697 0 563 21 625 0 b 711 15 707 0 711 6 l 711 204 b 697 218 711 214 707 218 b 565 342 633 218 589 260 b 500 674 539 425 522 525 l 290 674 b 393 242 322 500 358 343 l 396 231 l 363 225 b 257 218 331 221 294 218 b 6 258 181 218 121 225 z "},"ذ":{"ha":640,"x_min":0,"x_max":0,"o":"m 253 674 b 386 293 347 478 386 343 b 260 218 386 242 349 218 b 6 254 188 218 140 225 l 6 43 b 313 0 126 14 214 0 b 592 256 494 0 592 93 b 463 674 592 350 544 503 z m 210 901 l 351 761 l 492 901 l 350 1042 z "},"ﺬ":{"ha":697,"x_min":0,"x_max":0,"o":"m 6 47 b 239 1 103 14 151 1 b 385 25 292 1 340 10 b 490 79 418 38 453 56 b 511 61 497 72 504 67 b 697 0 563 21 625 0 b 711 15 707 0 711 6 l 711 204 b 697 218 711 214 707 218 b 565 342 633 218 589 260 b 500 674 539 425 522 525 l 290 674 b 393 242 322 500 358 343 l 396 231 l 363 225 b 257 218 331 221 294 218 b 6 258 181 218 121 225 z m 253 901 l 394 761 l 535 901 l 393 1042 z "},"ڈ":{"ha":640,"x_min":0,"x_max":0,"o":"m 253 674 b 386 293 347 478 386 343 b 260 218 386 242 349 218 b 6 254 188 218 140 225 l 6 43 b 313 0 126 14 214 0 b 592 256 494 0 592 93 b 463 674 592 350 544 503 z m 190 1068 l 190 850 l 107 850 l 157 749 l 336 749 b 571 894 479 749 571 804 b 431 1026 571 967 513 1026 b 328 982 399 1026 365 1011 b 278 935 313 969 296 954 l 282 957 l 282 1068 z m 290 850 l 301 860 b 410 926 351 910 381 926 b 450 893 432 926 450 914 b 338 850 450 861 410 850 z "},"ﮉ":{"ha":697,"x_min":0,"x_max":0,"o":"m 6 47 b 239 1 103 14 151 1 b 385 25 292 1 340 10 b 490 79 418 38 453 56 b 511 61 497 72 504 67 b 697 0 563 21 625 0 b 711 15 707 0 711 6 l 711 204 b 697 218 711 214 707 218 b 565 342 633 218 589 260 b 500 674 539 425 522 525 l 290 674 b 393 242 322 500 358 343 l 396 231 l 363 225 b 257 218 331 221 294 218 b 6 258 181 218 121 225 z m 211 1067 l 211 849 l 128 849 l 178 747 l 357 747 b 592 893 500 747 592 803 b 451 1025 592 965 533 1025 b 349 981 419 1025 386 1010 b 299 933 333 968 317 953 l 303 956 l 303 1067 z m 311 849 l 322 858 b 431 925 372 908 401 925 b 471 892 453 925 471 913 b 358 849 471 860 431 849 z "},"ر":{"ha":442,"x_min":0,"x_max":0,"o":"m 126 611 b 179 42 153 393 179 210 b -7 -122 179 -74 97 -122 l -7 -299 b 379 31 244 -299 379 -197 b 333 611 379 215 360 424 z "},"ﺮ":{"ha":508,"x_min":0,"x_max":0,"o":"m 126 611 b 179 42 153 393 179 210 b -7 -122 179 -74 97 -122 l -7 -299 b 379 31 244 -299 379 -197 l 379 51 l 385 44 b 508 0 414 15 456 0 b 522 15 518 0 522 6 l 522 204 b 508 218 522 214 518 218 b 367 310 444 218 378 235 l 356 393 l 336 393 l 340 167 b 379 51 342 119 354 81 b 365 319 378 138 374 226 b 333 611 357 421 346 518 z "},"ز":{"ha":442,"x_min":0,"x_max":0,"o":"m 126 611 b 179 42 153 393 179 210 b -7 -122 179 -74 97 -122 l -7 -299 b 379 31 244 -299 379 -197 b 333 611 379 215 360 424 z m 81 849 l 222 708 l 363 849 l 221 989 z "},"ﺰ":{"ha":508,"x_min":0,"x_max":0,"o":"m 126 611 b 179 42 153 393 179 210 b -7 -122 179 -74 97 -122 l -7 -299 b 379 31 244 -299 379 -197 l 379 51 l 385 44 b 508 0 414 15 456 0 b 522 15 518 0 522 6 l 522 204 b 508 218 522 214 518 218 b 367 310 444 218 378 235 l 356 393 l 336 393 l 340 167 b 379 51 342 119 354 81 b 365 319 378 138 374 226 b 333 611 357 421 346 518 z m 81 847 l 222 707 l 363 847 l 221 988 z "},"ڑ":{"ha":442,"x_min":0,"x_max":0,"o":"m 126 611 b 179 42 153 393 179 210 b -7 -122 179 -74 97 -122 l -7 -299 b 379 31 244 -299 379 -197 b 333 611 379 215 360 424 z m 71 1007 l 71 789 l -12 789 l 38 688 l 217 688 b 451 833 360 688 451 743 b 311 965 451 906 393 965 b 208 921 279 965 246 950 b 158 874 193 908 176 893 l 163 896 l 163 1007 z m 171 789 l 182 799 b 290 865 232 849 261 865 b 331 832 313 865 331 853 b 218 789 331 800 290 789 z "},"ﮍ":{"ha":508,"x_min":0,"x_max":0,"o":"m 126 611 b 179 42 153 393 179 210 b -7 -122 179 -74 97 -122 l -7 -299 b 379 31 244 -299 379 -197 l 379 51 l 385 44 b 508 0 414 15 456 0 b 522 15 518 0 522 6 l 522 204 b 508 218 522 214 518 218 b 367 310 444 218 378 235 l 356 393 l 336 393 l 340 167 b 379 51 342 119 354 81 b 365 319 378 138 374 226 b 333 611 357 421 346 518 z m 81 1007 l 81 789 l -3 789 l 47 688 l 226 688 b 461 833 369 688 461 743 b 321 965 461 906 403 965 b 217 921 289 965 254 950 b 168 874 201 908 185 893 l 172 896 l 172 1007 z m 179 789 l 190 799 b 300 865 243 849 271 865 b 340 832 322 865 340 853 b 228 789 340 800 300 789 z "},"ژ":{"ha":442,"x_min":0,"x_max":0,"o":"m 126 611 b 179 42 153 393 179 210 b -7 -122 179 -74 97 -122 l -7 -299 b 379 31 244 -299 379 -197 b 333 611 379 215 360 424 z m -31 851 l 110 711 l 218 819 l 329 711 l 468 851 l 328 993 l 218 883 l 108 993 z m 122 1046 l 219 949 l 317 1046 l 218 1143 z "},"ﮋ":{"ha":508,"x_min":0,"x_max":0,"o":"m 126 611 b 179 42 153 393 179 210 b -7 -122 179 -74 97 -122 l -7 -299 b 379 31 244 -299 379 -197 l 379 51 l 385 44 b 508 0 414 15 456 0 b 522 15 518 0 522 6 l 522 204 b 508 218 522 214 518 218 b 367 310 444 218 378 235 l 356 393 l 336 393 l 340 167 b 379 51 342 119 354 81 b 365 319 378 138 374 226 b 333 611 357 421 346 518 z m -31 850 l 110 710 l 218 818 l 329 710 l 468 850 l 328 992 l 218 882 l 108 992 z m 122 1044 l 219 947 l 317 1044 l 218 1142 z "},"س":{"ha":1799,"x_min":0,"x_max":0,"o":"m 593 611 b 646 153 631 383 646 267 b 424 -81 646 -3 572 -81 b 224 133 286 -81 224 6 b 282 396 224 213 244 296 l 93 396 b 33 82 56 278 33 193 b 421 -299 33 -164 172 -299 b 740 -185 563 -299 669 -261 b 844 54 797 -124 832 -44 b 881 35 857 47 868 40 b 1014 0 925 13 965 0 b 1165 44 1075 0 1125 15 b 1206 82 1181 56 1193 68 b 1311 29 1240 58 1276 42 b 1458 1 1365 11 1414 1 b 1738 282 1628 1 1738 113 b 1696 674 1738 371 1725 486 l 1489 674 b 1531 340 1522 476 1531 400 b 1414 218 1531 253 1497 218 b 1321 229 1382 218 1350 222 l 1288 240 b 1303 317 1294 264 1299 290 b 1317 514 1313 375 1317 440 l 1125 514 b 1097 276 1125 397 1121 322 b 982 218 1076 238 1039 218 b 844 251 933 218 888 229 b 836 335 843 278 840 306 b 800 611 829 408 817 496 z "},"ﺲ":{"ha":1856,"x_min":0,"x_max":0,"o":"m 593 611 b 646 153 631 383 646 267 b 424 -81 646 -3 572 -81 b 224 133 286 -81 224 6 b 282 396 224 213 244 296 l 93 396 b 33 82 56 278 33 193 b 421 -299 33 -164 172 -299 b 740 -185 563 -299 669 -261 b 844 54 797 -124 832 -44 b 881 35 857 47 868 40 b 1014 0 925 13 965 0 b 1165 44 1075 0 1125 15 b 1211 88 1182 57 1197 72 l 1228 75 b 1429 0 1300 28 1357 0 b 1581 44 1490 0 1540 15 b 1633 97 1600 60 1618 76 b 1856 0 1699 32 1774 0 b 1869 15 1865 0 1869 6 l 1869 204 b 1856 218 1869 214 1865 218 b 1761 232 1824 218 1792 222 b 1707 254 1743 238 1725 244 b 1718 317 1711 275 1715 296 b 1732 514 1728 375 1732 440 l 1732 611 l 1540 611 l 1540 514 b 1513 276 1540 397 1536 322 b 1397 218 1492 238 1454 218 b 1288 239 1360 218 1322 225 b 1303 317 1294 263 1299 289 b 1317 514 1313 375 1317 440 l 1125 514 b 1097 276 1125 397 1121 322 b 982 218 1076 238 1039 218 b 844 251 933 218 888 229 b 836 335 843 278 840 306 b 800 611 829 408 817 496 z "},"ﺴ":{"ha":1286,"x_min":0,"x_max":0,"o":"m 124 514 b 94 276 124 397 115 322 b 0 218 76 238 49 218 b -14 204 -10 218 -14 214 l -14 15 b 0 0 -14 6 -10 0 b 164 43 67 0 121 14 b 217 93 185 57 201 74 l 242 75 b 443 0 314 28 371 0 b 594 44 504 0 554 15 b 640 88 611 57 626 72 l 657 75 b 858 0 729 28 786 0 b 1010 44 919 0 969 15 b 1064 99 1031 60 1049 78 b 1286 0 1129 33 1203 0 b 1300 15 1296 0 1300 6 l 1300 204 b 1286 218 1300 214 1296 218 b 1192 232 1254 218 1222 222 b 1136 256 1174 238 1154 246 b 1147 317 1140 275 1144 296 b 1161 514 1157 375 1161 440 l 1161 611 l 969 611 l 969 514 b 942 276 969 397 965 322 b 826 218 921 238 883 218 b 717 239 789 218 751 225 b 732 317 724 263 728 289 b 746 514 742 375 746 440 l 554 514 b 526 276 554 397 550 322 b 411 218 506 238 468 218 b 285 246 367 218 325 228 b 314 514 304 319 314 410 z "},"ﺳ":{"ha":1226,"x_min":0,"x_max":0,"o":"m 124 514 b 94 276 124 397 115 322 b 0 218 76 238 49 218 b -14 204 -10 218 -14 214 l -14 15 b 0 0 -14 6 -10 0 b 164 43 67 0 121 14 b 217 93 185 57 201 74 l 242 75 b 443 0 314 28 371 0 b 594 44 504 0 554 15 b 635 82 608 56 622 68 b 739 29 669 58 704 42 b 886 1 793 11 842 1 b 1165 282 1056 1 1165 113 b 1124 674 1165 371 1153 486 l 917 674 b 958 340 950 476 958 400 b 842 218 958 253 925 218 b 749 229 810 218 778 222 b 717 239 739 232 728 235 b 732 317 724 264 728 290 b 746 514 742 375 746 440 l 554 514 b 526 276 554 397 550 322 b 411 218 506 238 468 218 b 285 246 367 218 325 228 b 314 514 304 319 314 410 z "},"ش":{"ha":1799,"x_min":0,"x_max":0,"o":"m 593 611 b 646 153 631 383 646 267 b 424 -81 646 -3 572 -81 b 224 133 286 -81 224 6 b 282 396 224 213 244 296 l 93 396 b 33 82 56 278 33 193 b 421 -299 33 -164 172 -299 b 740 -185 563 -299 669 -261 b 844 54 797 -124 832 -44 b 881 35 857 47 868 40 b 1014 0 925 13 965 0 b 1165 44 1075 0 1125 15 b 1206 82 1181 56 1193 68 b 1311 29 1240 58 1276 42 b 1458 1 1365 11 1414 1 b 1738 282 1628 1 1738 113 b 1696 674 1738 371 1725 486 l 1489 674 b 1531 340 1522 476 1531 400 b 1414 218 1531 253 1497 218 b 1321 229 1382 218 1350 222 l 1288 240 b 1303 317 1294 264 1299 290 b 1317 514 1313 375 1317 440 l 1125 514 b 1097 276 1125 397 1121 322 b 982 218 1076 238 1039 218 b 844 251 933 218 888 229 b 836 335 843 278 840 306 b 800 611 829 408 817 496 z m 968 782 l 1108 642 l 1217 750 l 1328 642 l 1467 782 l 1326 924 l 1217 814 l 1107 924 z m 1121 976 l 1218 879 l 1315 976 l 1217 1074 z "},"ﺶ":{"ha":1856,"x_min":0,"x_max":0,"o":"m 593 611 b 646 153 631 383 646 267 b 424 -81 646 -3 572 -81 b 224 133 286 -81 224 6 b 282 396 224 213 244 296 l 93 396 b 33 82 56 278 33 193 b 421 -299 33 -164 172 -299 b 740 -185 563 -299 669 -261 b 844 54 797 -124 832 -44 b 881 35 857 47 868 40 b 1014 0 925 13 965 0 b 1165 44 1075 0 1125 15 b 1211 88 1182 57 1197 72 l 1228 75 b 1429 0 1300 28 1357 0 b 1581 44 1490 0 1540 15 b 1633 97 1600 60 1618 76 b 1856 0 1699 32 1774 0 b 1869 15 1865 0 1869 6 l 1869 204 b 1856 218 1869 214 1865 218 b 1761 232 1824 218 1792 222 b 1707 254 1743 238 1725 244 b 1718 317 1711 275 1715 296 b 1732 514 1728 375 1732 440 l 1732 611 l 1540 611 l 1540 514 b 1513 276 1540 397 1536 322 b 1397 218 1492 238 1454 218 b 1288 239 1360 218 1322 225 b 1303 317 1294 263 1299 289 b 1317 514 1313 375 1317 440 l 1125 514 b 1097 276 1125 397 1121 322 b 982 218 1076 238 1039 218 b 844 251 933 218 888 229 b 836 335 843 278 840 306 b 800 611 829 408 817 496 z m 967 782 l 1107 642 l 1215 750 l 1326 642 l 1465 782 l 1325 924 l 1215 814 l 1106 924 z m 1119 976 l 1217 879 l 1314 976 l 1215 1074 z "},"ﺸ":{"ha":1286,"x_min":0,"x_max":0,"o":"m 124 514 b 94 276 124 397 115 322 b 0 218 76 238 49 218 b -14 204 -10 218 -14 214 l -14 15 b 0 0 -14 6 -10 0 b 164 43 67 0 121 14 b 217 93 185 57 201 74 l 242 75 b 443 0 314 28 371 0 b 594 44 504 0 554 15 b 640 88 611 57 626 72 l 657 75 b 858 0 729 28 786 0 b 1010 44 919 0 969 15 b 1064 99 1031 60 1049 78 b 1286 0 1129 33 1203 0 b 1300 15 1296 0 1300 6 l 1300 204 b 1286 218 1300 214 1296 218 b 1192 232 1254 218 1222 222 b 1136 256 1174 238 1154 246 b 1147 317 1140 275 1144 296 b 1161 514 1157 375 1161 440 l 1161 611 l 969 611 l 969 514 b 942 276 969 397 965 322 b 826 218 921 238 883 218 b 717 239 789 218 751 225 b 732 317 724 263 728 289 b 746 514 742 375 746 440 l 554 514 b 526 276 554 397 550 322 b 411 218 506 238 468 218 b 285 246 367 218 325 228 b 314 514 304 319 314 410 z m 396 779 l 536 639 l 644 747 l 756 639 l 894 779 l 754 921 l 644 811 l 535 921 z m 549 974 l 646 876 l 743 974 l 644 1071 z "},"ﺷ":{"ha":1226,"x_min":0,"x_max":0,"o":"m 124 514 b 94 276 124 397 115 322 b 0 218 76 238 49 218 b -14 204 -10 218 -14 214 l -14 15 b 0 0 -14 6 -10 0 b 164 43 67 0 121 14 b 217 93 185 57 201 74 l 242 75 b 443 0 314 28 371 0 b 594 44 504 0 554 15 b 635 82 608 56 622 68 b 739 29 669 58 704 42 b 886 1 793 11 842 1 b 1165 282 1056 1 1165 113 b 1124 674 1165 371 1153 486 l 917 674 b 958 340 950 476 958 400 b 842 218 958 253 925 218 b 749 229 810 218 778 222 b 717 239 739 232 728 235 b 732 317 724 264 728 290 b 746 514 742 375 746 440 l 554 514 b 526 276 554 397 550 322 b 411 218 506 238 468 218 b 285 246 367 218 325 228 b 314 514 304 319 314 410 z m 406 781 l 546 640 l 654 749 l 765 640 l 904 781 l 764 922 l 654 813 l 544 922 z m 558 975 l 656 878 l 753 975 l 654 1072 z "},"ص":{"ha":1782,"x_min":0,"x_max":0,"o":"m 593 611 b 646 153 631 383 646 267 b 424 -81 646 -3 572 -81 b 224 133 286 -81 224 6 b 282 396 224 213 244 296 l 93 396 b 33 82 56 278 33 193 b 421 -299 33 -164 172 -299 b 740 -185 563 -299 669 -261 b 842 38 794 -128 829 -53 l 860 35 b 1160 0 953 15 1063 0 b 1733 425 1519 0 1733 165 b 1421 746 1733 608 1606 746 b 947 497 1276 746 1129 663 b 831 386 910 464 871 426 b 821 457 828 408 825 432 l 800 611 z m 957 228 b 886 238 932 232 908 235 l 999 333 b 1376 532 1165 472 1278 532 b 1525 399 1467 532 1525 476 b 1149 218 1525 294 1376 218 b 957 228 1078 218 1014 221 z "},"ﺺ":{"ha":1825,"x_min":0,"x_max":0,"o":"m 593 611 b 646 153 631 383 646 267 b 424 -81 646 -3 572 -81 b 224 133 286 -81 224 6 b 282 396 224 213 244 296 l 93 396 b 33 82 56 278 33 193 b 421 -299 33 -164 172 -299 b 740 -185 563 -299 669 -261 b 842 38 794 -128 829 -53 l 860 35 b 1160 0 953 15 1063 0 b 1581 115 1339 0 1482 42 l 1585 118 b 1825 0 1654 39 1735 0 b 1839 15 1835 0 1839 6 l 1839 204 b 1825 218 1839 214 1835 218 b 1731 232 1793 218 1761 222 b 1693 246 1718 236 1706 240 l 1694 249 b 1733 425 1721 301 1733 360 b 1421 746 1733 608 1606 746 b 947 497 1276 746 1129 663 b 831 386 910 464 871 426 b 821 457 828 408 825 432 l 800 611 z m 957 228 b 886 238 932 232 908 235 l 999 333 b 1376 532 1165 472 1278 532 b 1525 399 1467 532 1525 476 b 1149 218 1525 294 1376 218 b 957 228 1078 218 1014 221 z "},"ﺼ":{"ha":1401,"x_min":0,"x_max":0,"o":"m 176 514 b 149 318 167 418 161 367 b 0 218 131 250 89 218 b -14 204 -10 218 -14 214 l -14 15 b 0 0 -14 6 -10 0 b 194 56 72 0 140 18 b 235 88 210 65 222 75 b 281 72 250 82 265 76 b 736 0 404 31 553 0 b 1308 425 1096 0 1308 165 b 996 746 1308 608 1181 746 b 514 461 847 746 717 669 b 338 271 461 407 403 344 l 326 275 b 361 514 340 340 350 408 z m 724 218 b 513 232 647 218 576 222 l 593 313 b 951 532 763 479 853 532 b 1100 399 1040 532 1100 476 b 724 218 1100 294 951 218 z m 1126 161 b 1401 0 1204 54 1296 0 b 1415 15 1411 0 1415 6 l 1415 204 b 1401 218 1415 214 1411 218 b 1217 279 1336 218 1276 235 z "},"ﺻ":{"ha":1357,"x_min":0,"x_max":0,"o":"m 176 514 b 149 318 167 418 161 367 b 0 218 131 250 89 218 b -14 204 -10 218 -14 214 l -14 15 b 0 0 -14 6 -10 0 b 194 56 72 0 140 18 b 235 88 210 65 222 75 b 281 72 250 82 265 76 b 736 0 404 31 553 0 b 1308 425 1096 0 1308 165 b 996 746 1308 608 1181 746 b 514 461 847 746 717 669 b 338 271 461 407 403 344 l 326 275 b 361 514 340 340 350 408 z m 724 218 b 513 232 647 218 576 222 l 593 313 b 951 532 763 479 853 532 b 1100 399 1040 532 1100 476 b 724 218 1100 294 951 218 z "},"ض":{"ha":1782,"x_min":0,"x_max":0,"o":"m 593 611 b 646 153 631 383 646 267 b 424 -81 646 -3 572 -81 b 224 133 286 -81 224 6 b 282 396 224 213 244 296 l 93 396 b 33 82 56 278 33 193 b 421 -299 33 -164 172 -299 b 740 -185 563 -299 669 -261 b 842 38 794 -128 829 -53 l 860 35 b 1160 0 953 15 1063 0 b 1733 425 1519 0 1733 165 b 1421 746 1733 608 1606 746 b 947 497 1276 746 1129 663 b 831 386 910 464 871 426 b 821 457 828 408 825 432 l 800 611 z m 957 228 b 886 238 932 232 908 235 l 999 333 b 1376 532 1165 472 1278 532 b 1525 399 1467 532 1525 476 b 1149 218 1525 294 1376 218 b 957 228 1078 218 1014 221 z m 869 868 l 1011 728 l 1151 868 l 1010 1008 z "},"ﺾ":{"ha":1825,"x_min":0,"x_max":0,"o":"m 593 611 b 646 153 631 383 646 267 b 424 -81 646 -3 572 -81 b 224 133 286 -81 224 6 b 282 396 224 213 244 296 l 93 396 b 33 82 56 278 33 193 b 421 -299 33 -164 172 -299 b 740 -185 563 -299 669 -261 b 842 38 794 -128 829 -53 l 860 35 b 1160 0 953 15 1063 0 b 1581 115 1339 0 1482 42 l 1585 118 b 1825 0 1654 39 1735 0 b 1839 15 1835 0 1839 6 l 1839 204 b 1825 218 1839 214 1835 218 b 1731 232 1793 218 1761 222 b 1693 246 1718 236 1706 240 l 1694 249 b 1733 425 1721 301 1733 360 b 1421 746 1733 608 1606 746 b 947 497 1276 746 1129 663 b 831 386 910 464 871 426 b 821 457 828 408 825 432 l 800 611 z m 957 228 b 886 238 932 232 908 235 l 999 333 b 1376 532 1165 472 1278 532 b 1525 399 1467 532 1525 476 b 1149 218 1525 294 1376 218 b 957 228 1078 218 1014 221 z m 869 868 l 1011 728 l 1151 868 l 1010 1008 z "},"ﻀ":{"ha":1401,"x_min":0,"x_max":0,"o":"m 176 514 b 149 318 167 418 161 367 b 0 218 131 250 89 218 b -14 204 -10 218 -14 214 l -14 15 b 0 0 -14 6 -10 0 b 194 56 72 0 140 18 b 235 88 210 65 222 75 b 281 72 250 82 265 76 b 736 0 404 31 553 0 b 1308 425 1096 0 1308 165 b 996 746 1308 608 1181 746 b 514 461 847 746 717 669 b 338 271 461 407 403 344 l 326 275 b 361 514 340 340 350 408 z m 724 218 b 513 232 647 218 576 222 l 593 313 b 951 532 763 479 853 532 b 1100 399 1040 532 1100 476 b 724 218 1100 294 951 218 z m 1126 161 b 1401 0 1204 54 1296 0 b 1415 15 1411 0 1415 6 l 1415 204 b 1401 218 1415 214 1411 218 b 1217 279 1336 218 1276 235 z m 436 865 l 578 725 l 718 865 l 576 1006 z "},"ﺿ":{"ha":1357,"x_min":0,"x_max":0,"o":"m 176 514 b 149 318 167 418 161 367 b 0 218 131 250 89 218 b -14 204 -10 218 -14 214 l -14 15 b 0 0 -14 6 -10 0 b 194 56 72 0 140 18 b 235 88 210 65 222 75 b 281 72 250 82 265 76 b 736 0 404 31 553 0 b 1308 425 1096 0 1308 165 b 996 746 1308 608 1181 746 b 514 461 847 746 717 669 b 338 271 461 407 403 344 l 326 275 b 361 514 340 340 350 408 z m 724 218 b 513 232 647 218 576 222 l 593 313 b 951 532 763 479 853 532 b 1100 399 1040 532 1100 476 b 724 218 1100 294 951 218 z m 436 865 l 578 725 l 718 865 l 576 1006 z "},"ط":{"ha":1176,"x_min":0,"x_max":0,"o":"m 203 1007 l 203 289 l 167 247 b 6 275 113 256 60 265 l 6 61 b 554 0 163 24 344 0 b 1128 425 914 0 1128 165 b 815 746 1128 608 1000 746 b 517 611 715 746 626 704 b 369 472 472 574 424 526 b 383 531 375 492 379 511 b 410 729 400 604 410 674 l 410 1007 z m 543 218 b 349 225 476 218 411 221 l 421 301 b 771 532 588 474 672 532 b 919 399 860 532 919 476 b 543 218 919 294 771 218 z "},"ﻂ":{"ha":1221,"x_min":0,"x_max":0,"o":"m 203 1007 l 203 289 l 167 247 b 6 275 113 256 60 265 l 6 61 b 554 0 163 24 344 0 b 1128 425 914 0 1128 165 b 815 746 1128 608 1000 746 b 517 611 715 746 626 704 b 369 472 472 574 424 526 b 383 531 375 492 379 511 b 410 729 400 604 410 674 l 410 1007 z m 543 218 b 349 225 476 218 411 221 l 421 301 b 771 532 588 474 672 532 b 919 399 860 532 919 476 b 543 218 919 294 771 218 z m 946 161 b 1221 0 1024 54 1115 0 b 1235 15 1231 0 1235 6 l 1235 204 b 1221 218 1235 214 1231 218 b 1036 279 1156 218 1096 235 z "},"ﻄ":{"ha":1136,"x_min":0,"x_max":0,"o":"m 132 1007 l 132 282 l 78 218 l 0 218 b -14 204 -10 218 -14 214 l -14 15 b 0 0 -14 6 -10 0 l 478 0 b 1050 425 838 0 1050 165 b 738 746 1050 608 922 746 b 439 608 639 746 549 703 b 300 472 396 571 350 526 l 313 531 b 339 729 329 604 339 674 l 339 1007 z m 269 218 l 342 294 b 694 532 511 472 596 532 b 842 399 783 532 842 476 b 467 218 842 294 694 218 z m 861 161 b 1136 0 939 54 1031 0 b 1150 15 1146 0 1150 6 l 1150 204 b 1136 218 1150 214 1146 218 b 951 279 1071 218 1011 235 z "},"ﻃ":{"ha":1099,"x_min":0,"x_max":0,"o":"m 132 1007 l 132 282 l 78 218 l 0 218 b -14 204 -10 218 -14 214 l -14 15 b 0 0 -14 6 -10 0 l 478 0 b 1050 425 838 0 1050 165 b 738 746 1050 608 922 746 b 439 608 639 746 549 703 b 300 472 396 571 350 526 l 313 531 b 339 729 329 604 339 674 l 339 1007 z m 269 218 l 342 294 b 694 532 511 472 596 532 b 842 399 783 532 842 476 b 467 218 842 294 694 218 z "},"ظ":{"ha":1176,"x_min":0,"x_max":0,"o":"m 203 1007 l 203 289 l 167 247 b 6 275 113 256 60 265 l 6 61 b 554 0 163 24 344 0 b 1128 425 914 0 1128 165 b 815 746 1128 608 1000 746 b 517 611 715 746 626 704 b 369 472 472 574 424 526 b 383 531 375 492 379 511 b 410 729 400 604 410 674 l 410 1007 z m 543 218 b 349 225 476 218 411 221 l 421 301 b 771 532 588 474 672 532 b 919 399 860 532 919 476 b 543 218 919 294 771 218 z m 515 949 l 657 808 l 797 949 l 656 1089 z "},"ﻆ":{"ha":1221,"x_min":0,"x_max":0,"o":"m 203 1007 l 203 289 l 167 247 b 6 275 113 256 60 265 l 6 61 b 554 0 163 24 344 0 b 1128 425 914 0 1128 165 b 815 746 1128 608 1000 746 b 517 611 715 746 626 704 b 369 472 472 574 424 526 b 383 531 375 492 379 511 b 410 729 400 604 410 674 l 410 1007 z m 543 218 b 349 225 476 218 411 221 l 421 301 b 771 532 588 474 672 532 b 919 399 860 532 919 476 b 543 218 919 294 771 218 z m 946 161 b 1221 0 1024 54 1115 0 b 1235 15 1231 0 1235 6 l 1235 204 b 1221 218 1235 214 1231 218 b 1036 279 1156 218 1096 235 z m 515 949 l 657 808 l 797 949 l 656 1089 z "},"ﻈ":{"ha":1136,"x_min":0,"x_max":0,"o":"m 132 1007 l 132 282 l 78 218 l 0 218 b -14 204 -10 218 -14 214 l -14 15 b 0 0 -14 6 -10 0 l 478 0 b 1050 425 838 0 1050 165 b 738 746 1050 608 922 746 b 439 608 639 746 549 703 b 300 472 396 571 350 526 l 313 531 b 339 729 329 604 339 674 l 339 1007 z m 269 218 l 342 294 b 694 532 511 472 596 532 b 842 399 783 532 842 476 b 467 218 842 294 694 218 z m 861 161 b 1136 0 939 54 1031 0 b 1150 15 1146 0 1150 6 l 1150 204 b 1136 218 1150 214 1146 218 b 951 279 1071 218 1011 235 z m 431 949 l 572 808 l 713 949 l 571 1089 z "}}}
